<svg xmlns="http://www.w3.org/2000/svg" viewBox="0 0 596.03 212.31"><defs><style>.cls-1{fill:#5ce500;}.cls-2{fill:#FFFFFF;}</style></defs><g id="Logos"><path class="cls-1" d="M96.51,92a2,2,0,0,1-.9,1.55L83.1,100.76V72.91L59,59l12.51-7.22a2,2,0,0,1,1.8,0L96.51,65.17ZM77.74,76,61.22,66.46a2,2,0,0,0-1.8,0L48.26,72.91,65.68,83v20.12l11.16-6.45a2,2,0,0,0,.9-1.55ZM48.26,93l12.05,7V86.06Z"/><path class="cls-2" d="M123.09,65.16H109.94v35.6h5.84v-14h7.36c8,0,12.35-3.89,12.35-11,0-3.21-1.21-10.67-12.4-10.67m6.47,10.77c0,4-2.08,5.65-7.19,5.65h-6.59V70.42h7.36c4.32,0,6.42,1.8,6.42,5.51m23.29-1.11.44.22-1,5.26-.68-.21a5.71,5.71,0,0,0-1.68-.26c-5.45,0-5.9,4.34-5.9,9.59v11.34h-5.4V74.62h5.07v3.15A7,7,0,0,1,149,74.29a7.33,7.33,0,0,1,3.9.53m13.28-.73c-4.25,0-7.65,1.62-9.85,4.68a15.74,15.74,0,0,0-2.64,9c0,8.26,4.9,13.6,12.49,13.6,9.22,0,12.5-7.43,12.5-13.79a14.67,14.67,0,0,0-3-9.36,11.83,11.83,0,0,0-9.45-4.1m0,22.42c-4.23,0-6.85-3.36-6.85-8.77s2.62-8.87,6.85-8.87,6.9,3.44,6.9,8.77-2.64,8.87-6.9,8.87M224,74.82l.44.22-1,5.26-.68-.21a5.83,5.83,0,0,0-1.69-.26c-5.45,0-5.89,4.34-5.89,9.59v11.34h-5.4V74.62h5.07v3.15a7,7,0,0,1,5.24-3.48,7.36,7.36,0,0,1,3.9.53m19.4,17.56-.1.29a5.75,5.75,0,0,1-5.89,3.89c-4.08,0-6.72-2.72-7-7.12h18.48l.07-.52a15.91,15.91,0,0,0,.06-2.08c0-.17,0-.32,0-.47-.27-7.32-5-12.23-11.87-12.23a11.27,11.27,0,0,0-9.46,4.53,15.66,15.66,0,0,0-2.8,9.12c0,8.07,5,13.5,12.5,13.5,5.78,0,9.77-2.94,11.22-8.27l.17-.64Zm-12.78-7.63c.45-3.62,2.93-5.93,6.46-5.93a6.14,6.14,0,0,1,6.32,5.93ZM200,76.81A9.26,9.26,0,0,0,193,74.09c-7.92,0-11.53,7-11.53,13.46,0,6.64,3.57,13.35,11.53,13.35a9.26,9.26,0,0,0,6.75-2.73c0,1.15-.05,2.25-.08,2.71-.3,4.32-2.37,6.33-6.52,6.33-2.26,0-4.86-.81-5.36-3.06l-.11-.5h-5.32l.09.71c.55,4.61,4.6,7.47,10.55,7.47,5.23,0,8.95-2,10.75-5.69a18.19,18.19,0,0,0,1.32-7.76V74.62H200Zm-6.61,19.27c-1.89,0-6.28-.86-6.28-8.77,0-5.21,2.46-8.44,6.42-8.44,3.06,0,6.33,2.22,6.33,8.44,0,5.49-2.42,8.77-6.47,8.77M274,92.89c0,4.16-3.45,8.35-11.16,8.35-6.82,0-10.88-2.95-11.42-8.31l-.06-.55h5.31l.09.4c.65,3.22,3.72,3.9,6.18,3.9,2.69,0,5.58-.87,5.58-3.31,0-1.23-.81-2.11-2.39-2.6-.94-.28-2.1-.61-3.32-1-2.1-.58-4.28-1.2-5.61-1.66C253.9,87,252,84.66,252,81.82c0-5.28,5.13-7.64,10.21-7.64,6.8,0,10.32,2.57,10.76,7.83l0,.54h-5.24l-.08-.41c-.52-3-3.54-3.49-5.29-3.49-1.51,0-5,.27-5,2.78,0,1.14,1,2,3,2.55l2.51.67c2.14.55,4.79,1.24,6.13,1.7,3.33,1.17,5,3.37,5,6.54m25,0c0,4.16-3.45,8.35-11.16,8.35-6.82,0-10.88-2.95-11.42-8.31l-.06-.55h5.32l.08.4c.65,3.22,3.72,3.9,6.18,3.9,2.7,0,5.57-.87,5.57-3.31,0-1.23-.8-2.11-2.38-2.6-.94-.28-2.1-.61-3.32-1-2.1-.58-4.27-1.2-5.61-1.66C278.85,87,277,84.66,277,81.82c0-5.28,5.13-7.64,10.21-7.64,6.8,0,10.32,2.57,10.76,7.83l.05.54h-5.24l-.08-.41c-.52-3-3.54-3.49-5.29-3.49-1.51,0-5,.27-5,2.78,0,1.14,1,2,3,2.55.6.17,1.48.4,2.52.67,2.13.55,4.78,1.24,6.12,1.7,3.33,1.17,5,3.37,5,6.54"/><path class="cls-2" d="M303.24,77.42a3.72,3.72,0,1,1,3.68-3.72,3.65,3.65,0,0,1-3.68,3.72m0-6.81a3.09,3.09,0,1,0,3,3.09,3,3,0,0,0-3-3.09m-.43,3.78v1.24h-1.09v-3.9h1.83A1.3,1.3,0,0,1,305,73.09a1.14,1.14,0,0,1-.75,1.18l.89,1.36h-1.22l-.75-1.24Zm.61-1.75h-.61v.88h.61c.33,0,.51-.17.51-.43s-.18-.45-.51-.45"/><path class="cls-2" d="M112.85,141.72l17.68-16h3.81l-18.69,16.81,19.15,18.19H131l-18.13-17v17H110v-35h2.9Z"/><path class="cls-2" d="M146.38,158.76a10.12,10.12,0,0,0,7.12-2.5v2.79a11.3,11.3,0,0,1-7.35,2.22c-7.07,0-11.8-5-11.8-12.94s4.22-13.4,10.94-13.4,10,5,10,12.38v1H137.14C137.14,155.17,141.13,158.76,146.38,158.76ZM137.26,146h15.33c-.17-4.44-2.28-8.55-7.3-8.55C141.13,137.44,137.94,140.52,137.26,146Z"/><path class="cls-2" d="M159.42,135.45h2.85v4.05a9.87,9.87,0,0,1,8.1-4.57c5.75,0,8.78,3.71,8.78,9.07v16.76h-2.8V144.4c0-3.94-2-6.84-6.5-6.84a8.48,8.48,0,0,0-7.58,5.47v17.73h-2.85Z"/><path class="cls-2" d="M202.18,157a9.78,9.78,0,0,1-7.86,4.27c-7.47,0-11.06-6.15-11.06-13.17s3.59-13.17,11.06-13.17a9.76,9.76,0,0,1,7.86,4.28V123.7H205v37.06h-2.8Zm0-14.43a8.65,8.65,0,0,0-7.63-5c-5.31,0-8.44,4.44-8.44,10.54s3.13,10.55,8.44,10.55a8.66,8.66,0,0,0,7.63-5Z"/><path class="cls-2" d="M220.51,161.27c-6.67,0-11.18-5.36-11.18-13.17s4.51-13.17,11.18-13.17,11.23,5.36,11.23,13.17S227.23,161.27,220.51,161.27Zm0-23.83c-5,0-8.33,4.28-8.33,10.66s3.31,10.66,8.33,10.66,8.38-4.27,8.38-10.66S225.58,137.44,220.51,137.44Z"/><path class="cls-2" d="M243.88,147v-21.2h2.9v20.8c0,8.21,4.45,12,10.49,12s10.55-3.82,10.55-12v-20.8h2.91V147c0,9.64-5.93,14.31-13.46,14.31S243.88,156.6,243.88,147Z"/><path class="cls-2" d="M280,160.76h-2.91v-35H280Z"/><path class="cls-2" d="M288,137.5a3.74,3.74,0,1,1,3.69-3.74A3.67,3.67,0,0,1,288,137.5Zm0-6.84a3.1,3.1,0,1,0,3,3.1A3,3,0,0,0,288,130.66Zm-.43,3.8v1.24h-1.1v-3.92h1.83a1.31,1.31,0,0,1,1.45,1.37,1.14,1.14,0,0,1-.76,1.18l.9,1.37h-1.22l-.76-1.24Zm.61-1.76h-.61v.88h.61c.33,0,.51-.16.51-.43A.45.45,0,0,0,288.17,132.7Z"/><path class="cls-2" d="M319.88,126.33a5.3,5.3,0,0,0-2.56-.63c-2.68,0-4.62,1.94-4.62,5.47v4.28h5.93v2.45H312.7v22.86h-2.79V137.9H305.8v-2.45h4.11v-4.56c0-4.62,3-7.7,7.12-7.7a7.47,7.47,0,0,1,2.85.51Z"/><path class="cls-2" d="M330.15,161.27c-6.67,0-11.17-5.36-11.17-13.17s4.5-13.17,11.17-13.17,11.23,5.36,11.23,13.17S336.88,161.27,330.15,161.27Zm0-23.83c-5,0-8.32,4.28-8.32,10.66s3.3,10.66,8.32,10.66,8.38-4.27,8.38-10.66S335.22,137.44,330.15,137.44Z"/><path class="cls-2" d="M357.57,138.07a6,6,0,0,0-2.34-.46c-3.08,0-5.53,2.23-6.73,5.48v17.67h-2.85V135.45h2.85v4.05a7.66,7.66,0,0,1,6.84-4.57,7.32,7.32,0,0,1,2.23.35Z"/><path class="cls-2" d="M386.12,125.76l13.86,35h-2.91l-4.56-11.52H377l-4.5,11.52h-2.91l13.85-35ZM378,146.62h13.45l-6.72-17.1Z"/><path class="cls-2" d="M403.13,135.45H406v4.05a9.84,9.84,0,0,1,8.09-4.57c5.76,0,8.78,3.71,8.78,9.07v16.76h-2.79V144.4c0-3.94-2-6.84-6.5-6.84A8.46,8.46,0,0,0,406,143v17.73h-2.86Z"/><path class="cls-2" d="M445.67,156.54a9.73,9.73,0,0,1-7.81,4.16c-7.35,0-10.89-6.1-10.89-12.88s3.54-12.89,10.89-12.89a9.64,9.64,0,0,1,7.81,4.22v-3.7h2.79v23.48c0,8.38-5.58,12-11.63,12a13.38,13.38,0,0,1-7.92-2.39v-3.25a11.3,11.3,0,0,0,7.92,3.08c5,0,8.84-3,8.84-9.29Zm0-14.08a8.57,8.57,0,0,0-7.53-4.9c-5.24,0-8.32,4.27-8.32,10.26s3.08,10.32,8.32,10.32a8.69,8.69,0,0,0,7.53-4.91Z"/><path class="cls-2" d="M473.69,160.76H470.9v-4a9.75,9.75,0,0,1-8,4.56c-5.76,0-8.78-3.7-8.78-9.06V135.45h2.79v16.36c0,3.93,2,6.84,6.5,6.84a8.41,8.41,0,0,0,7.53-5.47V135.45h2.79Z"/><path class="cls-2" d="M482.31,160.76h-2.85V123.7h2.85Z"/><path class="cls-2" d="M502.39,143.2c0-3.42-2.39-5.64-6.27-5.64a12.89,12.89,0,0,0-7.35,2.22V137a14.29,14.29,0,0,1,7.64-2.11c5.36,0,8.72,3.08,8.72,8.1v17.73h-2.74v-2.4a9.74,9.74,0,0,1-7,2.8c-5.13,0-9.35-3-9.35-7.81,0-4.68,4.22-7.75,9.47-7.75a10.05,10.05,0,0,1,6.89,2.67Zm0,8.55c-.79-2.16-3.64-3.76-6.72-3.76-3.59,0-6.9,1.77-6.9,5.36s3.31,5.41,6.9,5.41c3.08,0,5.93-1.59,6.72-3.76Z"/><path class="cls-2" d="M522.66,138.07a5.93,5.93,0,0,0-2.33-.46c-3.08,0-5.53,2.23-6.73,5.48v17.67h-2.85V135.45h2.85v4.05a7.65,7.65,0,0,1,6.84-4.57,7.25,7.25,0,0,1,2.22.35Z"/></g></svg>