<svg width="55" height="60" viewBox="0 0 55 60" fill="none" xmlns="http://www.w3.org/2000/svg">
<path fill-rule="evenodd" clip-rule="evenodd" d="M54.5701 6.91992C54.5295 6.54829 54.3638 6.20153 54.1003 5.93628C53.8369 5.67103 53.4912 5.50307 53.1199 5.45996L2.71997 0C0.719971 0 0 0.71998 0 2.72998V57.25C0 59.25 0.719971 59.97 2.71997 59.97L53.1199 54.52C53.4912 54.4769 53.8369 54.3089 54.1003 54.0437C54.3638 53.7785 54.5295 53.4317 54.5701 53.0601V6.91992ZM29.33 21.09L25.6998 24.5499C24.6671 23.3451 23.3908 22.3728 21.955 21.6972C20.5191 21.0215 18.9564 20.6575 17.3698 20.6298C16.1492 20.6053 14.9365 20.8295 13.8053 21.2885C12.6741 21.7475 11.6483 22.4319 10.7899 23.2999C9.92066 24.1595 9.23555 25.187 8.7765 26.32C8.31745 27.453 8.09392 28.6676 8.11976 29.8898C8.09188 31.5776 8.49838 33.2443 9.29994 34.7299C10.0813 36.1277 11.2427 37.2755 12.6498 38.0399C14.124 38.8554 15.7853 39.2724 17.4699 39.2499C18.8874 39.2675 20.2924 38.981 21.59 38.4098C23.127 37.6314 24.5174 36.5929 25.6998 35.34L29.2199 39.0099C27.5813 40.7067 25.6461 42.0896 23.5099 43.09C21.5645 43.8799 19.4791 44.2676 17.3798 44.2299C15.4655 44.3041 13.5562 43.9876 11.7682 43.2999C9.9802 42.6122 8.35105 41.5677 6.97987 40.2299C5.64288 38.8746 4.59805 37.2596 3.91005 35.4845C3.22204 33.7094 2.90548 31.8121 2.97987 29.9098C2.93583 27.371 3.57487 24.8671 4.82997 22.6598C6.09708 20.5167 7.92193 18.7577 10.11 17.57C12.3669 16.2942 14.9174 15.6288 17.5099 15.6398C19.7512 15.641 21.9656 16.1291 23.9999 17.07C26.0462 18.0091 27.8646 19.3806 29.33 21.09ZM51.5903 16.3H30.5903L30.6201 21.78H38.4102V43.55H43.6702V21.78H51.5903V16.3Z" fill="white"/>
</svg>
