<svg width="136" height="42" viewBox="0 0 136 42" fill="none" xmlns="http://www.w3.org/2000/svg">
<path fill-rule="evenodd" clip-rule="evenodd" d="M37.4547 3.7625C37.9835 3.85 38.5122 4.2875 38.5122 4.8125V37.1C38.5122 37.625 37.9835 38.0625 37.4547 38.15L1.93883 42C0.528772 42 0 41.475 0 40.075V1.925C0 0.525 0.528772 0 1.93883 0L37.4547 3.7625ZM17.7014 17.2375L20.2571 14.7875C19.1995 13.5625 17.8776 12.6 16.5557 11.9875C15.0575 11.375 13.5593 11.025 11.973 11.025C10.1223 11.025 8.35971 11.4625 6.7734 12.3375C5.18708 13.3 3.95328 14.4375 3.07199 15.925C2.19071 17.4125 1.75006 19.075 1.75006 21C1.75006 23.975 2.63135 26.425 4.57018 28.2625C6.42088 30.1 8.88849 31.0625 11.8849 31.0625C13.4712 31.0625 14.9694 30.8 16.2032 30.275C17.5251 29.75 18.847 28.7875 20.2571 27.3875L17.7895 24.85C16.7319 25.9 15.7625 26.6875 14.8812 27.0375C13.9999 27.475 13.0305 27.65 11.973 27.65C10.6511 27.65 9.59352 27.3 8.53597 26.775C7.47843 26.1625 6.68527 25.375 6.1565 24.4125C5.5396 23.3625 5.27521 22.3125 5.27521 21C5.27521 19.1625 5.89211 17.5875 7.12591 16.3625C8.44784 15.1375 9.94603 14.525 11.7967 14.525C13.9999 14.525 15.9388 15.4 17.7014 17.2375ZM35.944 11.375H21.2265V15.225H26.6905V30.45H30.3919V15.225H35.944V11.375Z" fill="white"/>
<path d="M53.3178 15.75V24.85C53.3178 26.425 53.1416 27.65 52.8772 28.35C52.5247 29.4 51.8197 30.1875 50.8502 30.8C49.8808 31.325 48.7351 31.675 47.4132 31.675C46.4438 31.675 45.5625 31.5 44.7694 31.2375C43.9762 30.975 43.3593 30.625 42.8305 30.1C42.3018 29.6625 41.8611 28.9625 41.5086 28.0875H43.0949C43.5356 28.875 44.0643 29.4 44.7694 29.75C45.4744 30.1 46.2676 30.275 47.3251 30.275C48.2945 30.275 49.1758 30.1 49.8808 29.75C50.5859 29.4 51.0265 28.875 51.379 28.35C51.6434 27.825 51.8197 26.8625 51.8197 25.6375V25.025C51.2909 25.725 50.5859 26.25 49.7927 26.6C48.9995 26.95 48.1183 27.125 47.237 27.125C46.1794 27.125 45.21 26.8625 44.2406 26.3375C43.2712 25.8125 42.5661 25.1125 42.1255 24.2375C41.5967 23.3625 41.3323 22.4 41.3323 21.35C41.3323 20.3 41.5967 19.3375 42.1255 18.375C42.6543 17.5 43.3593 16.7125 44.3287 16.1875C45.2981 15.6625 46.2675 15.4 47.237 15.4C48.1183 15.4 48.9114 15.575 49.6164 15.925C50.3215 16.275 51.1146 16.8875 51.7315 17.675V15.75H53.3178ZM47.5014 16.8875C46.7082 16.8875 45.915 17.0625 45.21 17.5C44.505 17.9375 43.8881 18.4625 43.5356 19.1625C43.0949 19.8625 42.9187 20.65 42.9187 21.4375C42.9187 22.6625 43.3593 23.7125 44.1525 24.5C45.0337 25.2875 46.0913 25.725 47.4132 25.725C48.7351 25.725 49.8808 25.2875 50.674 24.5C51.4671 23.7125 51.9078 22.6625 51.9078 21.35C51.9078 20.475 51.7315 19.6875 51.379 19.075C51.0265 18.375 50.4977 17.85 49.7927 17.5C48.9995 17.0625 48.2945 16.8875 47.5014 16.8875Z" fill="white"/>
<path d="M61.2495 15.4875C63.012 15.4875 64.5102 16.1 65.6559 17.4125C66.7134 18.55 67.2422 19.95 67.2422 21.525C67.2422 23.1 66.7134 24.5 65.5678 25.725C64.4221 26.95 63.012 27.475 61.2495 27.475C59.4869 27.475 58.0768 26.8625 56.9311 25.725C55.7855 24.5 55.2567 23.1875 55.2567 21.525C55.2567 19.95 55.7855 18.55 56.843 17.4125C57.9887 16.1 59.4869 15.4875 61.2495 15.4875ZM61.2495 16.8875C60.0156 16.8875 58.9581 17.325 58.0768 18.2C57.1955 19.075 56.7549 20.2125 56.7549 21.4375C56.7549 22.225 56.9311 23.0125 57.3718 23.7125C57.8124 24.4125 58.3412 24.9375 58.9581 25.375C59.6631 25.725 60.3682 25.9875 61.2495 25.9875C62.0426 25.9875 62.8358 25.8125 63.5408 25.375C64.2458 25.025 64.7746 24.4125 65.1271 23.7125C65.5678 23.0125 65.744 22.225 65.744 21.4375C65.744 20.125 65.3034 19.075 64.4221 18.2C63.5408 17.4125 62.4832 16.8875 61.2495 16.8875Z" fill="white"/>
<path d="M74.7331 15.4875C76.4957 15.4875 77.9939 16.1 79.1395 17.4125C80.1971 18.55 80.7258 19.95 80.7258 21.525C80.7258 23.1 80.1971 24.5 79.0514 25.725C77.9057 26.95 76.4957 27.475 74.7331 27.475C72.9705 27.475 71.5605 26.8625 70.4148 25.725C69.2691 24.5 68.7403 23.1 68.7403 21.525C68.7403 19.95 69.2691 18.55 70.3267 17.4125C71.4723 16.1 72.9705 15.4875 74.7331 15.4875ZM74.7331 16.8875C73.4993 16.8875 72.4417 17.325 71.5605 18.2C70.6792 19.075 70.2385 20.2125 70.2385 21.4375C70.2385 22.225 70.4148 23.0125 70.8554 23.7125C71.2961 24.4125 71.8248 24.9375 72.4417 25.375C73.1468 25.725 73.8518 25.9875 74.7331 25.9875C75.5262 25.9875 76.3194 25.8125 77.0244 25.375C77.7295 25.025 78.2582 24.4125 78.6107 23.7125C79.0514 23.0125 79.2276 22.225 79.2276 21.4375C79.2276 20.125 78.787 19.075 77.9057 18.2C77.0244 17.4125 75.9669 16.8875 74.7331 16.8875Z" fill="white"/>
<path d="M94.2096 11.375V27.125H92.7114V25.2C92.0945 25.9875 91.3895 26.5125 90.5963 26.8625C89.8032 27.2125 89.01 27.3875 88.0406 27.3875C86.4543 27.3875 85.0442 26.775 83.8985 25.6375C82.7529 24.5 82.136 23.0125 82.136 21.35C82.136 19.6875 82.7529 18.2875 83.8985 17.15C85.0442 16.0125 86.4543 15.4 88.1287 15.4C89.0981 15.4 89.8913 15.575 90.6844 16.0125C91.4776 16.45 92.0945 16.975 92.7114 17.7625V11.375H94.2096ZM88.305 16.8875C87.5118 16.8875 86.7186 17.0625 86.0136 17.5C85.3086 17.9375 84.7798 18.4625 84.3392 19.1625C83.8985 19.8625 83.7223 20.65 83.7223 21.4375C83.7223 22.225 83.8985 23.0125 84.3392 23.7125C84.7798 24.4125 85.3086 25.025 86.0136 25.4625C86.7186 25.9 87.4237 26.075 88.305 26.075C89.0981 26.075 89.8913 25.9 90.5963 25.4625C91.3013 25.025 91.9182 24.5 92.2708 23.8C92.6233 23.1 92.8877 22.3125 92.8877 21.4375C92.8877 20.125 92.447 18.9875 91.5657 18.1125C90.6844 17.325 89.6269 16.8875 88.305 16.8875Z" fill="white"/>
<path d="M98.3516 15.75H99.8498V28.875C99.8498 29.8375 99.6735 30.5375 99.321 30.975C98.9685 31.4125 98.5278 31.5875 97.9109 31.5875C97.3822 31.5875 96.8534 31.5 96.2365 31.2375V29.925C96.589 30.1 96.9415 30.1875 97.2941 30.1875C97.7347 30.1875 97.9991 30.0125 98.1753 29.6625C98.2635 29.4875 98.3516 29.05 98.3516 28.35V15.75ZM99.0566 11.1125C99.4091 11.1125 99.6735 11.2 99.9379 11.4625C100.202 11.725 100.29 11.9875 100.29 12.3375C100.29 12.6875 100.202 12.95 99.9379 13.2125C99.6735 13.475 99.4091 13.5625 99.0566 13.5625C98.7041 13.5625 98.4397 13.475 98.1753 13.2125C97.9109 12.95 97.8228 12.6875 97.8228 12.3375C97.8228 11.9875 97.9109 11.725 98.1753 11.4625C98.4397 11.2 98.7041 11.1125 99.0566 11.1125Z" fill="white"/>
<path d="M107.693 15.4875C109.456 15.4875 110.954 16.1 112.1 17.4125C113.157 18.55 113.686 19.95 113.686 21.525C113.686 23.1 113.157 24.5 112.012 25.725C110.866 26.95 109.456 27.475 107.693 27.475C105.931 27.475 104.521 26.8625 103.375 25.725C102.229 24.5 101.7 23.1875 101.7 21.525C101.7 19.95 102.229 18.55 103.287 17.4125C104.432 16.1 105.931 15.4875 107.693 15.4875ZM107.693 16.8875C106.459 16.8875 105.402 17.325 104.521 18.2C103.639 19.075 103.199 20.2125 103.199 21.4375C103.199 22.225 103.375 23.0125 103.816 23.7125C104.256 24.4125 104.785 24.9375 105.402 25.375C106.107 25.725 106.812 25.9875 107.693 25.9875C108.486 25.9875 109.28 25.8125 109.985 25.375C110.69 25.025 111.218 24.4125 111.571 23.7125C112.012 23.0125 112.188 22.225 112.188 21.4375C112.188 20.125 111.747 19.075 110.866 18.2C109.985 17.4125 108.927 16.8875 107.693 16.8875Z" fill="white"/>
<path d="M115.889 27.125V11.375H117.387V17.7625C118.004 16.975 118.709 16.45 119.502 16.1C120.296 15.75 121.089 15.575 122.058 15.575C123.645 15.575 125.055 16.1875 126.2 17.325C127.346 18.4625 127.963 19.95 127.963 21.6125C127.963 23.275 127.346 24.675 126.2 25.8125C125.055 26.95 123.645 27.5625 122.058 27.5625C121.089 27.5625 120.296 27.3875 119.502 26.95C118.709 26.5125 118.092 25.9875 117.476 25.2V27.125H115.889ZM121.706 26.075C122.499 26.075 123.292 25.9 123.997 25.4625C124.702 25.025 125.231 24.5 125.672 23.8C126.112 23.1 126.288 22.3125 126.288 21.525C126.288 20.7375 126.112 19.95 125.672 19.25C125.231 18.55 124.702 17.9375 123.997 17.5C123.292 17.0625 122.587 16.8875 121.794 16.8875C121.001 16.8875 120.208 17.0625 119.502 17.5C118.797 17.9375 118.181 18.4625 117.828 19.1625C117.476 19.8625 117.211 20.65 117.211 21.525C117.211 22.8375 117.652 23.975 118.533 24.85C119.414 25.6375 120.472 26.075 121.706 26.075Z" fill="white"/>
<path d="M135.63 17.0625L134.661 18.025C133.867 17.2375 133.074 16.8875 132.369 16.8875C131.929 16.8875 131.488 17.0625 131.135 17.325C130.783 17.675 130.607 18.025 130.607 18.4625C130.607 18.8125 130.783 19.1625 131.047 19.5125C131.312 19.8625 131.929 20.2125 132.81 20.7375C133.867 21.2625 134.661 21.875 135.013 22.4C135.366 22.925 135.63 23.5375 135.63 24.15C135.63 25.1125 135.278 25.9 134.661 26.5125C133.956 27.125 133.162 27.475 132.193 27.475C131.488 27.475 130.871 27.3 130.254 27.0375C129.637 26.775 129.197 26.3375 128.756 25.8125L129.725 24.7625C130.519 25.6375 131.312 25.9875 132.105 25.9875C132.722 25.9875 133.162 25.8125 133.603 25.4625C134.044 25.1125 134.22 24.675 134.22 24.15C134.22 23.7125 134.044 23.3625 133.779 23.0125C133.515 22.6625 132.898 22.3125 131.929 21.7875C130.871 21.2625 130.166 20.7375 129.814 20.2125C129.461 19.6875 129.285 19.075 129.285 18.4625C129.285 17.5875 129.549 16.8875 130.166 16.275C130.783 15.6625 131.488 15.4 132.457 15.4C133.427 15.4875 134.484 16.0125 135.63 17.0625Z" fill="white"/>
</svg>
