<svg xmlns="http://www.w3.org/2000/svg" width="40" height="40" viewBox="0 0 40 40"><defs><linearGradient id="a" x1="13.6%" x2="38.195%" y1="32.038%" y2="61.988%"><stop offset=".263%" stop-color="#FFF" stop-opacity=".3"/><stop offset="100%" stop-color="#FFF"/></linearGradient></defs><g fill="none" fill-rule="evenodd" transform="translate(4 1)"><path fill="url(#a)" d="M28.9669071,29.3701707 C28.1419433,28.5329235 27.1428936,27.8938128 26.0429154,27.4995535 C24.4871718,26.9450132 22.7983645,26.9053054 21.2189758,27.3861486 C20.4134518,27.6297114 19.5773795,27.7531843 18.7368638,27.7528621 C17.6024493,27.7539091 16.4789845,27.5277437 15.4308988,27.087172 C14.3828131,26.646681 13.4306571,26.0005629 12.6290211,25.1857873 C11.0827991,23.6185766 10.1807107,21.5138201 10.1053317,19.2971086 C10.1053317,19.1942548 10.1053317,19.0886626 10.1053317,18.9858089 C10.1039828,17.8342819 10.3267079,16.6937893 10.760653,15.6298129 C11.1946775,14.5658364 11.8313525,13.5993979 12.6341786,12.7858304 C13.6837719,11.7200015 14.986242,10.9467862 16.4159042,10.5406065 L16.4366929,10.5406065 C11.0851795,11.7278142 1.88179842,16.6324154 1.88179842,27.2489835 C2.7996768,29.1719538 4.02970365,30.9244945 5.52054189,32.4332309 C7.25719507,34.2007527 9.32091383,35.6025276 11.5930754,36.5578512 C13.865237,37.5132553 16.3009314,38.0032805 18.7602709,38 C21.2196899,38.0037638 23.6555429,37.5138191 25.9277045,36.5584955 C28.1998661,35.6030914 30.2635849,34.2011554 32,32.4332309 L28.9669071,29.3701707 Z"/><path fill="#FFF" d="M31.9661985,5.54579684 L28.9669071,8.60088321 C27.9718247,9.61033187 26.7263254,10.3276501 25.3623619,10.6769663 C23.9983191,11.0262018 22.5666732,10.9944678 21.2189758,10.5849053 C20.4094845,10.3448059 19.5698416,10.2257629 18.7264694,10.2314009 C17.9359419,10.2302733 17.148985,10.3385235 16.3872602,10.5532518 L16.4080489,10.5532518 C11.0565355,11.7404594 1.8531544,16.6450607 1.8531544,27.2615482 C0.629395908,24.687144 -0.00418455734,21.8648277 0,19.0063474 C-0.00362913302,16.5098285 0.478955262,14.037231 1.42016146,11.7307943 C2.36128831,9.42427694 3.74246992,7.32950786 5.48412192,5.56689918 C7.22085445,3.79929681 9.28457321,2.39752193 11.5566554,1.44219833 C13.828817,0.486874735 16.2645114,-0.00323099652 18.723851,0 C21.1822384,-0.00677489992 23.6177741,0.479625842 25.8903324,1.43132499 C28.1628907,2.38302414 30.2277997,3.78133566 31.9661985,5.54579684 Z"/></g></svg>