<svg xmlns="http://www.w3.org/2000/svg" width="40" height="40" viewBox="0 0 40 40"><g fill="none" fill-rule="evenodd"><path fill="#AFB5C3" fill-rule="nonzero" d="M31.9843084,22.0221052 C32.0092702,21.521649 31.9967458,21.0212797 32.0468433,20.5333479 C32.0968539,20.0454161 31.9342109,19.8952966 31.4336704,19.9078211 C28.7055295,19.93287 25.9773886,19.9203455 23.2492477,19.9203455 C23.0739933,19.9203455 22.8737772,19.8452858 22.7236585,20.0203672 C21.860172,20.7961005 21.0717447,21.6468065 20.2958419,22.510037 C20.2582687,22.5475234 20.2207826,22.5975342 20.1832094,22.6351076 C20.170685,22.647632 20.1456363,22.6601565 20.1331119,22.6726809 C20.1206745,22.6851184 20.1081501,22.7101673 20.1206745,22.7101673 C20.2333069,22.8602868 20.3834256,22.7852271 20.5211068,22.7852271 C23.1741014,22.7852271 25.827183,22.7852271 28.4802646,22.7852271 C28.5553239,23.1355638 28.492789,23.4858136 28.4176427,23.8361504 C27.4665724,28.3023353 22.4858692,31.27985 17.9431715,30.0788941 C12.9248952,28.7527808 9.55853261,23.4983381 10.4845541,18.1938845 C11.2228838,14.0028027 13.6882736,11.16297 17.8180147,10.036987 C21.8976582,8.92352835 25.3266426,10.2372043 28.1047941,13.3523139 C28.2549997,13.5149578 28.3926809,13.7025637 28.4677402,13.7901479 C29.0809131,13.2147189 29.6565998,12.6392029 30.282297,12.1262222 C30.6952538,11.7759724 30.6076701,11.5382687 30.282297,11.1880189 C27.8295186,8.51072588 24.7760047,6.99694575 21.1718528,6.79678065 C13.0124789,6.34640482 6.53002396,13.0770369 7.19328566,21.2339345 C7.78146196,28.4274929 14.4891383,34.6077014 22.510918,33.0564088 C28.655432,31.855366 31.7590435,26.6885075 31.9843084,22.0221052 Z"/><path fill="#AFB5C3" fill-rule="nonzero" d="M19.3197229 36.7472083C12.5869978 36.2843255 7.71888353 33.0065719 4.72794804 26.951521 3.86445278 25.2000111 3.47651004 23.2984687 3.22622245 21.3717904 3.25125382 21.334304 3.25125382 21.3092551 3.21370676 21.2842062 3.21370676 20.4585491 3.21370676 19.6453294 3.22622245 18.8196723 3.3513619 18.5319578 3.32633923 18.2191944 3.32633923 17.906431 3.75182901 14.9414408 4.79051776 12.2265918 6.65515472 9.84964203 9.9088674 5.70863187 14.1762897 3.49426518 19.4448797 3.25657021 19.8828852 3.2315474 20.0204794 3.11894909 19.9955176 2.69359607 19.9579445 1.98049375 19.9454201 1.27990719 19.9955176.566803139 20.0330038.0663822044 19.8202633-.0211914635 19.3822578.00382952232 18.4186631.053871668 17.4675929.128935234 16.5165226.304081874 5.21600755 2.39333972-1.92970034 13.0772978.460545789 24.3367806 2.33770452 33.1817403 10.5596134 39.9374647 19.519939 40 19.9203713 40 20.0204794 39.8748425 20.007955 39.4995438 19.9829932 38.8114816 19.9579445 38.1234195 20.007955 37.4353574 20.0455282 36.8723659 19.845312 36.7722573 19.3197229 36.7472083ZM36.9649246 25.412231C36.101438 25.4247554 35.3881571 26.125342 35.3756327 27.0010969 35.3631083 27.9018138 36.0764763 28.6399737 36.977449 28.6399737 37.8659843 28.6399737 38.6168384 27.9018138 38.6168384 27.0261458 38.604314 26.1503909 37.8409356 25.412231 36.9649246 25.412231ZM27.0535288 35.3840435C26.152556 35.371519 25.4017019 36.0971545 25.4142263 36.9978713 25.4142263 37.8611018 26.1400316 38.5867373 27.0160426 38.5992618 27.9170153 38.6117862 28.6429076 37.8861507 28.6429076 36.9853469 28.6429076 36.0971545 27.9420641 35.3965679 27.0535288 35.3840435ZM37.0024978 14.5537916C37.8785087 14.5412671 38.5918766 13.8282431 38.604314 12.9650126 38.6168384 12.0767332 37.8659843 11.3385733 36.9649246 11.3510977 36.0889137 11.3636222 35.3756327 12.0642088 35.3756327 12.9399637 35.3631083 13.8406806 36.101438 14.566316 37.0024978 14.5537916ZM33.498541 5.5086755C33.1606436 5.34604027 32.8352706 5.34604027 32.4973732 5.5086755 31.6838972 5.82143891 31.2584161 6.53454123 31.4086217 7.29768047 31.5712647 8.07333547 32.2345351 8.62380255 33.010438 8.61128679 33.7863408 8.61128679 34.4496112 8.04831266 34.5872924 7.27265766 34.7374111 6.49701136 34.31193 5.80893186 33.498541 5.5086755ZM39.9809524 19.7707479C39.8683199 18.9700527 39.1925251 18.3820123 38.3791361 18.3820123 37.5781845 18.3820123 36.8899523 18.9700527 36.7647954 19.7582234 36.6396386 20.5588317 37.140179 21.2719427 37.9911412 21.5096464 38.2414549 21.6348039 38.4917685 21.6348039 38.7420822 21.5096464 39.6055688 21.2844671 40.1061092 20.5838806 39.9809524 19.7707479ZM27.1787726 4.60775859C28.004686 4.50767603 28.6304702 3.83210359 28.6304702 3.00641166 28.6304702 2.18071974 28.0172104 1.49264024 27.191297 1.39255769 26.3652966 1.29246644 25.6520156 1.85544057 25.4767612 2.74369388 25.3766532 2.91883617 25.3766532 3.0814714 25.4767612 3.25662239 25.6394912 4.144867 26.3527722 4.70784114 27.1787726 4.60775859ZM32.7350755 31.4049205C32.0092702 31.5175536 31.4210591 32.1556049 31.3835729 32.9062023 31.3334754 33.6943731 31.7965296 34.294851 32.622443 34.5325546 32.8727567 34.6451877 33.1230704 34.6451877 33.3732971 34.5325546 33.9489838 34.432533 34.3244544 34.0947207 34.4870974 33.5317291 34.6498274 33.2064413 34.6747892 32.8687159 34.4996218 32.5309036 34.2118219 31.7052465 33.5485515 31.2923744 32.7350755 31.4049205Z"/></g></svg>