<svg xmlns="http://www.w3.org/2000/svg" width="40" height="40" viewBox="0 0 40 40"><g fill="none" fill-rule="evenodd"><path fill="#AFB5C3" fill-rule="nonzero" d="M34.8250235,9.40481459 C33.9464907,9.40481459 33.4379398,9.81290773 33.299216,10.4930604 C33.5303966,10.6744334 33.8077669,10.7651199 34.1314817,10.7651199 C34.7787564,10.7197805 35.4261086,10.2663403 35.2411177,9.40481459 C35.0562041,9.40481459 34.9637473,9.40481459 34.8250235,9.40481459 Z"/><path fill="#AFB5C3" fill-rule="nonzero" d="M39.2552116,7 L39.2089446,7 C38.6078595,7 38.5154027,7.36274835 37.1745087,7.68015268 C35.8336921,7.99755931 34.5390652,7.68015345 33.0594473,8.26961884 C28.7132053,10.0380173 27.7884054,16.2047002 23.8582576,18.3812532 C20.8990992,20.0136104 18.0786648,20.7391025 15.3969541,21.5552428 C13.6398886,22.0993619 11.8829004,22.7342058 10.3108258,24.0491411 C9.06246595,25.0920551 8.73882856,25.9082721 7.4441552,27.2232073 C6.14952054,28.5381426 2.0806643,26.1802933 0.13871075,27.9033754 C-0.0462369165,28.0394243 -0.0462369165,28.3114455 0.13871075,28.4928185 C0.554843598,28.8555646 1.38710697,29.7171056 2.12690042,29.9892035 C1.89571981,30.4425977 0.508607474,31.757533 0.786029631,32.437701 C1.06345411,33.117869 4.48498914,32.6644748 7.67534356,30.8053438 C9.15492272,29.9438027 10.3108258,28.6741915 12.6227094,28.3567696 C15.5818677,27.9486994 19.0033872,28.5835434 22.4711739,29.0823384 C21.9625456,30.5786466 20.9453663,31.5761599 20.1131006,32.7551229 C19.88192,33.0272208 20.6217289,33.0725449 21.5001843,32.8911719 C23.0722589,32.5284258 24.1819723,32.2110039 25.3841425,31.5308359 C26.8174933,30.7146956 27.0486739,28.5835434 28.8518517,28.1300725 C29.7303845,29.4450844 31.8572771,29.8531545 33.5218085,29.1729865 C33.6142653,29.1276624 33.7067995,29.0822617 33.7992562,29.0369376 C33.9841698,28.8555646 33.891713,28.6741915 33.7529892,28.5381426 C33.7067995,28.4928185 33.6605324,28.4474944 33.5680756,28.3567696 C32.6433531,27.3592563 32.4120952,25.046731 32.8282667,23.9584929 C33.2906279,22.6888817 33.7529892,20.6483777 34.2153504,18.9253723 C34.7239787,17.111642 34.9089696,14.7991168 35.5099773,13.8922133 C36.4347772,12.4865685 37.4519564,12.0331283 38.3304892,11.2169497 C39.2089446,10.4461105 40.0412103,9.67527129 39.9950206,7.8615257 C40.0412103,7.31740509 39.7638399,7 39.2552116,7 Z M39.3476684,8.85908501 C39.1627549,10.0833568 38.3304892,10.7635094 37.4057667,11.4436698 C36.5734236,12.0331283 35.6487012,12.577255 35.0476161,13.4841278 C34.446531,14.390993 34.0766265,17.5650362 33.1057144,20.6937784 C32.3196384,23.2783249 31.1637353,25.8175472 29.1755665,27.0418343 C29.0368427,27.1325592 28.8981188,27.0418343 28.8518517,26.9057854 C28.7132053,26.1802933 28.759395,24.865358 28.5282144,25.2734281 C28.2507667,26.0896451 27.9271293,26.8604613 27.5572248,27.5406293 C26.4013217,29.7171056 24.6905233,31.3947869 21.9625456,32.0296308 C21.7313649,32.0749549 21.5926411,31.8482578 21.6851752,31.6668848 C22.9335351,29.9438027 24.0432485,28.1300725 24.1819723,25.3187522 C24.1819723,25.0920551 23.9045246,24.9560062 23.7196111,25.1373792 C23.118526,25.8628713 22.9798022,27.5406293 22.1012694,28.0847484 C21.4077276,28.1753965 20.7141857,28.1753965 20.0206438,28.1300725 C17.1539423,27.9486994 14.2409737,27.1325592 11.559263,27.9486994 C9.7560078,28.5381426 7.81402872,30.1251757 6.28822891,30.8053438 C4.48498914,31.5761599 3.60648732,32.3017287 1.34087085,32.256328 C1.10969023,31.938906 2.31185265,30.6239707 2.68174938,30.0345276 C2.82045775,29.8531545 2.54303327,29.6717815 2.26561653,29.5357326 C1.66453145,29.2637114 1.01721025,28.4928185 0.369896009,28.2207973 C0.462369803,28.0847484 0.73979196,27.9033754 0.924738002,27.8126505 C2.4043249,26.9511861 6.38070889,28.7649164 7.4441552,27.7673264 C8.09147641,27.1325592 8.55383764,26.5884401 9.01619888,25.9535962 C9.43237041,25.3187522 10.1259123,24.683985 10.773187,24.1398659 C11.0043677,23.9584929 11.3742721,23.686395 11.6517198,23.505022 C12.8076229,22.7342058 13.454975,22.6434809 14.9807826,22.0993619 C16.9227617,21.4192705 19.2808349,20.7844266 21.3152708,20.0136104 C22.6098977,19.5148154 23.9507917,18.9253723 25.1066948,18.1091553 C25.3841425,17.9277823 25.6153231,17.7010852 25.8465037,17.4743881 C29.0830324,14.390993 29.6841174,8.94977152 34.7239787,8.45099187 C35.3250638,8.40565245 35.7412353,8.36030536 36.2035965,8.36030536 C36.7121475,8.36030536 37.2207758,8.22427175 37.7294041,7.99755931 C38.0993086,7.90687279 39.024031,7.36274835 39.3476684,7.63480942 C39.5326593,7.81618628 39.3939355,8.7683985 39.3476684,8.85908501 Z"/></g></svg>