<svg xmlns="http://www.w3.org/2000/svg" width="40" height="40" viewBox="0 0 40 40"><path fill="#AFB5C3" fill-rule="evenodd" d="M28.9757272,0.0134076505 C29.8682542,0.0475842108 30.6922086,0.218466963 31.3101202,0.355173511 C32.3056685,0.594408889 33.2326443,0.901998622 34.0908308,1.34629274 C34.7774234,1.68805911 35.395335,2.09818092 35.9790145,2.57664735 L36.0133549,2.57666896 C36.0820359,2.6450244 36.1506084,2.71336903 36.2536298,2.78171366 C36.5282452,3.02094147 36.8028605,3.26018009 37.0775842,3.56777415 C37.5237935,4.01206826 37.9357707,4.45636238 38.3134075,5.13989512 L38.3477479,5.20823975 C38.5880228,5.68671699 38.6910442,6.19936655 38.7597251,6.67783298 L38.7597251,6.7120161 C38.7940656,7.22466566 38.828406,7.77148753 38.828406,8.35249252 C38.828406,8.76260351 38.7940656,9.138553 38.7597251,9.51449169 C38.7253846,9.65120256 38.7253846,9.82208574 38.7253846,9.95878581 L38.7253846,9.99295812 C38.5880228,11.2916898 38.279067,12.5562383 38.0387921,13.5131063 C37.7985172,14.4700824 37.4894531,15.3929078 37.1461568,16.3156252 L37.1119247,16.3497759 C36.9402224,16.7599085 36.7686284,17.1700411 36.6312666,17.546023 C36.4595643,17.9218968 36.2879703,18.3320294 36.116268,18.7421621 C35.8416526,19.3915657 35.5670373,20.0067106 35.2580815,20.5877048 C34.8117638,21.4762714 34.2968736,22.3990968 33.7475345,23.2876634 L34.0221499,23.2876634 L34.1595117,23.2535127 L34.2432505,23.2470284 C34.6654106,23.2149311 35.1120533,23.1808885 35.4983564,23.1168019 L35.5670373,23.1168019 L35.6957869,23.0964708 L35.8245366,23.0825431 C35.9103336,23.0740054 35.9961305,23.0654677 36.0820359,23.0483924 C36.4253321,22.980091 36.8028605,22.9116815 37.2148377,22.9458322 C38.1761539,22.980091 39,23.7319467 39,24.5863627 L39,24.6205134 C38.9313191,25.0990554 38.7253846,25.5774895 38.3820884,25.9192126 C37.3521996,27.0470503 36.0476954,27.798906 34.3997866,28.2090386 C33.781875,28.3457495 33.2326443,28.4483097 32.6489648,28.4824604 C32.168415,28.5166111 31.6877569,28.5166111 31.2072071,28.5166111 L31.0355048,28.5166111 L31.0225053,28.6063107 C30.9930397,28.8080808 30.9668239,28.9870478 30.9668239,29.1660147 L30.9538244,29.2426377 C30.9243587,29.4150122 30.898143,29.5680419 30.898143,29.7470089 L30.8784676,29.8939461 L30.8648858,30.0380464 C30.8560028,30.1408227 30.8474448,30.23906 30.8295704,30.3280031 C30.811696,30.4170543 30.8030297,30.5152916 30.7941466,30.6179598 C30.7859136,30.7125227 30.7773556,30.81076 30.7608895,30.9089973 L30.7478899,30.9985888 C30.7184243,31.2003589 30.6922086,31.3793259 30.6922086,31.5584009 C30.6578681,31.7292625 30.6235276,31.9342748 30.6235276,32.1052444 L30.6031888,32.2387131 L30.5891872,32.3786662 C30.5806291,32.4725806 30.5720711,32.5666031 30.5548467,32.6519798 L30.5337089,32.7871507 L30.5193146,32.9261581 C30.5110816,33.011751 30.5025236,33.1014506 30.4862741,33.1988233 L30.4862741,33.1646726 L30.4666665,33.2859562 L30.4532336,33.4045921 C30.4441339,33.490185 30.4355759,33.5713469 30.4175932,33.6431066 C30.3832527,34.0190885 30.3145718,34.4292211 30.2458909,34.8393538 C30.1086374,35.6253602 29.8682542,36.3430653 29.4906174,36.9583182 C28.9757272,37.8127341 28.3234751,38.4620297 27.4995207,38.9404637 C26.8129282,39.3505963 25.9547417,39.6581688 24.8905124,39.8632891 C24.4098543,39.9658493 23.9978771,40 23.5173273,40 C23.2769441,40 23.0710097,40 22.7963943,39.9658493 C21.5261223,39.8632891 20.4275525,39.3164456 19.6380469,38.3594696 C18.9514347,37.5516817 18.5201578,36.6591334 18.2926968,35.6561667 L18.2305214,35.3518304 C18.1618405,34.8733964 18.0931595,34.3949624 18.0588191,33.9165284 C18.0244786,33.6431066 18.0244786,33.3696849 18.0244786,33.1305219 C18.0244786,33.0108864 18.0159206,32.8912509 18.0073626,32.7716153 C17.9988045,32.6519798 17.9901382,32.5324524 17.9901382,32.4128169 L17.9901382,32.37845 C17.955906,31.7291544 17.9215656,31.0798588 17.9215656,30.3964126 C17.8872251,30.1229908 17.8872251,29.8495691 17.8872251,29.610298 C17.2693135,29.8837198 16.685634,30.0545813 16.0677224,30.088732 L16.0333819,30.088732 C15.5870643,30.1229908 15.1065145,30.1571415 14.5915159,30.1229908 L14.5571754,30.1229908 C13.8020103,30.0545813 12.9780559,29.9520212 12.1541015,29.4735872 C11.8108053,29.3027256 11.4331685,29.0634546 11.1242127,28.6875807 C11.1111049,28.674504 11.1029801,28.6614273 11.096047,28.6502959 C11.0848891,28.6322479 11.0767644,28.6191712 11.0555318,28.6191712 L11.0212997,28.6533219 C10.2316641,29.371027 9.3734234,29.7128582 8.44651264,29.6787075 C7.79424972,29.6787075 7.21064606,29.4735872 6.62703156,29.0634546 C5.63147237,28.414159 5.01353909,27.4913336 4.49859468,26.5686162 C3.88065056,25.5774895 3.36570615,24.4496518 2.85076174,23.0483924 C2.50746547,22.0914163 2.23282845,21.3054098 2.02685069,20.5877048 L1.84124971,19.9159303 L1.64921395,19.2376714 C1.52048598,18.7848504 1.39174717,18.3320294 1.27158806,17.8877461 L1.27158806,17.8535954 C1.23725843,17.6827339 1.1943491,17.5117642 1.15143978,17.3409027 C1.10853045,17.1700411 1.06561354,16.9991795 1.03128392,16.8283179 C0.996954288,16.6573483 0.954041712,16.4864867 0.91113022,16.3156252 C0.868217644,16.1447636 0.825305069,15.973902 0.790975442,15.8029324 L0.790972192,15.7687817 C0.619324056,14.9827752 0.447677003,14.1966607 0.344689205,13.4106542 C0.276028867,13.0346723 0.207369613,12.6586904 0.173039986,12.2828166 L0.152656566,12.1546434 L0.138710358,12.0264702 C0.13012741,11.9409854 0.121545545,11.8556086 0.104380298,11.7701238 L0.104380298,11.7359731 C0.00139096893,10.8474065 -0.0329387525,10.129669 0.0357207185,9.44613625 C0.0357207185,8.9334867 0.104380298,8.42083714 0.173039986,7.94237071 C0.189348996,7.86118715 0.197910278,7.78001439 0.206084825,7.70249447 C0.215117341,7.61683673 0.223678623,7.53566397 0.24169924,7.46389347 C0.344689205,6.57530523 0.68798656,5.61836156 1.16859917,4.66141788 C1.44323619,4.11459601 1.82087292,3.60194646 2.26715808,3.0892969 C2.98808025,2.2690641 3.84632093,1.75641455 4.60158356,1.38046506 L4.67024281,1.34629274 C5.21951685,1.10705412 5.90610939,0.901998622 6.66137202,0.765292074 C7.47212104,0.585929573 8.20407116,0.589600774 8.94912915,0.593336817 L9.10947309,0.594073867 L9.64806042,0.594408889 C9.99135669,0.594408889 10.3003233,0.628585526 10.60929,0.662762163 C10.657085,0.662762163 10.70488,0.670124017 10.756109,0.678013261 C10.8152677,0.687123716 10.8789547,0.6969388 10.9526188,0.6969388 C11.8794862,0.765292074 12.7721215,0.936175259 13.6989889,1.20958187 C13.9973284,1.28383803 14.295668,1.37826039 14.5884827,1.4709428 C14.834824,1.54889501 15.0772655,1.6256044 15.3124489,1.68805911 C16.1707438,1.20958187 17.0632707,0.833645348 18.0244786,0.628585526 C18.3677749,0.560232252 18.7454116,0.491878978 19.0543674,0.457703422 L19.2604102,0.423526785 C19.74096,0.389350148 20.2559586,0.355173511 20.8051893,0.389350148 C21.2352575,0.413132436 21.6319602,0.470012804 22.0185883,0.525443929 C22.1875824,0.549671473 22.3546265,0.573620191 22.5216706,0.594408889 C22.5903515,0.611497208 22.6675905,0.637129686 22.7448294,0.662762163 C22.8220684,0.688394641 22.8993074,0.714027119 22.9679883,0.731115437 C23.0023287,0.765292074 23.0710097,0.765292074 23.1053501,0.765292074 C23.1396906,0.731115437 23.174031,0.731115437 23.2426036,0.731115437 L23.3112845,0.6969388 L23.6545808,0.628585526 L23.8730544,0.579712876 L24.0871406,0.531176059 C24.5386581,0.428576982 24.969268,0.330704967 25.4397431,0.2526436 L25.4740836,0.2526436 L25.6236866,0.233950415 C26.1179943,0.172096581 26.591611,0.112817559 27.121884,0.0817607397 C27.7055635,0.0134076494 28.3234751,-0.0207689551 28.9757272,0.0134076505 Z M27.1219923,1.0034597 C26.5727616,1.03763634 26.0921035,1.07181298 25.5428728,1.17433965 C24.8219398,1.31105052 24.1696877,1.44775058 23.4830952,1.61863376 C23.3457333,1.65281689 23.242712,1.75534464 23.071118,1.75534464 C22.8308431,1.72117232 22.5561194,1.61863376 22.3158445,1.58446145 C21.7666138,1.51610602 21.2516152,1.41357827 20.6680441,1.37940595 C20.2217264,1.34522283 19.7410683,1.37940595 19.294859,1.41357827 C18.9515627,1.44775058 18.5395855,1.4819337 18.1619488,1.58446145 C17.2007409,1.78951695 16.3081056,2.16546644 15.4499191,2.678116 C15.4155786,2.71228831 15.3125572,2.71228831 15.2438763,2.678116 C14.6259647,2.47304969 14.0080531,2.26799419 13.3901414,2.09711101 C12.5318466,1.85787239 11.6736601,1.6869892 10.7810464,1.61863376 C10.3690909,1.58446145 9.9571354,1.4819337 9.54516904,1.4819337 C8.58393948,1.4819337 7.69136917,1.44775058 6.73012877,1.65281689 C6.11219549,1.78951695 5.4942622,1.92622782 4.91065853,2.19963875 C4.18972553,2.57557744 3.46880336,3.01988237 2.85087007,3.7034043 C2.47324417,4.1135261 2.12993707,4.55782022 1.88962967,5.07046978 C1.47767415,5.85653027 1.13437788,6.71094619 1.03138899,7.59953443 C0.962729741,8.24889485 0.825410148,8.89824447 0.825410148,9.51342178 C0.791080521,10.26531 0.825410148,10.9488859 0.894069403,11.7007417 C0.962729741,12.2475852 1.03138899,12.7601699 1.13437788,13.3070134 C1.27169639,14.0931279 1.40901489,14.8791343 1.58066303,15.6309901 C1.75231117,16.3145444 1.9239593,16.9980988 2.09560744,17.6816531 C2.33592566,18.5702198 2.61056268,19.4929371 2.85087007,20.347353 C3.09117746,21.1676182 3.4001441,21.9878835 3.67478112,22.7738899 C4.08673665,23.9359864 4.60168106,25.063716 5.25395481,26.1232522 C5.76889921,26.9435174 6.28384362,27.7636746 7.10775467,28.3105181 C7.51972103,28.5839398 7.93167656,28.7548014 8.44662097,28.7548014 C9.20187277,28.7890602 9.81981689,28.4813797 10.3347613,27.9687949 C10.7123872,27.6269637 10.9870675,27.2168311 11.3303638,26.875108 C11.6736601,26.4991261 11.9826159,26.1232522 12.3259122,25.781421 C12.7721215,25.302987 13.2527796,24.7561435 13.6990973,24.2777095 C13.9737126,24.0042878 13.9737126,24.0042878 14.3513493,24.1409986 C14.797667,24.3460109 15.2782168,24.4827218 15.7245344,24.5169805 C15.8961284,24.5169805 16.0678307,24.5511312 16.239533,24.5511312 C16.1021712,24.7219928 15.9648093,24.8928544 15.8275558,25.0979747 C15.5871726,25.4396979 15.3125572,25.7472703 14.90058,25.8839812 C14.4887112,26.020692 14.076734,26.1232522 13.6647568,26.2258124 C13.1497582,26.3625233 12.6692084,26.4308247 12.2572313,26.6700957 C11.6049792,27.0118188 11.3989364,27.6953732 11.8452541,28.2422167 C12.0169564,28.4813797 12.2915717,28.6523493 12.5661871,28.7890602 C13.2184391,29.164934 13.9393722,29.2333435 14.6259647,29.3357956 C15.0722823,29.3700543 15.4842595,29.3357956 15.9648093,29.3016449 C16.5484888,29.2674942 17.0977195,29.0966326 17.5783776,28.8573616 C17.9902465,28.6523493 18.4022237,28.3789276 18.8142009,28.1055058 L18.8142009,28.1396565 L18.8142009,28.1396565 C18.8142009,28.925663 18.8142009,29.7459282 18.8485413,30.5320427 C18.8485413,31.1813383 18.8828818,31.8307419 18.9172223,32.4458868 C18.9515627,32.9243208 18.9515627,33.4711643 18.9859032,33.9497064 C19.0202436,34.3939897 19.0544758,34.838273 19.1574971,35.316707 C19.3291995,36.2736831 19.7410683,37.1280991 20.3590883,37.8458041 C21.0113403,38.6318106 21.8695269,39.0419432 22.8650752,39.1103527 C23.4487547,39.1445034 24.0323259,39.1445034 24.615897,39.0419432 C25.405511,38.8710816 26.2294653,38.6318106 26.9160579,38.221786 C27.6369909,37.8116534 28.1518811,37.2648099 28.5638583,36.5812556 C28.9071546,36.0002614 29.1131974,35.3851165 29.2161104,34.7357129 C29.3534723,34.1888694 29.3878127,33.6762847 29.4564936,33.0952905 C29.4907258,32.7193086 29.5250662,32.4117361 29.5937471,32.0357542 C29.6280876,31.6598804 29.731109,31.2497478 29.7654494,30.8737659 C29.7997899,30.4636332 29.834022,30.0877594 29.902703,29.6776268 C29.9370434,29.2674942 30.0400648,28.8573616 30.0744053,28.447229 C30.1087457,28.1055058 30.1430862,27.7979334 30.2116588,27.4902529 C30.554955,27.5245116 30.8639109,27.6269637 31.2073155,27.6269637 C31.6535248,27.6269637 32.1341829,27.6269637 32.5805005,27.592813 C33.1297312,27.5586623 33.6446215,27.4561022 34.1939605,27.353542 C35.5671456,27.0118188 36.7343963,26.396674 37.6956042,25.3371377 C37.9015386,25.1321254 38.0389004,24.8587037 38.0732409,24.5511312 C38.0389004,24.2093 37.6612637,23.7992755 37.1462651,23.7992755 C36.6313749,23.7650167 36.1507168,23.9359864 35.6014861,23.9701371 C35.0864875,24.0384385 34.5715973,24.1068479 34.0565987,24.1409986 C33.7133024,24.1751493 33.4043466,24.1409986 33.0953908,24.1068479 C32.7520945,24.0725892 32.4431387,23.9701371 32.1341829,23.8334262 C32.2714364,23.6625646 32.3401173,23.4574443 32.4774792,23.2865827 C33.1297312,22.2613052 33.7133024,21.2017689 34.2969819,20.0739313 C34.5715973,19.4929371 34.8805531,18.9119429 35.120828,18.296798 C35.4641242,17.4765328 35.77308,16.6905264 36.1163763,15.8702611 C36.4596726,14.9816945 36.7343963,14.0588691 36.9746712,13.1703025 C37.2492865,12.0766155 37.5239019,10.9488859 37.6269232,9.82101583 C37.6612637,9.34253859 37.7642851,8.82988904 37.7642851,8.31723948 C37.7642851,7.77041761 37.7299446,7.25776806 37.6956042,6.7451185 C37.6612637,6.33500751 37.5239019,5.9248857 37.3523079,5.54894702 C37.0776925,5.00211434 36.7000558,4.59200334 36.2880786,4.18188154 C36.0134633,3.84011517 35.6358265,3.56670423 35.2925303,3.2932933 C34.7431912,2.84899918 34.1596201,2.47304969 33.5760489,2.19963875 C32.7520945,1.78951695 31.9281401,1.51610602 31.0356132,1.31105052 C30.2803397,1.14016733 29.5937471,1.03763634 28.8728141,0.969283066 C28.289243,0.935106429 27.7056718,0.969283066 27.1219923,1.0034597 Z M20.2217264,2.50723281 C21.0113403,2.50723281 21.8009543,2.64393287 22.5561194,2.78064374 C23.3800738,2.95152693 24.1353473,3.22493786 24.8562803,3.60087655 C25.4741919,3.87428748 26.057763,4.25023697 26.6071021,4.69453109 C27.1906732,5.1046529 27.6713314,5.58311933 28.1862216,6.1299412 C28.8041332,6.81347394 29.3878127,7.56536212 29.834022,8.41977804 C30.1773183,9.00077222 30.4177015,9.61594953 30.6923169,10.2311268 L30.6923169,10.2994823 L30.6923169,10.2994823 L29.3191318,10.2994823 L29.3191318,10.2994823 C28.5638583,10.3336654 27.8772658,10.4703655 27.2593542,10.8463257 C26.5384212,11.2564584 26.1951249,11.8716032 26.0234226,12.6577178 C25.95485,13.1361518 25.95485,13.6487365 25.9890821,14.1272786 C26.126444,15.2892669 26.5040807,16.3829539 26.9847388,17.4082314 C27.3623755,18.2284966 27.8085849,19.0486538 28.2205621,19.868919 C28.460837,20.3132023 28.7699011,20.7574856 28.9758355,21.2701784 C29.2161104,21.7486124 29.4907258,22.2613052 29.7997899,22.7055885 C30.0057243,22.9790103 30.2459992,23.2865827 30.452042,23.5258537 L30.4863825,23.5600044 C30.4863825,23.7650167 30.2116588,23.8334262 30.0057243,23.9701371 C29.4907258,24.3118602 29.2161104,24.7561435 29.1474295,25.3371377 C29.1131974,25.6789689 29.1131974,25.9523906 29.0788569,26.2941138 C29.0445164,26.7042464 29.010176,27.114379 28.9414951,27.5245116 C28.9071546,27.8662348 28.8728141,28.1738072 28.8728141,28.5156384 C28.8384737,28.925663 28.8041332,29.3357956 28.7012202,29.7800789 C28.6668797,30.0535006 28.6325393,30.3611811 28.5638583,30.6344948 C28.5295179,31.0446274 28.4951774,31.4206093 28.3922644,31.8307419 C28.3579239,32.1724651 28.3235834,32.5142963 28.2549025,32.8560194 C28.1175407,33.7445861 28.0146276,34.7015622 27.6713314,35.5559781 C27.4996291,36.0002614 27.2593542,36.410394 26.8817174,36.7521172 C26.5040807,37.1280991 26.057763,37.3673701 25.5428728,37.5382317 C25.0278742,37.7090932 24.5473244,37.8799548 23.9979854,37.9483643 C23.242712,38.1192259 22.4532064,38.0850752 21.7666138,37.6749425 C21.3546366,37.4356715 21.0113403,37.0939484 20.8052976,36.7179665 C20.5306822,36.2736831 20.2560669,35.7609904 20.187386,35.2484056 C20.1530455,34.8724237 20.0501325,34.4622911 20.015792,34.0864173 C19.9814515,33.5395738 19.9471111,33.026881 19.8784302,32.4458868 C19.8784302,32.2066158 19.8440897,31.8990433 19.8440897,31.6598804 C19.8440897,30.0535006 19.8097492,28.5156384 19.8097492,26.9092587 C19.8097492,26.5675355 19.8440897,26.2258124 19.8440897,25.8839812 C19.8440897,25.2688363 19.6038148,24.7219928 19.1918376,24.2777095 C18.8485413,23.9359864 18.4709046,23.730866 18.024587,23.6283058 L17.3379944,23.6283058 L17.3379944,23.6283058 C17.4753563,23.252432 17.5440372,22.9448596 17.6812907,22.6030284 C18.0589274,21.6119016 18.4709046,20.6207748 18.8828818,19.6639067 C19.0888162,19.1170633 19.2261781,18.5702198 19.2605185,17.9550749 C19.294859,17.2715205 19.3291995,16.5879662 19.294859,15.9044118 C19.294859,15.4601285 19.2261781,14.9475438 19.1231567,14.5031524 C19.0544758,13.8880075 18.9172223,13.3070134 18.7798604,12.7260192 C18.573926,11.8716032 18.1276083,11.2221996 17.2694218,10.8121318 C16.8574446,10.6070763 16.411127,10.5387209 15.8961284,10.4703655 C14.7633265,10.4361931 13.7677782,10.7096041 12.7721215,11.1538982 C12.7035489,11.1880489 12.5661871,11.2221996 12.4975061,11.2906091 C12.4288252,11.3247598 12.3259122,11.3589105 12.2228908,11.4614706 C12.2228908,11.2906091 12.2228908,11.1197475 12.2572313,10.9830366 C12.3259122,10.5387209 12.3945931,10.0944268 12.4975061,9.61594953 C12.6692084,8.72736129 12.9438238,7.83877305 13.3214605,6.98435712 C13.5960759,6.36917982 13.9050317,5.78817483 14.3170089,5.20718065 C14.6603052,4.76288653 15.0722823,4.35276472 15.4842595,3.97682604 C16.2737651,3.32746561 17.2007409,2.91734381 18.1962893,2.678116 C18.8485413,2.50723281 19.5351339,2.50723281 20.2217264,2.50723281 Z M18.2649702,24.9612639 C18.6082664,25.2004268 18.8142009,25.542258 18.8142009,25.9865413 C18.7798604,26.1232522 18.74552,26.2941138 18.6769474,26.3625233 C18.2306297,26.9435174 17.7156311,27.4219515 17.0633791,27.7636746 C16.5484888,28.0029456 16.0678307,28.1055058 15.5186,28.1396565 C14.7633265,28.2079579 14.076734,28.1055058 13.3901414,27.8662348 C13.2527796,27.8320841 13.1154178,27.7295239 12.9781643,27.6612225 L12.9781643,27.6269637 C13.4244819,27.4902529 13.9050317,27.4219515 14.3513493,27.2852406 C14.9349205,27.1485297 15.5186,27.0118188 15.9991498,26.6358369 C16.3424461,26.396674 16.5828293,26.0548427 16.8231042,25.7472703 C17.0290386,25.4738486 17.2694218,25.2004268 17.5440372,24.9612639 C17.7499716,24.7561435 18.0589274,24.7904023 18.2649702,24.9612639 Z M8.89290612,2.60976056 C9.47650978,2.64393287 10.0601243,2.678116 10.6437279,2.74646062 C11.8795945,2.88317149 13.0125047,3.15658243 14.179647,3.53252111 C14.2139875,3.53252111 14.248328,3.56670423 14.3170089,3.56670423 C13.9393722,4.01099835 13.5617354,4.45529247 13.2527796,4.93376971 C12.7378894,5.61729165 12.4288252,6.36917982 12.1198694,7.15524031 C11.7765731,7.97548392 11.5706387,8.79571672 11.3989364,9.65013265 C11.3303638,10.1285991 11.2273424,10.6754318 11.193002,11.2221996 C11.1586615,11.8033018 11.0556401,12.384296 11.1243211,12.9310314 C11.1586615,13.8880075 11.2616829,14.8449836 11.193002,15.8019597 C11.193002,16.3829539 11.1243211,16.9980988 11.0556401,17.579093 C10.9870675,18.1942379 10.9183866,18.775232 10.9870675,19.390485 C11.021408,20.0397806 11.193002,20.6550335 11.4332769,21.2360277 C11.7765731,21.9878835 12.2228908,22.6371791 12.806462,23.2182813 C12.8408024,23.252432 12.9438238,23.2865827 12.9781643,23.3548841 C12.9094833,23.4574443 12.806462,23.5600044 12.7035489,23.6625646 C12.2572313,24.2093 11.7422327,24.7219928 11.2960234,25.2346856 C10.9183866,25.6448182 10.5407391,26.0891015 10.1631132,26.4991261 C9.92280577,26.7383971 9.71681717,27.0459695 9.40785053,27.2510899 C8.78991724,27.7979334 8.27497283,27.6953732 7.65703954,27.2168311 C7.1420843,26.8409573 6.79878803,26.3625233 6.48982138,25.8156798 C6.21518437,25.3371377 5.90621772,24.824553 5.66591033,24.3118602 C5.28828443,23.5258537 4.94498816,22.7055885 4.67034031,21.8853233 C4.29271441,20.8941965 3.94941814,19.868919 3.67478112,18.8436415 C3.33148485,17.7841052 3.09117746,16.6563757 2.85087007,15.5968394 C2.67922193,14.8449836 2.5075738,14.0931279 2.33592566,13.3070134 C2.23292595,12.7260192 2.19859632,12.145025 2.06127781,11.6323322 C1.9239593,10.8804764 1.9239593,10.1285991 1.99261856,9.34253859 C2.02694818,8.48812267 2.16426669,7.63371755 2.40458492,6.81347394 C2.61056268,6.1299412 2.95385895,5.44640846 3.4001441,4.83123116 C3.81209963,4.28440929 4.32704404,3.84011517 4.91065853,3.53252111 C5.56292145,3.15658243 6.28384362,2.91734381 7.00476579,2.78064374 C7.41673215,2.71228831 7.8630173,2.71228831 8.34363209,2.64393287 C8.51528022,2.64393287 8.72125798,2.60976056 8.89290612,2.60976056 Z M31.7908866,24.824553 C32.1685234,25.063716 32.6147327,25.1662761 33.1297312,25.2004268 C33.4043466,25.2346856 33.678962,25.2688363 33.9536856,25.2346856 C34.5372568,25.2004268 35.0864875,25.1662761 35.670167,25.063716 C35.9447823,25.0295653 36.2193977,24.9954146 36.494013,24.9270051 C36.494013,24.9270051 36.494013,24.9612639 36.5283535,24.9612639 C36.0821442,25.2688363 35.841761,25.4396979 35.6014861,25.6105594 C34.8805531,26.0891015 34.0565987,26.2941138 33.2670931,26.4308247 C32.8894564,26.4649754 32.5461601,26.4991261 32.2028638,26.4991261 C31.8595675,26.4991261 31.5506117,26.5333848 31.2073155,26.4991261 C30.9325918,26.4649754 30.6579764,26.3625233 30.4177015,26.3282645 C30.3833611,26.3282645 30.3490206,26.2599631 30.3490206,26.1915536 C30.3833611,25.9523906 30.3833611,25.6448182 30.4177015,25.4055472 C30.4863825,25.0295653 30.7953383,24.8587037 31.1386345,24.7561435 C31.3789094,24.6878421 31.5506117,24.6878421 31.7908866,24.824553 Z M16.6514019,11.7007417 C17.3036539,11.8716032 17.7156311,12.3158866 17.852993,12.9310314 C17.9902465,13.5121337 18.0932679,14.1272786 18.1962893,14.7082728 C18.2649702,15.1525561 18.3335428,15.6652489 18.3335428,16.1095322 C18.3678832,16.5196648 18.3678832,16.9639481 18.3335428,17.3740807 C18.2649702,18.2284966 18.0932679,19.0486538 17.7499716,19.868919 C17.3379944,20.8600458 16.8917851,21.8511726 16.5484888,22.8081487 C16.5141484,22.9790103 16.4798079,23.1498718 16.3767865,23.2865827 C15.5871726,23.3891429 14.90058,23.1840225 14.2826684,22.7738899 C13.2527796,22.1245943 12.634868,21.1334675 12.3602526,19.9714792 C12.2915717,19.5954973 12.2228908,19.2195154 12.2228908,18.8094908 C12.2228908,18.4335089 12.2915717,18.057527 12.3602526,17.7158038 C12.3945931,17.4765328 12.3945931,17.2373698 12.4288252,16.9639481 C12.4631657,16.2119843 12.4631657,15.4942792 12.4975061,14.7424235 C12.4975061,14.19558 12.4975061,13.6829953 12.4288252,13.1703025 C12.3945931,12.9310314 12.4975061,12.8285793 12.6692084,12.7260192 C13.527395,12.1791757 14.4200303,11.8374525 15.4155786,11.666591 C15.8275558,11.5981815 16.239533,11.5981815 16.6514019,11.7007417 Z M28.2205621,2.09711101 C29.0788569,2.09711101 29.9713839,2.23381107 30.8296787,2.37052194 C31.6878652,2.57557744 32.5805005,2.84899918 33.3356657,3.32746561 C33.8506643,3.60087655 34.2969819,3.94264292 34.7431912,4.3185816 C35.2925303,4.72870341 35.7387396,5.20718065 36.1507168,5.75400252 C36.3911,6.09576889 36.5283535,6.50589069 36.562694,6.91600169 C36.5970344,7.46283437 36.6313749,7.97548392 36.6313749,8.52230579 C36.6313749,9.00077222 36.562694,9.5476049 36.4596726,10.0260713 C36.3911,10.6754318 36.2537382,11.2906091 36.0821442,11.9400127 C35.7387396,13.3411641 35.3268707,14.7424235 34.7431912,16.0752734 C34.399895,16.9296893 34.0222582,17.7841052 33.6103894,18.6727799 C32.9923694,19.9714792 32.3401173,21.2701784 31.5506117,22.4663175 C31.5162713,22.5004682 31.5162713,22.534727 31.4819308,22.6371791 C31.4475903,22.6030284 31.4132499,22.6030284 31.4132499,22.5688777 C31.3789094,22.534727 31.3789094,22.534727 31.3789094,22.5004682 C31.5506117,22.158745 31.6535248,21.8511726 31.8252271,21.5094495 C32.0311615,21.0650581 32.1685234,20.5524734 32.2028638,20.0739313 C32.2372043,19.6639067 32.2714364,19.2537741 32.2372043,18.8436415 C32.2372043,18.3652075 32.1685234,17.818364 32.0998424,17.3398219 C32.065502,16.8955386 32.0311615,16.4512553 31.9624806,16.0411227 C31.9281401,15.5968394 31.9281401,15.1867068 31.9281401,14.7424235 C31.9624806,14.2981401 32.065502,13.8538568 32.0998424,13.3754228 C32.1341829,13.1020011 32.1685234,12.7601699 32.2372043,12.4867481 C32.2714364,12.1108743 32.2714364,11.7348924 32.3057769,11.3931692 C32.3401173,10.8463257 32.2372043,10.40201 32.065502,9.92354358 C31.6535248,8.86407216 31.1386345,7.83877305 30.452042,6.91600169 C30.1087457,6.43753526 29.731109,5.95905802 29.3191318,5.5147639 C28.5638583,4.62617566 27.6713314,3.87428748 26.675783,3.25911018 C26.2294653,2.98569924 25.6801263,2.71228831 25.1652361,2.43887738 C25.7144668,2.33634963 26.1951249,2.26799419 26.6414425,2.23381107 C27.1906732,2.19963875 27.6713314,2.09711101 28.2205621,2.09711101 Z M29.5937471,11.4614706 C30.0057243,11.4614706 30.3833611,11.4956213 30.7953383,11.4956213 C30.9325918,11.4956213 31.0012727,11.5298801 31.0012727,11.7007417 C30.9669322,12.0766155 30.9325918,12.4525974 30.8639109,12.7944286 C30.8296787,13.238712 30.7266573,13.6487365 30.6923169,14.0931279 C30.6579764,14.5374112 30.623636,15.0499959 30.623636,15.4942792 C30.7609978,16.0411227 30.7953383,16.485406 30.8639109,16.9639481 C30.8982513,17.3056712 30.9325918,17.6132437 30.9325918,17.9550749 C30.9669322,18.5018103 31.0012727,19.0145031 30.9669322,19.5613466 C30.9669322,20.1764914 30.7953383,20.7916363 30.5206146,21.4068893 C30.3833611,21.1334675 30.2803397,20.8258951 30.1430862,20.5866241 C29.6280876,19.629648 29.1131974,18.7410813 28.6325393,17.7499545 C28.289243,17.0664002 28.0146276,16.3145444 27.7056718,15.5626887 C27.4996291,15.0158452 27.3623755,14.4690017 27.2936946,13.8538568 C27.2593542,13.4778749 27.2936946,13.1020011 27.3623755,12.6918685 C27.4996291,12.2133264 27.8772658,11.9057539 28.3235834,11.7007417 C28.7355606,11.5298801 29.18177,11.4614706 29.5937471,11.4614706 Z M16.1022795,12.3164269 L15.7589832,12.3164269 L15.7589832,12.3164269 C15.6903023,12.3164269 15.5873892,12.3505776 15.5187083,12.3847283 C15.1754121,12.5214392 15.1410716,12.7265595 15.2783251,12.9998732 C15.5187083,13.4784153 15.8963451,13.751837 16.4799162,13.6834276 C16.857553,13.6834276 17.1665088,13.512566 17.3724432,13.1708428 C17.509805,12.9657225 17.4411241,12.7607102 17.2351897,12.5898487 C16.8918934,12.3505776 16.5142567,12.3164269 16.1022795,12.3164269 Z M29.4567103,12.0092868 C29.0447331,12.0434375 28.7014368,12.0775882 28.4268215,12.2485578 C28.1864383,12.4194194 28.0835252,12.6585823 28.2551192,12.8637027 C28.4955024,13.1371244 28.8387987,13.307986 29.2163271,13.2395765 C29.6283043,13.1712751 29.9716005,12.9662629 30.0746219,12.5561302 C30.1433028,12.3168592 30.0746219,12.1459976 29.8686875,12.0775882 C29.6969852,12.0434375 29.5253912,12.0434375 29.4567103,12.0092868 Z"/></svg>