<svg xmlns="http://www.w3.org/2000/svg" width="40" height="40" viewBox="0 0 40 40"><path fill="#AFB5C3" d="M5.85786905,5.85787652 C13.6683378,-1.95262551 26.3316214,-1.95262551 34.1421485,5.85787652 C41.9526172,13.6683435 41.9526172,26.3316244 34.1421485,34.1421497 C26.3316214,41.9526168 13.6683378,41.9526168 5.85786905,34.1421497 C-1.95262302,26.3316244 -1.95262302,13.6683435 5.85786905,5.85787652 Z M24.8256499,33.7632927 C23.3064271,34.2994717 21.6799685,34.5854533 19.9819999,34.5854533 C18.3465515,34.5854533 16.7916029,34.3173346 15.3259689,33.8258129 C15.6477347,35.076975 16.148188,36.1761857 16.7916029,37.0430036 C17.8282353,37.2396122 18.8917204,37.3379166 19.9819999,37.3379166 C21.143731,37.3379166 22.2786678,37.2217493 23.3778787,36.9983463 C24.0124206,36.1314701 24.5039424,35.0233279 24.8256499,33.7632927 Z M5.54038214,21.4754831 L3.27941674,24.4245551 C4.62884848,29.634627 8.34647561,33.8795184 13.2169783,35.9617725 C13.1722626,35.5328293 13.1543997,35.0413076 13.1365368,34.4961972 C13.1365368,33.9599598 13.1633312,33.4327123 13.2080468,32.9143962 C8.99888036,30.6891804 6.01402355,26.4532205 5.54038214,21.4754831 L5.54038214,21.4754831 Z M34.3967825,21.5558662 C33.9052606,26.4620936 30.9651195,30.6444064 26.8184732,32.8696222 C26.8631888,33.4058595 26.8810517,33.9420385 26.8899832,34.4872073 C26.8899832,35.0233863 26.8631888,35.4970451 26.8184732,35.9170569 C31.7068387,33.7990769 35.4244834,29.4826756 36.7203031,24.219015 L36.7203031,24.219015 Z M23.1902014,26.9804097 L19.9819415,28.2762291 L16.7647502,26.9804097 L15.9515209,29.0179482 L19.365321,30.3673563 C19.1776437,31.0197609 18.578886,31.5023512 17.8639611,31.5023512 C17.8193038,31.5023512 17.7656568,31.5023512 17.7209995,31.4934197 L17.7209995,31.4934197 L17.0239375,32.4674734 C17.2920562,32.5568462 17.569048,32.6015619 17.8639611,32.6015619 C18.7308375,32.6015619 19.4994095,32.1904816 19.9819415,31.5470084 C20.4734634,32.1815501 21.2331039,32.6015619 22.099922,32.6015619 C22.4216878,32.6015619 22.7344638,32.5389833 23.0204454,32.4317475 L23.0204454,32.4317475 L22.3412463,31.4755568 C22.2608049,31.4844883 22.1803634,31.4934197 22.099922,31.4934197 C21.3760656,31.4934197 20.7683765,31.001898 20.5717677,30.3405619 L20.5717677,30.3405619 L24.0123622,29.0268797 L23.1902014,26.9804097 Z M9.29379346,11.9132257 C7.60475632,14.1563043 6.60384975,16.9534833 6.60384975,19.9740652 C6.60384975,24.9607341 9.32058782,29.3128612 13.3688714,31.6185184 C13.4582443,31.0286924 13.5654801,30.4567292 13.7174316,29.9026873 C10.4376617,27.8115017 8.25716107,24.147505 8.25716107,19.9651338 C8.25716107,17.445005 9.05252746,15.103622 10.4108673,13.1822507 L10.4108673,13.1822507 Z M30.7148636,11.9132257 L29.5977898,13.1822507 C30.9651195,15.0946905 31.7604275,17.445005 31.7604275,19.9740652 C31.7604275,24.1206522 29.6067212,27.7667861 26.3627355,29.8579717 C26.5056972,30.4120719 26.6218644,30.9839767 26.7201688,31.5916657 C30.7148636,29.2681456 33.4048661,24.9428128 33.4048661,19.9829967 C33.4137388,16.9534833 32.4039008,14.1563043 30.7148636,11.9132257 L30.7148636,11.9132257 Z M17.9622655,9.52718543 C13.0471639,10.4744447 9.33845073,14.7997775 9.33845073,19.9919865 C9.33845073,23.6649147 11.1972439,26.9089581 14.0301492,28.8213979 C14.1553063,28.4549749 14.2982679,28.1064731 14.4412296,27.757913 C12.0194046,26.024219 10.4376617,23.1913143 10.4376617,19.9830551 C10.4376617,15.6398593 13.342077,11.9758042 17.3099191,10.8140734 C17.4886649,10.3136202 17.712068,9.88461863 17.9622655,9.52718543 Z M27.3726319,26.0688762 C26.8631888,26.6854967 26.273421,27.2395385 25.6299477,27.7131974 C25.7818992,28.0527677 25.9159293,28.4102592 26.0410281,28.7676924 C27.0419346,28.0796204 27.9177425,27.2216756 28.6326674,26.2475636 C28.2662443,26.2475636 27.8462325,26.1939749 27.3726319,26.0688762 Z M12.6092892,21.1715219 L11.778197,21.1715219 C12.1088359,23.3878062 13.2974197,25.3270404 15.0132512,26.6228597 C15.1562129,26.3815938 15.2992329,26.1492009 15.451126,25.9257979 C13.967629,24.7819299 12.9220652,23.1018246 12.6092892,21.1715219 L12.6092892,21.1715219 Z M25.2813875,25.2736268 C25.0669159,25.4880984 24.8435128,25.6936385 24.6022468,25.8723843 C24.7541398,26.0957873 24.9060913,26.3370533 25.0490529,26.5693878 C25.415476,26.2834646 25.7550464,25.9706303 26.0767539,25.63106 C25.817625,25.5238242 25.5495062,25.4076569 25.2813875,25.2736268 Z M20.0177257,9.30372401 L19.1777021,9.30372401 L18.40913,18.7318929 C18.4180615,18.7497558 18.40913,18.7676187 18.40913,18.7854816 C18.40913,18.9463645 18.426993,19.0982576 18.4537873,19.2412776 C18.4627188,19.3931706 18.5163659,19.5629849 18.5878759,19.7238094 C18.739769,20.1348897 18.9989562,20.447724 19.3028008,20.5906856 C19.3743108,20.6532642 19.4546939,20.6979214 19.5262039,20.7515685 C19.5351353,20.7605 19.5529983,20.7694314 19.5708612,20.7872943 L19.5708612,20.7872943 L28.8828649,25.8901304 L29.3654552,25.2109315 L20.9292594,18.6693144 C20.9203279,18.6693144 20.9203279,18.6693144 20.9113965,18.6603829 L20.9113965,18.6603829 L20.0177257,9.30372401 Z M21.1526625,9.38422383 C21.4118498,9.71486267 21.6531158,10.1260013 21.8497245,10.5996018 C26.2376368,11.4575465 29.562064,15.3270834 29.562064,19.9830551 C29.562064,21.2342172 29.3207396,22.4228008 28.8917963,23.51308 C29.2135038,23.8973076 29.4548282,24.2637306 29.6156527,24.5943694 C30.2948518,23.2002457 30.6702064,21.636366 30.6702064,19.9830551 C30.6702064,14.4781285 26.5056972,9.956187 21.1526625,9.38422383 Z M28.2215287,21.1715219 L27.3904365,21.1715219 C27.3547106,21.4306507 27.2921321,21.6719751 27.2296119,21.9221725 C27.4708779,22.1187812 27.7032125,22.3064584 27.9176841,22.5030671 C28.0517727,22.0741239 28.1590085,21.6272594 28.2215287,21.1715219 L28.2215287,21.1715219 Z M12.6628779,18.0437625 L11.8049913,18.9374331 L12.2428661,19.8132407 L14.6468281,20.6890484 L15.9605107,19.8132407 L15.522636,18.4995584 L12.6628779,18.0437625 Z M27.453015,18.0437625 L24.6022468,18.4995584 L24.1553822,19.8132407 L25.4690648,20.6890484 L27.8819583,19.8132407 L28.3198914,18.9374331 L27.453015,18.0437625 Z M22.2608049,11.9668144 C22.3233834,12.252796 22.3770305,12.5566405 22.4127563,12.8783479 C24.4324324,13.5664783 26.058891,15.0857007 26.8899832,17.0249349 L26.8899832,17.0249349 L27.6853496,16.8104633 C26.7291586,14.4690803 24.7273455,12.6638763 22.2608049,11.9668144 Z M16.9524275,12.2348747 C14.8702312,13.0570353 13.199057,14.7103462 12.332239,16.7836106 L12.332239,16.7836106 L13.1365368,16.9981405 C13.8603932,15.3180352 15.1830072,13.9596373 16.8451916,13.1821923 C16.8720444,12.8604266 16.8988387,12.5387192 16.9524275,12.2348747 Z M29.1509836,5.49675983 L26.3805984,7.07856664 C28.4539216,8.0973359 30.2501945,9.60762688 31.6174658,11.4485567 L31.6174658,11.4485567 L33.2617873,9.09824225 C32.0911248,7.69518706 30.7059322,6.47087767 29.1509836,5.49675983 L29.1509836,5.49675983 Z M11.0006935,5.37163194 C9.37417654,6.36358349 7.91753233,7.62367707 6.72001702,9.08032097 L6.72001702,9.08032097 L8.5698787,11.1625751 C9.91041402,9.44674399 11.635177,8.04368881 13.6191272,7.06957681 L13.6191272,7.06957681 Z M19.9999212,6.56025056 C17.944461,6.56025056 15.9873635,7.033851 14.2446792,7.84713849 L14.2446792,7.84713849 L15.0668983,9.28591949 C16.5682582,8.58885762 18.2393741,8.20457169 19.9999212,8.20457169 C21.76041,8.20457169 23.4226527,8.59778907 24.9240126,9.28591949 L24.9240126,9.28591949 L25.7461733,7.84713849 C24.0034891,7.02491955 22.0553231,6.56025056 19.9999212,6.56025056 Z"/></svg>