<svg width="180" height="180" viewBox="0 0 180 180" fill="none" xmlns="http://www.w3.org/2000/svg">
<path d="M83.114 68.4715C84.4889 64.4217 86.5523 60.6811 89.1678 57.3837H36.7445C34.3374 57.3837 32.3019 55.3878 32.3019 53.0216C32.3019 50.6669 34.3374 48.6595 36.7445 48.6595H99.0068C104.837 45.0733 111.731 43 119.117 43C137.537 43 152.894 55.8874 156.346 72.9792C170.021 76.9438 180 89.3669 180 104.082C180 122 165.218 136.513 146.979 136.513C146.941 136.513 146.903 136.513 146.865 136.513V136.62H120.441H91.7392H31.8231C29.416 136.62 27.3831 134.631 27.3831 132.259C27.3831 129.902 29.416 127.896 31.8231 127.896H69.3224C65.933 124.817 63.202 121.049 61.3606 116.818H54.2733C52.8354 116.818 51.75 115.753 51.75 114.34V110.685C51.75 109.273 52.8341 108.209 54.2733 108.209H58.9819C58.8071 106.858 58.7171 105.48 58.7171 104.082C58.7171 101.652 58.9894 99.2839 59.5057 97.0064H4.44254C2.03547 97.0064 0 95.0016 0 92.6469C0 90.2819 2.03419 88.2835 4.44254 88.2835H62.8956C65.4273 83.8371 68.9943 80.0363 73.2757 77.1957H72.5306H28.2169C25.8175 77.1957 23.7744 75.1896 23.7744 72.8336C23.7744 70.4776 25.8175 68.4715 28.2169 68.4715H83.114Z" fill="white"/>
<path d="M5.75653 116.818H37.8209C39.1426 116.818 40.3442 115.641 40.228 114.34V110.685C40.228 109.273 39.1426 108.209 37.7035 108.209H5.75653C4.31739 108.209 3.2422 109.273 3.2422 110.685V114.34C3.2422 115.753 4.31739 116.818 5.75653 116.818Z" fill="white"/>
</svg>
