<svg xmlns="http://www.w3.org/2000/svg" xmlns:xlink="http://www.w3.org/1999/xlink" width="470" height="420" viewBox="0 0 470 420"><defs><style>.cls-1{fill:none;}.cls-2{isolation:isolate;}.cls-3{fill:#a3bfe2;}.cls-4{fill:#fff;}.cls-5{fill:#009fe8;}.cls-6{fill:#e5f5fd;}.cls-7{opacity:0.7;}.cls-8{clip-path:url(#clip-path);}.cls-9{clip-path:url(#clip-path-2);}.cls-10{fill:#b2ded4;}.cls-11{fill:#b0ded2;}.cls-12{fill:#cdecd0;}.cls-13{mix-blend-mode:multiply;}.cls-14{clip-path:url(#clip-path-3);}.cls-15{clip-path:url(#clip-path-4);}.cls-16{clip-path:url(#clip-path-5);}.cls-17{clip-path:url(#clip-path-6);}.cls-18{fill:#b2e2f8;}.cls-19{fill:#fff8ec;}</style><clipPath id="clip-path"><rect id="SVGID" class="cls-1" x="166.49" y="110.92" width="107.74" height="260.8"/></clipPath><clipPath id="clip-path-2"><rect id="SVGID-2" data-name="SVGID" class="cls-1" x="222.04" y="99.75" width="116.36" height="277.53"/></clipPath><clipPath id="clip-path-3"><rect id="SVGID-3" data-name="SVGID" class="cls-1" x="75.63" y="219.35" width="31.16" height="19.49"/></clipPath><clipPath id="clip-path-4"><rect id="SVGID-4" data-name="SVGID" class="cls-1" x="75.63" y="219.35" width="31.16" height="2.17"/></clipPath><clipPath id="clip-path-5"><path id="SVGID-5" data-name="SVGID" class="cls-1" d="M179.23,148.59V408.68l215.85-6.11c-.45-23.57,7.93-87.05,10.2-127.35s4.66-126.63,4.66-126.63Z"/></clipPath><clipPath id="clip-path-6"><path id="SVGID-6" data-name="SVGID" class="cls-1" d="M337.72,232.87l7.95-2.34v21l-7.95,1.3ZM326.86,418.7H470.33V114H326.86Z"/></clipPath></defs><title>img_23</title><g class="cls-2"><g id="レイヤー_1" data-name="レイヤー 1"><polygon class="cls-3" points="167.72 122.55 411.23 83.64 411.23 390.37 167.72 365.33 167.72 122.55"/><path class="cls-4" d="M294.76,31.33c0,12.06-9,23.71-20.12,26s-20.12-5.6-20.12-17.66,9-23.7,20.12-26,20.12,5.6,20.12,17.65"/><path class="cls-4" d="M299.82,30.28c0,15.09-11.27,29.67-25.18,32.56s-25.18-7-25.18-22.09,11.28-29.67,25.18-32.56,25.18,7,25.18,22.09"/><path class="cls-5" d="M269.87,64A20.16,20.16,0,0,1,257,59.53c-5.2-4.23-8.18-11.08-8.18-18.78,0-15.38,11.54-30.28,25.72-33.23a21,21,0,0,1,17.83,4c5.19,4.23,8.17,11.07,8.17,18.78,0,15.38-11.54,30.28-25.72,33.23a24.45,24.45,0,0,1-4.91.51M279.4,8.37a22.41,22.41,0,0,0-4.62.49C261.2,11.68,250.14,26,250.14,40.75c0,7.4,2.73,13.69,7.68,17.72a19.6,19.6,0,0,0,16.68,3.7c13.59-2.82,24.64-17.13,24.64-31.89,0-7.4-2.72-13.69-7.67-17.72A18.87,18.87,0,0,0,279.4,8.37"/><path class="cls-5" d="M296.36,31a2.15,2.15,0,0,1-1.6,2.07,1.31,1.31,0,0,1-1.6-1.4,2.16,2.16,0,0,1,1.6-2.07,1.31,1.31,0,0,1,1.6,1.4"/><path class="cls-5" d="M276.24,13.35a2.15,2.15,0,0,1-1.6,2.07A1.32,1.32,0,0,1,273,14a2.16,2.16,0,0,1,1.6-2.07,1.31,1.31,0,0,1,1.6,1.4"/><path class="cls-5" d="M256.12,39.36a2.15,2.15,0,0,1-1.6,2.07,1.31,1.31,0,0,1-1.6-1.4,2.16,2.16,0,0,1,1.6-2.07,1.31,1.31,0,0,1,1.6,1.4"/><path class="cls-5" d="M276.24,57a2.15,2.15,0,0,1-1.6,2.07,1.31,1.31,0,0,1-1.6-1.4,2.16,2.16,0,0,1,1.6-2.07,1.31,1.31,0,0,1,1.6,1.4"/><path class="cls-5" d="M274.64,36.38a.87.87,0,0,1-.86-.87V13.68a.86.86,0,0,1,1.72,0V35.51a.86.86,0,0,1-.86.87"/><path class="cls-5" d="M274.64,36.38a.84.84,0,0,1-.77-.49l-6.32-13.13a.85.85,0,0,1,.4-1.14.86.86,0,0,1,1.15.4l6.32,13.12a.87.87,0,0,1-.4,1.15.85.85,0,0,1-.38.09"/><polygon class="cls-4" points="53.83 230.66 56.76 240.07 50.82 240.34 53.83 230.66"/><path class="cls-5" d="M50.82,241a.68.68,0,0,1-.54-.27.66.66,0,0,1-.11-.62l3-9.68a.68.68,0,0,1,1.3,0l2.93,9.4a.67.67,0,0,1-.09.6.68.68,0,0,1-.53.29l-5.94.28h0m3-8.08-2.07,6.67,4.09-.19Z"/><polygon class="cls-4" points="52.02 240.86 35.04 241.71 39.09 219.37 56.07 218.05 52.02 240.86"/><path class="cls-5" d="M35,242.39a.66.66,0,0,1-.51-.23.67.67,0,0,1-.16-.57l4.05-22.34a.68.68,0,0,1,.62-.56l17-1.32a.72.72,0,0,1,.55.22.66.66,0,0,1,.17.58L52.69,241a.68.68,0,0,1-.64.56l-17,.85h0M39.67,220l-3.81,21,15.58-.77,3.8-21.41ZM52,240.86h0Z"/><polygon class="cls-4" points="41.71 222.27 52.33 221.44 49.41 237.89 38.78 238.43 41.71 222.27"/><path class="cls-5" d="M38.78,238.77a.37.37,0,0,1-.26-.12.34.34,0,0,1-.08-.29l2.93-16.15a.34.34,0,0,1,.31-.28l10.62-.83a.37.37,0,0,1,.28.11.34.34,0,0,1,.08.29L49.74,238a.33.33,0,0,1-.32.28l-10.63.54ZM42,222.59l-2.8,15.47,9.93-.49,2.79-15.75Z"/><line class="cls-4" x1="40.19" y1="220.59" x2="41.03" y2="221.52"/><path class="cls-5" d="M41,221.86a.34.34,0,0,1-.26-.12l-.83-.92a.34.34,0,0,1,.5-.46l.84.93a.35.35,0,0,1,0,.48.31.31,0,0,1-.22.09"/><line class="cls-4" x1="53.3" y1="220.56" x2="54.58" y2="219.4"/><path class="cls-5" d="M53.3,220.9a.31.31,0,0,1-.25-.11.34.34,0,0,1,0-.48l1.28-1.16a.34.34,0,1,1,.46.5l-1.28,1.16a.35.35,0,0,1-.23.09"/><line class="cls-4" x1="50.08" y1="238.66" x2="50.98" y2="239.68"/><path class="cls-5" d="M51,240a.34.34,0,0,1-.26-.12l-.89-1a.34.34,0,0,1,0-.48.34.34,0,0,1,.48,0l.89,1a.34.34,0,0,1,0,.48A.31.31,0,0,1,51,240"/><line class="cls-4" x1="37.81" y1="239.28" x2="36.5" y2="240.42"/><path class="cls-5" d="M36.5,240.76a.34.34,0,0,1-.25-.11.34.34,0,0,1,0-.48l1.3-1.15a.34.34,0,0,1,.45.52l-1.3,1.14a.34.34,0,0,1-.23.08"/><path class="cls-5" d="M407.16,393h-.07L155,369.19a.69.69,0,0,1,0-1.36l13.48-2h.16l245.71,22.43a.7.7,0,0,1,.61.56.69.69,0,0,1-.39.74l-7.12,3.33a.72.72,0,0,1-.29.06m-246.4-24.59L407,391.57l4.67-2.18L168.6,367.19Z"/><polygon class="cls-4" points="407.16 73.17 149.34 117.44 155.1 121.62 168.58 124.54 414.27 85.04 414.29 71.98 407.16 73.17"/><path class="cls-5" d="M168.58,125.22h-.15L155,122.28a.8.8,0,0,1-.25-.11L148.94,118a.67.67,0,0,1-.26-.71.66.66,0,0,1,.54-.51L407,72.5h0l7.12-1.19a.71.71,0,0,1,.56.15A.69.69,0,0,1,415,72L415,85a.69.69,0,0,1-.57.68L168.69,125.21h-.11M155.38,121l13.22,2.87,245-39.39V72.79l-6.33,1-256.22,44Z"/><path class="cls-5" d="M155.1,122.3a.68.68,0,0,1-.67-.57.69.69,0,0,1,.56-.79L407.05,79.07a.67.67,0,0,1,.78.56.68.68,0,0,1-.56.78L155.21,122.29h-.11"/><polygon class="cls-4" points="149.34 367.96 155.1 368.51 155.1 121.62 149.34 117.44 149.34 367.96"/><path class="cls-5" d="M155.1,369.19H155l-5.75-.55a.68.68,0,0,1-.62-.68V117.44a.68.68,0,0,1,.37-.61.7.7,0,0,1,.71.06l5.76,4.17a.69.69,0,0,1,.28.56V368.51a.68.68,0,0,1-.22.5.67.67,0,0,1-.46.18M150,367.34l4.4.42V122l-4.4-3.18Z"/><path class="cls-4" d="M37.49,118.32a38.28,38.28,0,0,1-9,0c-4.54-.57-9.26-2.16-12.36-4.68-2.82-2.29-4.05-3.53-4.05-6.36v-4.64l96.77-23.84,24.81,20.59Z"/><path class="cls-5" d="M32.82,119.22a36.74,36.74,0,0,1-4.4-.26c-5.08-.65-9.7-2.4-12.68-4.82-2.73-2.22-4.27-3.63-4.27-6.84v-4.64a.62.62,0,0,1,.48-.6l96.76-23.85a.62.62,0,0,1,.55.13l24.81,20.59a.63.63,0,0,1-.28,1.09L37.61,118.93h0a36.24,36.24,0,0,1-4.76.29m4.67-.9h0ZM12.71,103.15v4.15c0,2.53,1,3.62,3.82,5.87s7.19,3.94,12,4.55a37.77,37.77,0,0,0,8.81,0l94.88-18.66L108.7,79.49Z"/><path class="cls-4" d="M12.09,107.3c.18-1.19,1.72-2.09,3.88-2.56S99.7,86.57,104.84,85.66s7.55,0,14,6.61a24.76,24.76,0,0,0,14.78,7.14l-.13-40.57s-20.17-6.31-22.09-6.93a19.64,19.64,0,0,0-10.83-.3L16.83,73c-3.34.85-4.71,2.51-4.71,8.79,0,4.38,0,23.74,0,23.74Z"/><path class="cls-5" d="M12.09,107.92H12a.63.63,0,0,1-.57-.62v-1.82s0-19.36,0-23.74c0-6.12,1.26-8.4,5.18-9.4L100.46,51a20.42,20.42,0,0,1,11.18.31c1.9.62,21.89,6.87,22.09,6.93a.61.61,0,0,1,.43.59l.13,40.57a.62.62,0,0,1-.66.62,25.12,25.12,0,0,1-15.19-7.33c-6.42-6.58-8.65-7.28-13.49-6.42s-74.53,16-88.47,19l-.38.09c-2,.42-3.27,1.21-3.4,2a.61.61,0,0,1-.61.53m93.5-56.3a20.31,20.31,0,0,0-4.82.59L17,73.55c-3,.76-4.25,2.07-4.25,8.19,0,4.19,0,22.15,0,23.64a8.59,8.59,0,0,1,3.12-1.25l.38-.08c14-3,83.76-18.16,88.52-19,5.59-1,8.19.22,14.6,6.78A24.38,24.38,0,0,0,133,98.72l-.12-39.42c-2.95-.92-19.92-6.23-21.66-6.8a18.21,18.21,0,0,0-5.67-.88"/><path class="cls-5" d="M107.76,82.08a.62.62,0,0,1-.62-.62V55.77a.62.62,0,0,1,1.24,0V81.46a.62.62,0,0,1-.62.62"/><path class="cls-6" d="M122.84,101.54c-4.33-1-8.38-4.21-11.17-7.62-2.17-2.66-6.83-2.23-9.21-1.68s-73,15.13-76.08,15.8c-4.71,1-6.18,2-5.08,3.16,1.85,2,6,2.63,6,2.63l13.18,3.94Z"/><path class="cls-5" d="M40.46,118.39a.57.57,0,0,1-.18,0l-13.13-3.92c-.49-.08-4.42-.78-6.3-2.82a1.5,1.5,0,0,1-.46-1.52c.34-1.07,2-1.82,5.86-2.66,1.34-.3,15.19-3.17,31.23-6.49,20.39-4.22,43.5-9,44.84-9.31,1.16-.27,7.11-1.44,9.83,1.89,3.15,3.85,7.09,6.55,10.83,7.4a.62.62,0,0,1,0,1.22L40.58,118.38h-.12m65.6-25.94a16.19,16.19,0,0,0-3.46.4c-1.35.31-24.47,5.1-44.86,9.32-16,3.32-29.89,6.19-31.23,6.48-4.34.95-4.87,1.63-4.93,1.82s0,.15.18.31c1.67,1.81,5.58,2.43,5.62,2.44l.08,0,13,3.89,79.86-15.73a24,24,0,0,1-9.16-7.08c-1.21-1.49-3.3-1.87-5.13-1.87"/><polygon class="cls-4" points="414.61 392.96 407.16 392.27 407.16 79.74 414.61 71.98 414.61 392.96"/><path class="cls-5" d="M414.61,393.64h-.07L407.1,393a.68.68,0,0,1-.62-.68V79.74a.7.7,0,0,1,.19-.47l7.44-7.76a.68.68,0,0,1,.75-.16.67.67,0,0,1,.43.63V393a.66.66,0,0,1-.23.5.64.64,0,0,1-.45.18m-6.77-2,6.08.56V73.68L407.84,80Z"/><path class="cls-4" d="M34.83,117.6l84.48-17.19,2.07.78c-.12,2.46-1.58,8-5.28,10.6-8.19,1.53-83.63,15.37-86,15.81s3.26-1.69,4.73-10"/><path class="cls-5" d="M29.69,128.28a.74.74,0,0,1-.71-.37c-.26-.48.09-.85.62-1.39a16.36,16.36,0,0,0,4.61-9,.63.63,0,0,1,.49-.5L119.19,99.8a.66.66,0,0,1,.34,0l2.07.78a.61.61,0,0,1,.4.61c-.14,2.91-1.78,8.48-5.55,11.09a.64.64,0,0,1-.24.1L53.88,123.87l-23.67,4.35a3.92,3.92,0,0,1-.52.06m5.67-10.16A17.32,17.32,0,0,1,31,126.8l22.61-4.16c23.88-4.38,56.51-10.37,62.2-11.43,3.23-2.32,4.62-7.17,4.88-9.6l-1.47-.55Z"/><path class="cls-4" d="M116,109.25a18.94,18.94,0,0,0,3.32-8.84"/><path class="cls-5" d="M116,109.87a.58.58,0,0,1-.38-.13.62.62,0,0,1-.12-.87,18.3,18.3,0,0,0,3.2-8.52.63.63,0,0,1,.68-.56.63.63,0,0,1,.56.68,19.38,19.38,0,0,1-3.45,9.16.62.62,0,0,1-.49.24"/><path class="cls-4" d="M26.4,113.51l86.42-17.72,1.71,1.46a17.07,17.07,0,0,1-7,10.86c-8.19,1.53-82.15,15.6-84.53,16-1,.19-3.11.14-1.52-1.23,2.24-1.94,3.4-4.59,4.87-9.41"/><path class="cls-5" d="M22.16,124.86c-.66,0-1.45-.14-1.73-.72s0-1.08.69-1.69c2.19-1.89,3.3-4.56,4.69-9.12a.62.62,0,0,1,.47-.43l86.41-17.72a.63.63,0,0,1,.53.13l1.71,1.46a.62.62,0,0,1,.21.61A17.83,17.83,0,0,1,108,108.61a.54.54,0,0,1-.26.11c-5.33,1-37.95,7.2-61.77,11.73l-22.75,4.32a7.07,7.07,0,0,1-1,.09m-.43-1.28a3.9,3.9,0,0,0,1.21,0l22.74-4.32c23.62-4.49,55.89-10.62,61.64-11.69a16.34,16.34,0,0,0,6.52-10l-1.2-1L26.89,114c-1.41,4.58-2.6,7.31-5,9.35a1.92,1.92,0,0,0-.2.19"/><path class="cls-5" d="M107.08,106.72a.59.59,0,0,1-.43-.17.63.63,0,0,1,0-.88c3.25-3.41,4.86-6.46,5.23-9.88a.62.62,0,0,1,1.24.13c-.41,3.72-2.12,7-5.56,10.61a.63.63,0,0,1-.45.19"/><path class="cls-5" d="M155.1,369.19a.7.7,0,0,1-.45-.17.66.66,0,0,1-.23-.51V121.62a.67.67,0,0,1,.25-.53.69.69,0,0,1,.57-.14l13.48,2.92a.68.68,0,0,1,.54.67v242a.68.68,0,0,1-.58.67l-13.48,2h-.1m.68-246.73V367.72l12.12-1.8V125.09Zm12.8,244.05h0Z"/><g class="cls-7"><g class="cls-8"><polygon class="cls-4" points="273.55 371.04 167.18 361.97 167.18 128.22 273.56 111.6 273.55 371.04"/><path class="cls-5" d="M273.55,371.72h-.05l-106.38-9.06a.69.69,0,0,1-.63-.68V128.22a.69.69,0,0,1,.58-.67l106.38-16.63a.68.68,0,0,1,.55.16.69.69,0,0,1,.24.52V371a.69.69,0,0,1-.22.51.74.74,0,0,1-.47.18M167.86,361.35l105,8.94V112.39l-105,16.42Z"/></g></g><path class="cls-4" d="M162.27,124.23v242.6L278.7,377.49v-272ZM273.55,371,167.18,362V128.22L273.56,111.6Z"/><path class="cls-5" d="M278.7,378.17h-.06L162.2,367.51a.68.68,0,0,1-.61-.68V124.23a.68.68,0,0,1,.57-.67l116.43-18.73a.68.68,0,0,1,.55.15.66.66,0,0,1,.24.52v272a.66.66,0,0,1-.68.68M163,366.21,278,376.74V106.3L163,124.81Zm110.6,5.51h-.05l-106.38-9.06a.69.69,0,0,1-.63-.68V128.22a.69.69,0,0,1,.58-.67l106.38-16.63a.68.68,0,0,1,.55.16.69.69,0,0,1,.24.52V371a.69.69,0,0,1-.22.51.74.74,0,0,1-.47.18M167.86,361.35l105,8.94V112.39l-105,16.42Z"/><g class="cls-7"><g class="cls-9"><polygon class="cls-4" points="337.72 376.6 222.72 366.74 222.72 119.31 337.72 100.44 337.72 376.6"/><path class="cls-5" d="M337.72,377.28h-.06l-115-9.86a.69.69,0,0,1-.63-.68V119.31a.69.69,0,0,1,.57-.68l115-18.87a.68.68,0,0,1,.55.15.69.69,0,0,1,.24.52V376.6a.68.68,0,0,1-.22.5.7.7,0,0,1-.46.18M223.41,366.11,337,375.85V101.24L223.41,119.88Z"/></g></g><path class="cls-4" d="M345,93.39l-128.11,21V372L345.05,384ZM337.72,376.6l-115-9.86V119.3l115-18.87Z"/><path class="cls-5" d="M345.05,384.63H345L216.86,372.71a.67.67,0,0,1-.61-.68V114.36a.68.68,0,0,1,.57-.67l128.11-21a.72.72,0,0,1,.56.16.69.69,0,0,1,.24.52V384a.68.68,0,0,1-.22.5.65.65,0,0,1-.46.18M217.61,371.41,344.37,383.2v-289L217.61,114.94Zm120.11,5.87h-.06l-115-9.86a.69.69,0,0,1-.63-.68V119.31a.69.69,0,0,1,.57-.68l115-18.87a.68.68,0,0,1,.55.15.69.69,0,0,1,.24.52V376.6a.68.68,0,0,1-.22.5.7.7,0,0,1-.46.18M223.41,366.11,337,375.85V101.24L223.41,119.88Z"/><path class="cls-5" d="M75.63,239.53a.68.68,0,0,1-.68-.68V208.09a.52.52,0,0,1,0-.25l.06-.13c.18-.4.61-.87,5.35-1.26a158.23,158.23,0,0,1,22.42,0c4.09.37,4.35.81,4.54,1.13a.72.72,0,0,1,.11.31.76.76,0,0,1,0,.15v29.37a.68.68,0,0,1-.65.68l-31.15,1.44h0m.69-31.12v29.72l29.79-1.37V208.32a17.21,17.21,0,0,0-3.42-.51,158,158,0,0,0-22.19,0,20,20,0,0,0-4.18.6"/><path class="cls-10" d="M91.18,192.77c.17,4.07,0,9.53-2,23.85s-3.79,16.22-3.79,16.22a1.73,1.73,0,0,0,1.09.52h.63a169.47,169.47,0,0,0,3.87-22.29c1.68-14.29,1.72-19.41,1.72-19.41Z"/><path class="cls-10" d="M85.66,199.67s.85,6.36,6.58,17.7,8.84,12,8.84,12a7.3,7.3,0,0,0-.37.83,1.25,1.25,0,0,1-.62.67s-3.79-2.52-10.31-16.22-4.12-15-4.12-15"/><path class="cls-5" d="M90.65,210c-4,0-7.87-.12-10.77-.37-4.23-.35-4.94-.76-4.94-1.56s.38-1.21,5.45-1.63a.68.68,0,0,1,.11,1.36c-1.08.09-1.89.18-2.51.27.52.06,1.17.14,2,.21a162.6,162.6,0,0,0,21.63,0c1.22-.1,2.13-.2,2.8-.29-.46-.06-1-.13-1.73-.19a.68.68,0,0,1,.12-1.36c4,.36,4.67.76,4.66,1.54s-.4,1.24-5.74,1.65c-3.12.25-7.13.37-11.08.37"/><path class="cls-11" d="M70.81,187.83c-1.09-2.61-4.78-3.26-7.79-2.94a23.36,23.36,0,0,0-5.37,1.21A15.19,15.19,0,0,1,64.52,188c-2.6.56-5.21-.51-7.79-1.1s-5.85-.42-7.23,1.7l7.06-.38-7.38.51a6.73,6.73,0,0,0-3.57.94c-1.29,1-1.57,2.64-1.72,4.16a3.75,3.75,0,0,1,2.26-3.22,8.23,8.23,0,0,1,2.16-.53l9-1.35-5.84,2.47c6.84-1.43,13.9-2.86,20.75-1.64-4.9.24-9,3.36-12.78,6.33,4.33-.15,8.88-.35,12.58-2.46a1.29,1.29,0,0,1,.84-.24c.59.12.56.89.68,1.45a2.93,2.93,0,0,0,2.34,1.84,18,18,0,0,1,3.13.72c1.33.58,2.26,1.84,3.68,2.18,1.61.39,3.25-.53,4.55-1.51a26.38,26.38,0,0,0,8.53-11,6.47,6.47,0,0,0,.63-2.71,5.29,5.29,0,0,0-2.5-3.9,17.71,17.71,0,0,0-4.58-2,3.47,3.47,0,0,0-1.42-.25,3.79,3.79,0,0,0-1.37.51,13.34,13.34,0,0,1-4.82,1.31c1.78-.14.13,4.24-.27,4.7A6.25,6.25,0,0,1,75,186.17c-1.23-.48-1.93-2-3.4-1.87-1.88.15-2.53,2.8-.76,3.53"/><path class="cls-5" d="M83.45,200a3.74,3.74,0,0,1-.89-.11,6.19,6.19,0,0,1-2.31-1.27,5.65,5.65,0,0,0-3.33-1.41,11.19,11.19,0,0,1-1.18-.23A3.35,3.35,0,0,1,73,194.71c0-.13,0-.26-.07-.4,0-.35-.1-.64-.22-.66a1.1,1.1,0,0,0-.48.19c-3.91,2.22-8.85,2.39-12.81,2.52a.51.51,0,0,1-.5-.34.5.5,0,0,1,.16-.57c2.56-2,5.85-4.63,9.66-5.82-5.84-.35-11.82.9-17.2,2a.51.51,0,0,1-.59-.35.51.51,0,0,1,.29-.63l2.09-.88-5,.75a8,8,0,0,0-2,.48,3.35,3.35,0,0,0-1.9,2.32c0,.16,0,.33-.05.49a.49.49,0,0,1-.54.46.52.52,0,0,1-.48-.52q0-.3.06-.6a5.48,5.48,0,0,1,1.86-4,7.05,7.05,0,0,1,3.84-1c1.57-2.27,5-2.44,7.7-1.82l.46.1a.49.49,0,0,1-.16-.29.51.51,0,0,1,.34-.56A23.8,23.8,0,0,1,63,184.38a10.74,10.74,0,0,1,6.43,1.11,2.46,2.46,0,0,1,2.14-1.7A3.28,3.28,0,0,1,74,184.9a4.16,4.16,0,0,0,1.14.8A5.73,5.73,0,0,0,81,184.21c.31-.39,1.26-3.08.87-3.79,0,0,0-.08-.17-.07a.51.51,0,0,1-.55-.47.51.51,0,0,1,.47-.55h0a12.71,12.71,0,0,0,4.63-1.26l.14-.07a3.93,3.93,0,0,1,1.41-.49,4,4,0,0,1,1.63.28,17.71,17.71,0,0,1,4.7,2.05,5.71,5.71,0,0,1,2.73,4.3,7.06,7.06,0,0,1-.67,2.92,26.74,26.74,0,0,1-8.7,11.18A7,7,0,0,1,83.45,200m-10.74-7.33.23,0c.82.16.94,1,1,1.51l.06.33c.17.75,1.12,1.24,2,1.45.36.09.73.15,1.1.21a8.81,8.81,0,0,1,2.12.54,9,9,0,0,1,1.66,1.06,5.46,5.46,0,0,0,1.93,1.1c1.14.27,2.49-.2,4.12-1.43a25.7,25.7,0,0,0,8.37-10.75,6.26,6.26,0,0,0,.59-2.49,4.8,4.8,0,0,0-2.28-3.5,17,17,0,0,0-4.45-1.92,3.14,3.14,0,0,0-1.21-.24,3.38,3.38,0,0,0-1.05.39l-.15.07a13.68,13.68,0,0,1-3.81,1.22c.43,1.45-.77,4.28-1.11,4.68a6.77,6.77,0,0,1-7,1.77,5.12,5.12,0,0,1-1.43-1,2.48,2.48,0,0,0-1.74-.87,1.48,1.48,0,0,0-1.31,1.26.41.41,0,0,0,0,.12,4.48,4.48,0,0,1,1,1.45.53.53,0,0,1-.11.56.51.51,0,0,1-.56.11,2.13,2.13,0,0,1-1.33-1.64c-1.54-1.23-4.12-1.49-6.22-1.26a22.6,22.6,0,0,0-2.83.48,15,15,0,0,1,4.53,1.64.51.51,0,0,1-.14.94,13.2,13.2,0,0,1-6.26-.65c-.59-.16-1.17-.31-1.76-.45-1.89-.42-4.34-.45-5.85.62l5.78-.31a.49.49,0,0,1,.53.48.13.13,0,0,1,0,.06l.13,0a.5.5,0,0,1,.57.36.51.51,0,0,1-.29.61l-1.18.5c5.17-.95,10.66-1.59,16-.65a.51.51,0,0,1,.42.54.5.5,0,0,1-.48.48c-4.1.2-7.69,2.51-11.26,5.25,3.64-.15,7.56-.5,10.78-2.33a2,2,0,0,1,1-.33m-21.24-3.57-2.26.16a6.2,6.2,0,0,0-3.3.83,1.24,1.24,0,0,0-.22.18l.25-.12a8.9,8.9,0,0,1,2.29-.56Zm6.41-2.43.75.2a19.61,19.61,0,0,0,3.91.78,14.8,14.8,0,0,0-4.66-1"/><path class="cls-12" d="M91.24,184.61c-2-1.75-4.79-2.45-7.49-3s-6-.83-8.49.67-3.41,4.34-4.2,7c-.54,1.82-1.09,3.76-.54,5.57s2.65,3.35,4.58,2.71a7.16,7.16,0,0,1,2.07-7.26A8.57,8.57,0,0,1,85,188.46c-2.65,1.75-6.66,1.78-8.38,4.34-1.41,2.09-.51,4.81.64,7a9.89,9.89,0,0,0,4.23,0c-.38-2.13-.69-4.54.77-6.24s4.26-1.95,6.67-2l-8.34,9.66a18.9,18.9,0,0,1,5.76,6.89,37.2,37.2,0,0,1,2-9.35c.87-2.46,2.54-5.23,5.32-5.39a1.29,1.29,0,0,1,.78.14,1.12,1.12,0,0,1,.42.92c.1,2-1.31,3.72-2.3,5.48A13.85,13.85,0,0,0,91,209.25a1.22,1.22,0,0,0,.37.79,1.59,1.59,0,0,0,1,.25,15.41,15.41,0,0,1,7.23,2.13c-.27-2.29-.55-4.58-.82-6.87-.38-3.18-.58-6.87,2-9.09a7.1,7.1,0,0,1,.86,5,15.64,15.64,0,0,0-.16,5.1,4.19,4.19,0,0,0,3.6,3.38c1.57.08,2.93-.93,4.37-1.54a9.05,9.05,0,0,1,6.38-.23c-1.07-2.14.77-4.53,2.49-6.3-3.48-1.3-7.17-2.76-9.22-5.66-.33-.47-.6-1.11-.23-1.55s1-.38,1.5-.33a11.62,11.62,0,0,1,4.81,1.15c1.42.82,2.42,2.48,1.84,3.94a7.42,7.42,0,0,0,1.69-5.35A22.78,22.78,0,0,0,106,191.37a2.3,2.3,0,0,1-1.71-.29,1.22,1.22,0,0,1,.16-1.77,3.56,3.56,0,0,1,2-.69,27.17,27.17,0,0,1,6.11.18,13.06,13.06,0,0,1,4.7,1.12,4.12,4.12,0,0,1,2.48,3.62c-.18-2.58-.35-5.16-.53-7.73a37,37,0,0,0-15.22.28,3.84,3.84,0,0,1-1.68.13c-.55-.13-1-.65-.87-1.15a1.41,1.41,0,0,1,.73-.71,10.66,10.66,0,0,1,4.76-.92,43.36,43.36,0,0,1,11.42,1.32,19.91,19.91,0,0,1-4.08-7.44,1,1,0,0,0-.34-.58,1,1,0,0,0-.65-.1c-4.77.37-8.45,4.14-13,5.44-.74.22-1.89.09-1.85-.63,0-.33.33-.59.62-.79a19,19,0,0,1,8.29-3.2,2.77,2.77,0,0,0,1.58-.53c.91-.89-.22-2.29-1.34-2.92a19.31,19.31,0,0,0-6.27-2.22,4.81,4.81,0,0,0-2.2,0,1.75,1.75,0,0,0-1.34,1.48,7.28,7.28,0,0,0-3.1-.61c-.9,1.37-.06,3.18-.51,4.72-.52,1.76-2.67,3.1-2.37,4.89a10.25,10.25,0,0,1,.31,1.33c0,.45-.37,1-.86.9"/><path class="cls-5" d="M99.62,212.93a.48.48,0,0,1-.26-.07,14.75,14.75,0,0,0-7-2.06,2.07,2.07,0,0,1-1.33-.36,1.75,1.75,0,0,1-.54-1.09,14.32,14.32,0,0,1,1.6-9.72c.21-.38.44-.75.67-1.13.85-1.37,1.64-2.67,1.56-4.07,0-.16,0-.43-.18-.52a.92.92,0,0,0-.47-.06c-2.74.15-4.23,3.23-4.86,5.05a36.19,36.19,0,0,0-1.95,9.22.51.51,0,0,1-1,.18,18.41,18.41,0,0,0-5.6-6.7.5.5,0,0,1-.08-.75l.34-.39a10.42,10.42,0,0,1-3.39-.16.49.49,0,0,1-.35-.26c-1.66-3.15-1.86-5.68-.62-7.53,1.14-1.68,3.13-2.35,5.06-3,.74-.25,1.49-.5,2.19-.81a8.14,8.14,0,0,0-5.94,2,6.71,6.71,0,0,0-1.93,6.73.5.5,0,0,1-.32.63,3.66,3.66,0,0,1-2.88-.28A4.73,4.73,0,0,1,70,195c-.61-2,0-4.15.54-5.87.88-2.93,1.88-5.7,4.42-7.25s5.94-1.27,8.85-.73c2.67.49,5.41,1.17,7.46,2.83l0,0a.51.51,0,0,0,.15-.35,2.33,2.33,0,0,0-.14-.63c-.06-.21-.12-.41-.16-.62-.21-1.27.55-2.28,1.29-3.26a6.45,6.45,0,0,0,1.1-1.85,5.66,5.66,0,0,0,.09-1.9,4.59,4.59,0,0,1,.49-3,.51.51,0,0,1,.41-.23,8,8,0,0,1,2.75.43,2.51,2.51,0,0,1,1.56-1.28,5.26,5.26,0,0,1,2.43,0,19.5,19.5,0,0,1,6.43,2.27,3.73,3.73,0,0,1,1.92,2.39,1.51,1.51,0,0,1-.31,1.15,12.83,12.83,0,0,1,3.84-1,1.52,1.52,0,0,1,1,.18,1.44,1.44,0,0,1,.55.87,19.57,19.57,0,0,0,4,7.25.51.51,0,0,1,0,.6.4.4,0,0,1-.14.15l.67.12a.51.51,0,0,1,.41.47l.48,7a3.68,3.68,0,0,1,0,.81.51.51,0,0,1-.51.48h0a.51.51,0,0,1-.51-.47l0-.69a4,4,0,0,0-2.15-2.52,12.94,12.94,0,0,0-4.52-1.07,26.91,26.91,0,0,0-6-.17,3.14,3.14,0,0,0-1.7.57.9.9,0,0,0-.31.66.44.44,0,0,0,.14.34,2.06,2.06,0,0,0,1.34.16,23.23,23.23,0,0,1,13,2.73.49.49,0,0,1,.26.4,7.92,7.92,0,0,1-1.79,5.72.52.52,0,0,1-.66.11.5.5,0,0,1-.21-.63c.49-1.25-.47-2.64-1.62-3.31a11.38,11.38,0,0,0-4.61-1.08c-.24,0-.86-.09-1.06.15s0,.61.26.92c1.88,2.67,5.18,4.06,9,5.48a.52.52,0,0,1,.32.37.49.49,0,0,1-.13.46c-2.37,2.44-3.14,4.26-2.4,5.72a.52.52,0,0,1-.08.57.51.51,0,0,1-.55.15,8.47,8.47,0,0,0-6,.21c-.38.16-.75.35-1.11.53a6.76,6.76,0,0,1-3.48,1,4.71,4.71,0,0,1-4.07-3.78,12.23,12.23,0,0,1,0-4.31c0-.32.08-.64.11-1a7.42,7.42,0,0,0-.45-4.08c-1.89,2.09-1.69,5.32-1.35,8.21l.83,6.87a.51.51,0,0,1-.23.49.48.48,0,0,1-.28.08m-5.81-20.11a1.63,1.63,0,0,1,.9.23,1.6,1.6,0,0,1,.65,1.32c.09,1.73-.83,3.22-1.71,4.67-.23.36-.45.72-.66,1.09a13.34,13.34,0,0,0-1.49,9,1,1,0,0,0,.19.49,1.41,1.41,0,0,0,.71.13A15.83,15.83,0,0,1,99,211.49l-.7-5.88c-.43-3.6-.47-7.25,2.12-9.53a.51.51,0,0,1,.39-.12.47.47,0,0,1,.36.21,7.54,7.54,0,0,1,1,5.3l-.12,1a11.54,11.54,0,0,0,0,4,3.7,3.7,0,0,0,3.13,3,6,6,0,0,0,3-.94c.39-.2.78-.39,1.18-.56a9.53,9.53,0,0,1,5.8-.51c-.34-1.94,1-3.87,2.37-5.34-3.08-1.17-6.68-2.67-8.74-5.58a1.72,1.72,0,0,1-.2-2.17,2.11,2.11,0,0,1,1.94-.51,12.3,12.3,0,0,1,5,1.21,4.68,4.68,0,0,1,2.12,2.59,6.84,6.84,0,0,0,.66-3.23A22.33,22.33,0,0,0,106,191.88a2.74,2.74,0,0,1-2.09-.41,1.47,1.47,0,0,1-.49-1.11,2,2,0,0,1,.65-1.43,4,4,0,0,1,2.26-.82,27.7,27.7,0,0,1,6.23.18,13.51,13.51,0,0,1,4.88,1.17,5.85,5.85,0,0,1,1.52,1.13l-.29-4.35a36.6,36.6,0,0,0-14.63.35,4.1,4.1,0,0,1-1.91.13,1.79,1.79,0,0,1-1.12-.82,1.24,1.24,0,0,1-.12-1,1.88,1.88,0,0,1,1-1,11,11,0,0,1,5-1,43.77,43.77,0,0,1,10.1,1,20.39,20.39,0,0,1-3.24-6.45.76.76,0,0,0-.13-.3s-.09,0-.33,0c-2.63.21-4.91,1.48-7.32,2.83a27.12,27.12,0,0,1-5.62,2.6,2.5,2.5,0,0,1-2.1-.26,1,1,0,0,1-.4-.9,1.67,1.67,0,0,1,.84-1.18,19.41,19.41,0,0,1,8.51-3.29,2.35,2.35,0,0,0,1.29-.39.5.5,0,0,0,.17-.48,2.78,2.78,0,0,0-1.4-1.63,18.57,18.57,0,0,0-6.1-2.15,4.37,4.37,0,0,0-2,0,1.28,1.28,0,0,0-1,1,.49.49,0,0,1-.24.42.51.51,0,0,1-.48,0,6.7,6.7,0,0,0-2.59-.57,4.42,4.42,0,0,0-.19,2.11,6.59,6.59,0,0,1-.13,2.25,7,7,0,0,1-1.27,2.17c-.63.85-1.23,1.65-1.09,2.49a4.12,4.12,0,0,0,.13.47,3.74,3.74,0,0,1,.19.93,1.52,1.52,0,0,1-.51,1.13,1.14,1.14,0,0,1-.41.24.5.5,0,0,1-.69,0c-1.89-1.67-4.6-2.35-7.24-2.84s-5.82-.81-8.14.6-3.15,3.94-4,6.68c-.5,1.67-1.06,3.56-.54,5.27a3.74,3.74,0,0,0,1.84,2.15,2.75,2.75,0,0,0,1.62.33,7.76,7.76,0,0,1,2.35-7.25,9,9,0,0,1,8.32-2,.51.51,0,0,1,.15.92,16,16,0,0,1-3.7,1.6c-1.85.62-3.6,1.2-4.54,2.59s-.82,3.55.56,6.27a9.38,9.38,0,0,0,3.3,0c-.35-2.12-.5-4.45,1-6.16,1.65-1.91,4.5-2.13,7.05-2.2a.54.54,0,0,1,.47.3.5.5,0,0,1-.07.55l-8,9.25A19.72,19.72,0,0,1,86,206.38a37,37,0,0,1,1.83-7.82c.72-2.06,2.43-5.54,5.77-5.73h.19m-6-.74c-2,.12-4,.47-5.12,1.8s-1.08,3.18-.78,5.05Zm19.88-8.14h-.78a10,10,0,0,0-4.53.87c-.28.14-.44.28-.48.4a.2.2,0,0,0,0,.17.8.8,0,0,0,.47.34,3.14,3.14,0,0,0,1.4-.13,38,38,0,0,1,12.88-.7,43,43,0,0,0-9-1m-.09-6-.22,0a18.35,18.35,0,0,0-8.11,3.12c-.34.24-.4.35-.4.4s.62.28,1.2.11a26.17,26.17,0,0,0,5.4-2.5c.7-.39,1.41-.79,2.13-1.16"/><path class="cls-10" d="M93.77,187.74c-.32-.64-1.22-1-1.44-1.69a4.13,4.13,0,0,1,.13-1.35c1.43,1.84,2.5,3.75,4.48,5.24a19.75,19.75,0,0,1,3.26,2.59c1,1.16,1.48,2.65,2.43,3.85,1.88,2.38,5.39,3.42,7,6a3.19,3.19,0,0,1-2.06-1.13Q101,195,94.65,188.57"/><path class="cls-10" d="M98.65,194.23a4.35,4.35,0,0,0-2.25,2,12.49,12.49,0,0,0-1.22,3.25h0a17.49,17.49,0,0,0-.36,5.38,7.34,7.34,0,0,0,1-2.55c.19-.92.32-1.91.52-2.92a17.64,17.64,0,0,1,2.34-5.19"/><path class="cls-10" d="M101.08,193.33a15.83,15.83,0,0,0,2.88-.08c1.06-.08,2.2-.18,3.35-.17h0a24,24,0,0,1,5.23.54,6.72,6.72,0,0,0-2.49-.88,14.27,14.27,0,0,0-3.1-.17,24.13,24.13,0,0,0-5.88.77"/><path class="cls-10" d="M97.4,190.1c1.21-.31,2.58-.81,4.11-1.28a33.22,33.22,0,0,1,4.93-1.16h0a27.17,27.17,0,0,1,8-.06,12.23,12.23,0,0,0-3.89-.74,20.92,20.92,0,0,0-4.67.38,27,27,0,0,0-8.43,2.87"/><path class="cls-10" d="M94.19,184l-.5.09-.25.06.17-.14a19.69,19.69,0,0,0,3.25-4h0c.9-1.33,1.81-2.66,2.69-4a14.07,14.07,0,0,0-3.31,4c-.95,1.3-1.84,2.66-2.76,3.95l-.55.77.84-.46.42-.23"/><path class="cls-10" d="M94.72,186.17a40.92,40.92,0,0,0,4.32-1.7c1.58-.7,3.3-1.46,5.06-2.13h0a68.3,68.3,0,0,1,8.22-2.64,27.26,27.26,0,0,0-9,2.37,67.3,67.3,0,0,0-8.65,4.11"/><path class="cls-10" d="M91.26,186.44a29.36,29.36,0,0,1-4.2.12c-1.56-.05-3.26-.22-5-.29h0a17.7,17.7,0,0,0-4,.27,8.34,8.34,0,0,0-3.6,1.57A11.94,11.94,0,0,1,78.1,187a23.2,23.2,0,0,1,4.47-.23c1.44.1,2.9.23,4.36.24a14.33,14.33,0,0,0,4.33-.53"/><path class="cls-10" d="M91.08,185.65a22.66,22.66,0,0,1-3.78-.85c-1.38-.42-2.85-1-4.41-1.41h0a10.38,10.38,0,0,0-3.68-.37,6.62,6.62,0,0,0-1.81.42,5,5,0,0,0-1.55,1,7.27,7.27,0,0,1,3.34-1,12.59,12.59,0,0,1,4,.51c1.27.38,2.53.86,3.83,1.21a11.6,11.6,0,0,0,4,.49"/><path class="cls-10" d="M94.9,189.85a6.66,6.66,0,0,0-2.74,1.07,14.62,14.62,0,0,0-2.68,2.24h0a17.12,17.12,0,0,0-3.06,4.46,21.91,21.91,0,0,0,1.72-2c.6-.75,1.24-1.56,2-2.33a18.06,18.06,0,0,1,4.78-3.41"/><g class="cls-13"><g class="cls-14"><path class="cls-6" d="M102.87,219.68a197.91,197.91,0,0,0-22.59,0,22,22,0,0,0-4.65.61v18.56l31.16-1.44V220.24a16.22,16.22,0,0,0-3.92-.56"/></g></g><g class="cls-13"><g class="cls-15"><path class="cls-6" d="M102.87,219.68a197.91,197.91,0,0,0-22.59,0,22,22,0,0,0-4.65.61v.37a18.59,18.59,0,0,0,4.13.55,197.22,197.22,0,0,0,22,0,21.29,21.29,0,0,0,5-.65v-.32a16.22,16.22,0,0,0-3.92-.56"/></g></g><path class="cls-5" d="M75.63,239.53a.68.68,0,0,1-.68-.68V208.09a.52.52,0,0,1,0-.25.68.68,0,0,1,1.34.2v30.09l29.79-1.38V213.93a.88.88,0,0,1,0-.17l0-1.76a.69.69,0,0,1,.68-.67h0a.68.68,0,0,1,.67.68v25.4a.68.68,0,0,1-.65.68l-31.15,1.44h0"/><polygon class="cls-4" points="101.87 237.15 133.67 238.79 133.67 364.97 101.87 368.47 101.87 237.15"/><path class="cls-5" d="M101.87,369.15a.7.7,0,0,1-.45-.17.71.71,0,0,1-.23-.51V237.15a.68.68,0,0,1,.22-.49.66.66,0,0,1,.5-.19l31.79,1.64a.68.68,0,0,1,.65.68V365a.68.68,0,0,1-.61.67L102,369.15h-.08m.69-131.28V367.71L133,364.35V239.44Z"/><polygon class="cls-4" points="9.02 241.5 101.87 237.15 101.87 368.47 9.02 359.18 9.02 241.5"/><path class="cls-5" d="M101.87,369.15h-.06L9,359.86a.69.69,0,0,1-.62-.68V241.5a.69.69,0,0,1,.65-.69l92.86-4.34a.74.74,0,0,1,.51.18.71.71,0,0,1,.21.5V368.47a.71.71,0,0,1-.23.51.69.69,0,0,1-.46.17M9.7,358.56l91.49,9.16V237.86L9.7,242.15Z"/><polygon class="cls-4" points="101.87 280.88 9.02 280.69 9.02 241.5 101.87 237.15 101.87 280.88"/><path class="cls-5" d="M101.87,281.56h0L9,281.37a.69.69,0,0,1-.68-.68V241.5a.69.69,0,0,1,.65-.69l92.86-4.34a.74.74,0,0,1,.51.18.71.71,0,0,1,.21.5v43.73a.72.72,0,0,1-.2.48.68.68,0,0,1-.49.2M9.7,280l91.49.19V237.86L9.7,242.15Z"/><polygon class="cls-4" points="101.87 324.78 9.02 320.03 9.02 280.69 101.87 280.88 101.87 324.78"/><path class="cls-5" d="M101.87,325.46h0L9,320.71a.69.69,0,0,1-.65-.68V280.69A.68.68,0,0,1,9,280H9l92.86.2a.68.68,0,0,1,.68.68v43.9a.68.68,0,0,1-.22.5.66.66,0,0,1-.47.18M9.7,319.38l91.49,4.68v-42.5L9.7,281.37Z"/><path class="cls-5" d="M53.42,281.37a.69.69,0,0,1-.68-.68V239.42a.69.69,0,1,1,1.37,0v41.27a.69.69,0,0,1-.69.68"/><path class="cls-4" d="M32.54,253.74c0,1.45-.8,2.64-1.79,2.67S29,255.29,29,253.85s.8-2.64,1.78-2.67,1.79,1.11,1.79,2.56"/><path class="cls-5" d="M30.72,256.92a1.85,1.85,0,0,1-1.33-.57,3.54,3.54,0,0,1-.93-2.5c0-1.74,1-3.14,2.27-3.18a1.89,1.89,0,0,1,1.38.56,3.53,3.53,0,0,1,.94,2.51c0,1.75-1,3.15-2.29,3.18h0m.07-5.23h0c-.7,0-1.29,1-1.29,2.16a2.5,2.5,0,0,0,.62,1.77.91.91,0,0,0,.64.28c.7,0,1.29-1,1.29-2.16A2.5,2.5,0,0,0,31.4,252a.84.84,0,0,0-.61-.28"/><path class="cls-4" d="M55.23,294.63c0,1.49-.85,2.68-1.89,2.65s-1.88-1.24-1.88-2.72.84-2.67,1.88-2.65,1.89,1.23,1.89,2.72"/><path class="cls-5" d="M53.37,297.79h0c-1.33,0-2.37-1.45-2.37-3.23A3.56,3.56,0,0,1,51.9,292a1.85,1.85,0,0,1,1.44-.61c1.35,0,2.4,1.44,2.4,3.23a3.58,3.58,0,0,1-1,2.56,2,2,0,0,1-1.41.6m0-5.37a1,1,0,0,0-.7.32,2.57,2.57,0,0,0-.65,1.82c0,1.18.63,2.19,1.38,2.21a1.1,1.1,0,0,0,.71-.32,2.57,2.57,0,0,0,.65-1.82c0-1.19-.63-2.2-1.38-2.21Z"/><path class="cls-4" d="M55.23,336c0,1.49-.85,2.64-1.89,2.56s-1.88-1.33-1.88-2.81.84-2.63,1.88-2.56,1.89,1.33,1.89,2.81"/><path class="cls-5" d="M53.43,339H53.3C52,338.93,51,337.47,51,335.7a3.45,3.45,0,0,1,1-2.52,1.94,1.94,0,0,1,1.46-.55c1.33.08,2.37,1.54,2.37,3.32a3.48,3.48,0,0,1-1,2.53,2,2,0,0,1-1.34.55m-.18-5.38a.91.91,0,0,0-.64.28A2.46,2.46,0,0,0,52,335.7c0,1.19.64,2.25,1.4,2.3a.88.88,0,0,0,.7-.27,2.47,2.47,0,0,0,.64-1.78c0-1.2-.64-2.25-1.41-2.3h0"/><path class="cls-4" d="M77.22,252.37c0,1.53-.89,2.79-2,2.82s-2-1.18-2-2.7.88-2.78,2-2.82,2,1.17,2,2.7"/><path class="cls-5" d="M75.19,255.7a2.12,2.12,0,0,1-1.47-.63,3.61,3.61,0,0,1-1-2.58c0-1.82,1.08-3.28,2.47-3.33a2.08,2.08,0,0,1,1.53.63,3.54,3.54,0,0,1,1,2.58c0,1.83-1.09,3.29-2.48,3.33h-.06m.09-5.52h0c-.8,0-1.48,1.08-1.48,2.3a2.61,2.61,0,0,0,.67,1.85,1.21,1.21,0,0,0,.78.34c.81,0,1.49-1.08,1.49-2.31a2.61,2.61,0,0,0-.67-1.85,1.13,1.13,0,0,0-.76-.34"/><path class="cls-5" d="M133.73,117.86a1.4,1.4,0,0,1-1-.37,1.7,1.7,0,0,1-.52-1.24,1.74,1.74,0,0,1,1.46-1.77L429.29,62a.7.7,0,0,1,.56.15.66.66,0,0,1,.24.52v2.37a.68.68,0,0,1-.56.67L133.9,117.85h-.17m295-54.36L133.9,115.83h-.05c-.11,0-.26.17-.26.41a.29.29,0,0,0,.08.23l295.06-52Zm-295,51.66h0Z"/><path class="cls-5" d="M429.34,65.74a1.39,1.39,0,0,1-.9-.35,2,2,0,0,1,.89-3.38,1.31,1.31,0,0,1,1.06.34,1.87,1.87,0,0,1,.58,1.41,1.89,1.89,0,0,1-1.48,2h-.15m.13-2.38a.74.74,0,0,0-.25.61.51.51,0,0,0,.14.41.82.82,0,0,0,.25-.62.49.49,0,0,0-.14-.4"/><path class="cls-4" d="M137.91,111.13V368.27c1.53,9.22,73.83,1.09,116.82,22.1,16-45.61,18.48-262.22,18.48-274.87V88.72a27.81,27.81,0,0,1-4.45-1.18"/><path class="cls-5" d="M254.73,391.05a.6.6,0,0,1-.3-.07c-25.05-12.24-59.87-14.52-85.3-16.2-21-1.38-31.2-2.23-31.9-6.4V111.13a.68.68,0,1,1,1.36,0V368.2c.68,3.26,14.56,4.17,30.63,5.22,25.31,1.67,59.88,3.94,85.11,16,16.26-48.65,18.2-271.71,18.2-273.92V89.28a23.29,23.29,0,0,1-4.1-1.14.69.69,0,0,1-.27-.93.68.68,0,0,1,.92-.27,25.53,25.53,0,0,0,4.26,1.11.68.68,0,0,1,.55.67V115.5c0,2.22-2,227.78-18.52,275.1a.65.65,0,0,1-.38.4.63.63,0,0,1-.26.05"/><path class="cls-4" d="M159.13,106.33c-4.16.82-5-1.89-12-.81s-9.08,3-9.24,4.51v23.6"/><path class="cls-5" d="M137.91,134.31a.68.68,0,0,1-.68-.68V110c.26-2.5,3.56-4.22,9.82-5.19a16,16,0,0,1,7.83.46,7.86,7.86,0,0,0,4.12.35.68.68,0,0,1,.8.54.69.69,0,0,1-.54.8,9.16,9.16,0,0,1-4.75-.38,14.67,14.67,0,0,0-7.25-.42c-7.79,1.21-8.61,3.3-8.68,3.91v23.52a.69.69,0,0,1-.68.68"/><path class="cls-5" d="M154.35,116.35a2,2,0,0,1-.34,0c-1.15-.26-2-1.7-2-3.36a3,3,0,0,1,.94-2.38,1.59,1.59,0,0,1,1.37-.32c1.14.25,2,1.7,2,3.35a3,3,0,0,1-.94,2.37,1.56,1.56,0,0,1-1,.37m-.4-4.77a.24.24,0,0,0-.17.07,1.75,1.75,0,0,0-.42,1.31c0,1.11.55,1.94.94,2,.06,0,.12,0,.22-.06a1.75,1.75,0,0,0,.42-1.31c0-1.11-.55-1.94-.94-2H154"/><path class="cls-4" d="M161.12,110l-8.06,1.43a3,3,0,0,0-.35,2.24l8.92-1.57"/><path class="cls-5" d="M152.71,114.39a.7.7,0,0,1-.41-.14.71.71,0,0,1-.27-.47,3.54,3.54,0,0,1,.52-2.76.68.68,0,0,1,.39-.23l8.06-1.43a.68.68,0,0,1,.24,1.34l-7.74,1.38a2.43,2.43,0,0,0-.14.82l8.15-1.44a.68.68,0,1,1,.24,1.34l-8.92,1.58h-.12"/><path class="cls-4" d="M180.36,102.62c-4.16.82-5-1.89-12-.81s-9.08,3-9.25,4.52v19.14"/><path class="cls-5" d="M159.13,126.15a.68.68,0,0,1-.68-.68V106.33c.26-2.49,3.57-4.22,9.82-5.19a16.17,16.17,0,0,1,7.84.46,7.85,7.85,0,0,0,4.12.35.68.68,0,1,1,.26,1.34,9.13,9.13,0,0,1-4.75-.38,14.71,14.71,0,0,0-7.26-.42c-7.79,1.21-8.6,3.3-8.67,3.91v19.07a.67.67,0,0,1-.68.68"/><path class="cls-5" d="M175.58,112.65a2.09,2.09,0,0,1-.35,0c-1.15-.25-2-1.7-2-3.36a3,3,0,0,1,.94-2.37,1.59,1.59,0,0,1,1.37-.33c1.14.25,2,1.7,2,3.35a3,3,0,0,1-.93,2.38,1.64,1.64,0,0,1-1,.37m-.41-4.78a.27.27,0,0,0-.16.07,1.7,1.7,0,0,0-.43,1.31,2.18,2.18,0,0,0,.94,2,.24.24,0,0,0,.22-.07,1.68,1.68,0,0,0,.43-1.31,2.17,2.17,0,0,0-.94-2h-.06"/><path class="cls-4" d="M182.35,106.32l-8.06,1.43a3,3,0,0,0-.35,2.25l8.92-1.58"/><path class="cls-5" d="M173.94,110.68a.68.68,0,0,1-.41-.14.67.67,0,0,1-.27-.47,3.57,3.57,0,0,1,.51-2.76.68.68,0,0,1,.4-.23l8.06-1.43a.68.68,0,0,1,.79.55.67.67,0,0,1-.55.79l-7.75,1.38a3.08,3.08,0,0,0-.14.82l8.16-1.44a.68.68,0,0,1,.79.56.67.67,0,0,1-.55.78l-8.92,1.58h-.12"/><path class="cls-5" d="M269.74,96.15a2.21,2.21,0,0,1-.35,0c-1.14-.25-2-1.7-2-3.36a3,3,0,0,1,.94-2.37,1.59,1.59,0,0,1,1.37-.33c1.14.25,2,1.7,2,3.35a3,3,0,0,1-.93,2.38,1.64,1.64,0,0,1-1,.37m-.41-4.78a.27.27,0,0,0-.16.07,1.7,1.7,0,0,0-.43,1.31,2.18,2.18,0,0,0,.94,2,.24.24,0,0,0,.22-.07,1.68,1.68,0,0,0,.43-1.31,2.17,2.17,0,0,0-.94-2h-.06"/><path class="cls-4" d="M276.51,89.82l-8.06,1.44a3,3,0,0,0-.35,2.24L277,91.92"/><path class="cls-5" d="M268.1,94.18a.68.68,0,0,1-.41-.14.67.67,0,0,1-.27-.47,3.57,3.57,0,0,1,.51-2.76.68.68,0,0,1,.4-.23l8.06-1.43a.69.69,0,0,1,.79.55.67.67,0,0,1-.55.79l-7.74,1.38a2.64,2.64,0,0,0-.15.82l8.16-1.44a.69.69,0,0,1,.79.56.68.68,0,0,1-.55.79l-8.92,1.57h-.12"/><path class="cls-4" d="M201.58,98.91c-4.16.82-5-1.89-12-.8s-9.08,3-9.24,4.51v20.14"/><path class="cls-5" d="M180.36,123.45a.68.68,0,0,1-.68-.69V102.62c.26-2.49,3.56-4.21,9.82-5.19a16.13,16.13,0,0,1,7.83.46,7.76,7.76,0,0,0,4.12.35.68.68,0,0,1,.8.54.67.67,0,0,1-.53.8,9.19,9.19,0,0,1-4.76-.37,14.52,14.52,0,0,0-7.25-.43c-7.79,1.21-8.61,3.3-8.67,3.91v20.07a.69.69,0,0,1-.68.69"/><path class="cls-5" d="M196.8,108.94a2,2,0,0,1-.34,0c-1.15-.25-2-1.7-2-3.36a3,3,0,0,1,.94-2.37,1.6,1.6,0,0,1,1.37-.33c1.15.26,2,1.7,2,3.36a3,3,0,0,1-.94,2.37,1.62,1.62,0,0,1-1,.37m-.4-4.78a.29.29,0,0,0-.17.07,1.77,1.77,0,0,0-.42,1.31,2.18,2.18,0,0,0,.94,2,.26.26,0,0,0,.22-.06,1.77,1.77,0,0,0,.42-1.31c0-1.11-.55-1.94-.94-2h0"/><path class="cls-4" d="M203.57,102.62l-8.06,1.43a3,3,0,0,0-.35,2.24l8.92-1.57"/><path class="cls-5" d="M195.16,107a.65.65,0,0,1-.4-.14.64.64,0,0,1-.27-.46,3.53,3.53,0,0,1,.51-2.77.62.62,0,0,1,.39-.22l8.07-1.44a.68.68,0,0,1,.23,1.35L196,104.66a2.48,2.48,0,0,0-.14.82L204,104a.68.68,0,1,1,.23,1.35L195.28,107h-.12"/><path class="cls-4" d="M222.81,95.2c-4.16.82-5-1.89-12-.8s-9.08,2.95-9.25,4.51v17.44"/><path class="cls-5" d="M201.58,117a.69.69,0,0,1-.68-.69V98.91c.26-2.49,3.57-4.21,9.82-5.18a16.08,16.08,0,0,1,7.84.45,7.65,7.65,0,0,0,4.12.35.68.68,0,1,1,.26,1.34,9.14,9.14,0,0,1-4.75-.37,14.67,14.67,0,0,0-7.26-.43c-7.79,1.22-8.6,3.3-8.67,3.91v17.37a.69.69,0,0,1-.69.69"/><path class="cls-5" d="M218,105.23a1.39,1.39,0,0,1-.35,0c-1.15-.25-2-1.69-2-3.36a3,3,0,0,1,.94-2.37,1.59,1.59,0,0,1,1.37-.33c1.14.26,2,1.7,2,3.36a3,3,0,0,1-.93,2.37,1.64,1.64,0,0,1-1,.37m-.41-4.77a.26.26,0,0,0-.16.06,1.72,1.72,0,0,0-.43,1.31c0,1.11.56,2,.94,2a.26.26,0,0,0,.22-.06,1.72,1.72,0,0,0,.43-1.31,2.18,2.18,0,0,0-.94-2h-.06"/><path class="cls-4" d="M224.8,98.91l-8.06,1.43a3,3,0,0,0-.35,2.24l8.92-1.57"/><path class="cls-5" d="M216.39,103.26a.67.67,0,0,1-.41-.13.71.71,0,0,1-.27-.47,3.58,3.58,0,0,1,.51-2.77.62.62,0,0,1,.4-.22l8.06-1.43a.68.68,0,1,1,.24,1.34L217.18,101a2.72,2.72,0,0,0-.15.83l8.16-1.44a.68.68,0,0,1,.24,1.34l-8.92,1.57h-.12"/><g class="cls-16"><path class="cls-5" d="M272.55,308.06s9.66-.47,42.6-.3c56.66.31,48-55.45,106.24-46V246.25c-58.22-9.48-49.58,34.5-106.24,34.2-32.94-.18-42.6.3-42.6.3Z"/><polygon class="cls-5" points="255.34 293.37 286.74 260.84 286.74 323.28 255.34 293.37"/><path class="cls-5" d="M274.3,384s7.91-.52,40.85-6.86c56.65-10.91,48-64.45,106.23-66.5V297.22c-58.21,2-49.58,41.69-106.23,52.6-32.94,6.35-40.85,6.86-40.85,6.86Z"/><polygon class="cls-5" points="255.34 374.59 286.74 336.51 286.74 398.95 255.34 374.59"/></g><path class="cls-4" d="M421.71,95V63.34a33.25,33.25,0,0,1-5.27-1.4s-1.06-2-4.14-1.22a2.36,2.36,0,0,0-1.53,1.11h0a4.07,4.07,0,0,0-3.06-.27,2.32,2.32,0,0,0-1.47,1h0a3.9,3.9,0,0,0-2.95-.26,2.24,2.24,0,0,0-1.43,1h0a3.77,3.77,0,0,0-2.82-.22,2.19,2.19,0,0,0-1.41,1h0A3.79,3.79,0,0,0,395,64a2.1,2.1,0,0,0-1.43,1.12A3.69,3.69,0,0,0,391,65a2.21,2.21,0,0,0-1.66,2.11v25c0,15.25,2.78,113.94,6.71,135.15,1.27,6.82.08,7.76.08,7.76-5.53,60.74-7.69,154.42-7.69,155.6,0,1.38,3.64,2.6,4.57,1-.82,1.68,3.83,3,4.46,1.22.69,1.65,3.12,2.09,5.44,2.11,3.24,0,4.4-1.63,4.4-1.63s1.4,1.73,5.84,2.14c8.17.76,8.57-3.72,8.57-3.72S419,342.39,419,234.67v-9.18c0-9.15,2.72-115.49,2.72-130.45"/><path class="cls-5" d="M415,396.26c-.58,0-1.2,0-1.84-.09a11.09,11.09,0,0,1-5.75-1.88,6.29,6.29,0,0,1-4.43,1.37c-2.7,0-4.55-.58-5.52-1.67a2.47,2.47,0,0,1-1,.35,4.44,4.44,0,0,1-3.81-1.33l-.07-.11a3.86,3.86,0,0,1-2.29,0c-1.21-.33-2.44-1.16-2.44-2.28,0-.72,2.18-95.12,7.69-155.66a.68.68,0,0,1,.19-.42c.07-.11.8-1.47-.26-7.16-3.94-21.21-6.72-118.8-6.72-135.27v-25a2.86,2.86,0,0,1,2.18-2.77,4.58,4.58,0,0,1,2.38,0,2.83,2.83,0,0,1,1.54-1,4.7,4.7,0,0,1,2.61,0,2.93,2.93,0,0,1,1.48-.85,4.76,4.76,0,0,1,2.76,0,3,3,0,0,1,1.49-.85,4.8,4.8,0,0,1,2.9.07,3.07,3.07,0,0,1,1.52-.86,5,5,0,0,1,3,.08,3.21,3.21,0,0,1,1.59-.92c3-.73,4.36.78,4.77,1.35a33.92,33.92,0,0,0,4.93,1.26.69.69,0,0,1,.55.67V95c0,8.15-.83,43.83-1.56,75.3-.6,26.22-1.18,51-1.16,55.15,0,2.33,0,9.18,0,9.18,0,106.46,2.73,156.57,2.76,157.06v.1a4.42,4.42,0,0,1-1.62,2.75,9,9,0,0,1-5.85,1.68m-7.62-3.59a.69.69,0,0,1,.53.25s1.34,1.52,5.37,1.89c7,.65,7.75-2.63,7.82-3.06-.11-2.09-2.76-52.31-2.76-157.08,0,0,0-6.84,0-9.17,0-4.18.56-29,1.17-55.19C420.2,138.84,421,103.18,421,95V63.9a26.65,26.65,0,0,1-4.92-1.36.61.61,0,0,1-.27-.28s-.89-1.49-3.37-.87a1.67,1.67,0,0,0-1.12.79.68.68,0,0,1-.93.24,3.4,3.4,0,0,0-2.54-.2,1.63,1.63,0,0,0-1.06.74.69.69,0,0,1-.92.24,3.24,3.24,0,0,0-2.44-.19,1.58,1.58,0,0,0-1,.72.69.69,0,0,1-.91.25,3.14,3.14,0,0,0-2.32-.16,1.47,1.47,0,0,0-1,.71.68.68,0,0,1-.9.26,3.15,3.15,0,0,0-2.2-.13,1.4,1.4,0,0,0-1,.77.69.69,0,0,1-.9.31,3,3,0,0,0-2.05-.09,1.5,1.5,0,0,0-1.13,1.45v25c0,16.45,2.77,113.89,6.69,135,1,5.5.52,7.46.07,8.15-5.49,60.5-7.66,154.62-7.67,155.33,0,.2.5.71,1.44,1,.73.2,1.58.19,1.86-.29a.68.68,0,0,1,1.2.65c0,.06-.06.12,0,.26a3.18,3.18,0,0,0,2.51.78c.21,0,.57-.11.66-.35a.65.65,0,0,1,.62-.45.68.68,0,0,1,.65.41c.57,1.37,2.94,1.68,4.82,1.7,2.79,0,3.79-1.29,3.83-1.35a.72.72,0,0,1,.54-.28ZM395.73,234.5h0m0,0Z"/><path class="cls-4" d="M393.25,86.38V66.17a2.59,2.59,0,0,1,.21-.92"/><path class="cls-5" d="M393.25,87.06a.69.69,0,0,1-.68-.68V66.17a3.17,3.17,0,0,1,.26-1.19.69.69,0,0,1,1.26.54,2,2,0,0,0-.16.65V86.38a.68.68,0,0,1-.68.68"/><path class="cls-4" d="M397.29,85.8V65.39a2.57,2.57,0,0,1,.34-1.21"/><path class="cls-5" d="M397.29,86.48a.68.68,0,0,1-.68-.68V65.39a3.13,3.13,0,0,1,.43-1.55.68.68,0,0,1,1.18.69,2,2,0,0,0-.25.87V85.8a.69.69,0,0,1-.68.68"/><path class="cls-4" d="M401.48,85.1V64.65a2.69,2.69,0,0,1,.38-1.27"/><path class="cls-5" d="M401.48,85.79a.69.69,0,0,1-.68-.69V64.65a3.37,3.37,0,0,1,.47-1.62.68.68,0,0,1,1.17.7,2,2,0,0,0-.28.92V85.1a.68.68,0,0,1-.68.69"/><path class="cls-4" d="M405.85,84.43V63.93a2.68,2.68,0,0,1,.39-1.32"/><path class="cls-5" d="M405.85,85.11a.68.68,0,0,1-.69-.68V63.93a3.43,3.43,0,0,1,.5-1.68.68.68,0,0,1,.94-.22.67.67,0,0,1,.22.93,2.13,2.13,0,0,0-.29,1v20.5a.68.68,0,0,1-.68.68"/><path class="cls-4" d="M410.76,61.83a3,3,0,0,0-.38,1.34V83.7"/><path class="cls-5" d="M410.38,84.38a.67.67,0,0,1-.68-.68V63.17a3.52,3.52,0,0,1,.48-1.68.68.68,0,1,1,1.17.69,2.22,2.22,0,0,0-.29,1V83.7a.67.67,0,0,1-.68.68"/><path class="cls-5" d="M417.6,71.14a1.64,1.64,0,0,1-.38,0c-1.28-.28-2.29-2-2.29-3.85A3.45,3.45,0,0,1,416,64.54a1.74,1.74,0,0,1,1.51-.36c1.3.29,2.28,1.94,2.28,3.85a3.49,3.49,0,0,1-1.06,2.71,1.78,1.78,0,0,1-1.13.4m-.48-5.64a.41.41,0,0,0-.27.1,2.19,2.19,0,0,0-.55,1.65c0,1.29.64,2.4,1.21,2.52a.37.37,0,0,0,.36-.1,2.1,2.1,0,0,0,.56-1.64c0-1.29-.64-2.39-1.21-2.52h-.1"/><path class="cls-4" d="M424.41,63.57,416.59,65s-1,.51-1,2.52l8.91-1.57"/><path class="cls-5" d="M415.63,68.16a.68.68,0,0,1-.43-.15.74.74,0,0,1-.25-.51c-.05-2.38,1.19-3.08,1.34-3.15a.64.64,0,0,1,.18-.06l7.82-1.39a.68.68,0,0,1,.24,1.34l-7.67,1.36a1.75,1.75,0,0,0-.49,1.06l8.05-1.42a.68.68,0,0,1,.24,1.34l-8.91,1.57h-.12"/><path class="cls-5" d="M407.34,393.17h-.06a.68.68,0,0,1-.62-.74c0-.23,2-23.47,3.74-72.22.71-19.74,1.46-44,1.47-44.26a.68.68,0,0,1,1.36,0c0,.25-.76,24.52-1.47,44.27C410,369.05,408,392.32,408,392.55a.68.68,0,0,1-.68.62"/><path class="cls-5" d="M397.5,392.69h-.06a.68.68,0,0,1-.62-.74c.46-5.48.87-10,1.24-14,.91-10,1.63-17.85,2.39-33.19a.67.67,0,0,1,.72-.65.68.68,0,0,1,.64.72c-.76,15.36-1.48,23.25-2.4,33.24-.36,4-.78,8.54-1.23,14a.69.69,0,0,1-.68.63"/><path class="cls-5" d="M394.19,371h0a.67.67,0,0,1-.66-.7c1-30.31,1.46-44.71,3.41-68.54a.67.67,0,0,1,.73-.62.68.68,0,0,1,.63.73c-1.95,23.79-2.45,38.19-3.41,68.47a.68.68,0,0,1-.68.66"/><path class="cls-4" d="M396.16,234.17S394.62,298,385,340.3c-6.48,28.52-19.82,45.83-19.82,45.83s10.88,1.36,9.26,5.1c-1.32,3,0,5.12,4.53,6.55,6.95,2.19,10.19-.36,10.19-.36s1.54,2,7.43,2.57c6.95.65,7.4-1.79,7.71-4.24,2.87-.43,2.47-.38,2.47-.38s1.26,1,4.41,1.08a5.6,5.6,0,0,0,4.51-1.75,4.89,4.89,0,0,0,4.28.51c2.48-.83,1.76-4.3,1.76-4.3s-2.36-73-2.55-106.54-.21-49.7-.21-49.7l-12.75-7.73Z"/><path class="cls-5" d="M398.66,400.78c-.64,0-1.34,0-2.12-.11-4.53-.42-6.62-1.69-7.45-2.38-1.22.66-4.58,1.95-10.31.14-2.78-.88-4.46-2-5.14-3.52a4.72,4.72,0,0,1,.19-4,1,1,0,0,0,0-1c-.94-1.64-5.82-2.82-8.68-3.18a.66.66,0,0,1-.54-.41.69.69,0,0,1,.08-.68c.14-.17,13.33-17.53,19.69-45.57,9.48-41.75,11.11-105.35,11.12-106a.67.67,0,0,1,.29-.54l10.08-7.23a.68.68,0,0,1,.75,0l12.75,7.72a.71.71,0,0,1,.33.59c0,.16,0,16.56.21,49.7.18,32.73,2.47,104.06,2.55,106.46.28,1.43.16,4.23-2.23,5a5.66,5.66,0,0,1-4.38-.3,6.52,6.52,0,0,1-4.63,1.57,8.77,8.77,0,0,1-4.58-1.06c-.39.08-.93.17-1.69.28-.38,2.4-1.37,4.43-6.26,4.43m-9.48-4h.09a.67.67,0,0,1,.45.26s1.53,1.8,6.95,2.3c6.43.6,6.69-1.46,7-3.64a.67.67,0,0,1,.57-.59l2.43-.37h.06a.68.68,0,0,1,.58.19,7.67,7.67,0,0,0,3.93.88h.09a4.92,4.92,0,0,0,3.87-1.49.69.69,0,0,1,.95-.13,4.17,4.17,0,0,0,3.65.42c1.88-.63,1.34-3.4,1.31-3.52a.49.49,0,0,1,0-.12c0-.73-2.37-73.41-2.56-106.56-.17-30.36-.2-46.67-.2-49.32l-12-7.29-9.44,6.77c-.14,5.1-2,65.62-11.15,105.92-5.6,24.68-16.46,41.2-19.26,45.17,2.32.39,7.29,1.46,8.56,3.68a2.37,2.37,0,0,1,.1,2.2,3.43,3.43,0,0,0-.2,2.85c.51,1.12,1.92,2,4.31,2.78,6.47,2,9.54-.22,9.57-.24a.66.66,0,0,1,.42-.15"/><path class="cls-4" d="M396.08,226.41c10.73-4.49,22.91-.81,22.91-.81v8.21s-11.49-2.66-22.83.36Z"/><path class="cls-5" d="M396.16,234.85a.65.65,0,0,1-.42-.14.68.68,0,0,1-.27-.53l-.07-7.76a.69.69,0,0,1,.42-.64c10.83-4.53,22.86-1,23.36-.83a.68.68,0,0,1,.49.65v8.21a.68.68,0,0,1-.26.53.67.67,0,0,1-.58.13c-.11,0-11.46-2.58-22.5.36a.52.52,0,0,1-.17,0m.61-8,.06,6.43A53.63,53.63,0,0,1,418.3,233v-6.85c-2.31-.59-12.45-2.85-21.53.75"/><path class="cls-5" d="M374.46,391.91a.8.8,0,0,1-.26-.05.69.69,0,0,1-.38-.89,272.86,272.86,0,0,0,19.69-84,.68.68,0,1,1,1.36.11,274.26,274.26,0,0,1-19.78,84.35.68.68,0,0,1-.63.43"/><path class="cls-5" d="M404.32,396.43h-.06a.67.67,0,0,1-.62-.73c0-.17,1.27-17.3,2.1-45.82a.69.69,0,0,1,.68-.67h0a.7.7,0,0,1,.67.71c-.83,28.55-2.1,45.71-2.11,45.88a.69.69,0,0,1-.68.63"/><path class="cls-5" d="M389.18,398.11a.66.66,0,0,1-.33-.09.68.68,0,0,1-.26-.93c0-.07,3.94-7.18,7.34-26.84a.68.68,0,1,1,1.35.23c-3.46,19.95-7.34,27-7.5,27.28a.7.7,0,0,1-.6.35"/><path class="cls-5" d="M415.71,395.38h0a.68.68,0,0,1-.66-.7c0-.13.28-13.9,0-37a.67.67,0,0,1,.67-.69h0a.68.68,0,0,1,.68.67c.29,23.17,0,37,0,37.09a.68.68,0,0,1-.68.67"/><path class="cls-4" d="M244,91.5c-4.15.81-5-1.9-12-.81s-9.07,3-9.24,4.51V113"/><path class="cls-5" d="M222.81,113.65a.68.68,0,0,1-.68-.68V95.2c.26-2.49,3.56-4.21,9.82-5.18a15.94,15.94,0,0,1,7.84.46,7.81,7.81,0,0,0,4.11.35.68.68,0,1,1,.27,1.33,9.09,9.09,0,0,1-4.76-.37,14.76,14.76,0,0,0-7.25-.43c-7.79,1.22-8.61,3.3-8.67,3.92V113a.68.68,0,0,1-.68.68"/><path class="cls-5" d="M239.26,101.52a1.39,1.39,0,0,1-.35,0c-1.15-.25-2-1.69-2-3.35a3,3,0,0,1,.93-2.38,1.63,1.63,0,0,1,1.37-.33c1.15.26,2,1.7,2,3.36a3,3,0,0,1-.94,2.37,1.61,1.61,0,0,1-1,.37m-.41-4.77a.21.21,0,0,0-.16.07,1.68,1.68,0,0,0-.43,1.31c0,1.11.56,1.94.94,2a.23.23,0,0,0,.22-.06,1.72,1.72,0,0,0,.43-1.31,2.18,2.18,0,0,0-.94-2h-.06"/><path class="cls-4" d="M246,95.2,238,96.63a3,3,0,0,0-.35,2.24l8.92-1.57"/><path class="cls-5" d="M237.61,99.55a.66.66,0,0,1-.4-.13.67.67,0,0,1-.27-.47,3.6,3.6,0,0,1,.51-2.77.73.73,0,0,1,.39-.22l8.07-1.43a.68.68,0,1,1,.23,1.34l-7.74,1.38a3.08,3.08,0,0,0-.14.82l8.16-1.44a.68.68,0,0,1,.79.55.69.69,0,0,1-.56.79l-8.92,1.57h-.12"/><path class="cls-4" d="M268.76,87.54c-3.52-1.61-7.82-1.72-14.79-.63s-9.77,3-9.94,4.58v18.09"/><path class="cls-5" d="M244,110.26a.69.69,0,0,1-.68-.68V91.5c.25-2.37,4.08-4.26,10.52-5.27,7.33-1.14,11.59-1,15.17.69a.69.69,0,0,1,.34.9.7.7,0,0,1-.91.34c-3.31-1.51-7.35-1.68-14.39-.58s-9.27,3-9.37,4v18a.69.69,0,0,1-.69.68"/><path class="cls-4" d="M244,147c0,22.56,2.5,95.95-2,188.81"/><path class="cls-5" d="M242.06,336.51h0a.7.7,0,0,1-.65-.72c3.62-74.88,2.69-136.9,2.2-170.21-.12-7.93-.22-14.19-.22-18.56a.69.69,0,0,1,1.37,0c0,4.36.09,10.62.21,18.54.5,33.33,1.42,95.37-2.19,170.3a.68.68,0,0,1-.68.65"/><path class="cls-5" d="M222.81,205.58a.68.68,0,0,1-.68-.69v-67.7a.68.68,0,0,1,1.36,0v67.7a.68.68,0,0,1-.68.69"/><path class="cls-5" d="M201.58,149.27a.69.69,0,0,1-.68-.68V116.35a.69.69,0,0,1,1.37,0v32.24a.69.69,0,0,1-.69.68"/><g class="cls-17"><path class="cls-18" d="M418.33,397a2.24,2.24,0,0,0-2.23-2.19h0a4.81,4.81,0,0,1-1.85,2.4,23.71,23.71,0,0,1-5.54,1.71h0a7.47,7.47,0,0,0-2.48-5.43,8.44,8.44,0,0,0-4.76-2.22,14.3,14.3,0,0,0-4.48,0c-6.13,2.82-9.35,4.46-8.77,10.05.35,3.36,6.71,4.3,9.76,3.93s7.29-1.93,13-3.68,7.54-2.38,7.33-4.6"/><path class="cls-5" d="M396.58,406c-2.41,0-5.65-.56-7.53-2.06a3.73,3.73,0,0,1-1.51-2.56c-.65-6.23,3.26-8,9.17-10.73a.44.44,0,0,1,.15-.05,14.7,14.7,0,0,1,4.72-.05,9.17,9.17,0,0,1,5.13,2.41,8.69,8.69,0,0,1,2.63,5.08,17.64,17.64,0,0,0,4.55-1.45,4.1,4.1,0,0,0,1.57-2.07.7.7,0,0,1,.63-.44h0a2.93,2.93,0,0,1,2.9,2.82c.27,2.84-2.1,3.56-7.81,5.31l-4.06,1.28a58.27,58.27,0,0,1-9.07,2.43,13.4,13.4,0,0,1-1.49.08m.62-14.08c-6.14,2.82-8.83,4.29-8.31,9.32a2.43,2.43,0,0,0,1,1.63c1.9,1.51,5.87,1.95,8,1.69a56.34,56.34,0,0,0,8.82-2.37c1.27-.41,2.63-.84,4.08-1.28,5.78-1.77,7-2.3,6.86-3.88a1.56,1.56,0,0,0-1.14-1.52,5.27,5.27,0,0,1-1.9,2.24,22.93,22.93,0,0,1-5.76,1.8.69.69,0,0,1-.8-.45.74.74,0,0,1,0-.26,6.93,6.93,0,0,0-2.28-4.91,7.77,7.77,0,0,0-4.38-2,14.11,14.11,0,0,0-4.17,0"/><path class="cls-19" d="M416.1,388.66a28.23,28.23,0,0,1-1.43-9.27c.06-2.61,0-3.43,0-3.43l-10,4.7s.67,4.28,0,6.14a19.69,19.69,0,0,1-3.23,4.44,8.44,8.44,0,0,1,4.76,2.22,7.47,7.47,0,0,1,2.48,5.43h0a23.54,23.54,0,0,0,5.54-1.71,4.81,4.81,0,0,0,1.85-2.4,9.48,9.48,0,0,0,0-6.12"/><path class="cls-5" d="M408.71,399.58a.7.7,0,0,1-.65-.47.57.57,0,0,1,0-.26,6.93,6.93,0,0,0-2.28-4.91,7.77,7.77,0,0,0-4.38-2,.7.7,0,0,1-.54-.44.72.72,0,0,1,.13-.69,18.36,18.36,0,0,0,3.1-4.21c.5-1.39.15-4.66,0-5.81a.68.68,0,0,1,.38-.72l10-4.7a.72.72,0,0,1,.64,0,.68.68,0,0,1,.33.54s.07.89,0,3.5a27.78,27.78,0,0,0,1.39,9,10.12,10.12,0,0,1,0,6.57,5.45,5.45,0,0,1-2.11,2.74,22.93,22.93,0,0,1-5.76,1.8l-.15,0m-6-8.78a8.78,8.78,0,0,1,6.59,7.25,17.64,17.64,0,0,0,4.55-1.45,4.1,4.1,0,0,0,1.57-2.07,8.77,8.77,0,0,0,0-5.66h0a29.16,29.16,0,0,1-1.46-9.5c0-1.06,0-1.82,0-2.35l-8.57,4c.16,1.25.48,4.34-.11,6a14.74,14.74,0,0,1-2.59,3.77"/><path class="cls-19" d="M452.38,388.11c-.25-5.64.4-8.69-.93-11.58-.13-.27-.26-.53-.42-.8-1.89-3.15-6-5.37-6-5.37l-8.92,4.6-.41,3.84A29.75,29.75,0,0,1,439.23,389a46.36,46.36,0,0,1,.62,5.55,13.07,13.07,0,0,1,7.49-1.56,23.16,23.16,0,0,1,5,.84,54.74,54.74,0,0,0,0-5.69"/><path class="cls-5" d="M439.85,395.2a.68.68,0,0,1-.33-.09.7.7,0,0,1-.35-.55,47.44,47.44,0,0,0-.61-5.47,29.12,29.12,0,0,0-3.48-9.95.6.6,0,0,1-.09-.41l.41-3.84a.7.7,0,0,1,.37-.54l8.92-4.59a.69.69,0,0,1,.64,0c.17.1,4.32,2.34,6.28,5.62a8.39,8.39,0,0,1,.46.86c1,2.12,1,4.26.93,7.22,0,1.34,0,2.85.06,4.62a55.07,55.07,0,0,1,0,5.77.66.66,0,0,1-.29.51.69.69,0,0,1-.59.1,22.42,22.42,0,0,0-4.87-.82,12.47,12.47,0,0,0-7.1,1.47.63.63,0,0,1-.33.09m-3.48-16.54a30.23,30.23,0,0,1,3.53,10.18,42.3,42.3,0,0,1,.56,4.6,14.05,14.05,0,0,1,6.93-1.16,26.63,26.63,0,0,1,4.32.64c.07-1.49.06-3.09,0-4.78s-.07-3.33-.06-4.69c0-2.89,0-4.79-.81-6.63-.12-.25-.24-.49-.39-.74a16.76,16.76,0,0,0-5.45-4.94l-8.27,4.26Z"/><path class="cls-18" d="M458.59,380.14c-.63-2.7-3.59-4-7.14-3.61h0c1.33,2.89.68,5.94.93,11.58a54.74,54.74,0,0,1,0,5.69,23.16,23.16,0,0,0-5-.84,13.07,13.07,0,0,0-7.49,1.56,10,10,0,0,0-2.33,1.74s-3.51,11.25,0,14.41,11.47,2.43,14.92-2.34,3.72-8.59,4.71-15.42,2.07-10.07,1.44-12.77"/><path class="cls-5" d="M443.36,413.26a9.45,9.45,0,0,1-6.3-2.09c-3.72-3.34-.56-13.92-.19-15.11a.82.82,0,0,1,.14-.26,10.75,10.75,0,0,1,2.51-1.88,13.8,13.8,0,0,1,7.87-1.64,26.63,26.63,0,0,1,4.32.64c.07-1.49.06-3.09,0-4.78s-.07-3.33-.06-4.69c0-2.89,0-4.79-.81-6.63a.68.68,0,0,1,.54-1c4.1-.45,7.19,1.17,7.89,4.14.46,2,.06,4.23-.54,7.62-.28,1.54-.59,3.29-.89,5.4l-.25,1.73c-.81,5.72-1.34,9.5-4.59,14a11.6,11.6,0,0,1-8.25,4.46,13,13,0,0,1-1.38.07m-5.24-16.64c-.95,3.13-2.71,11.23-.14,13.54a8.64,8.64,0,0,0,6.62,1.67,10.36,10.36,0,0,0,7.29-3.9c3-4.22,3.53-7.67,4.34-13.38l.25-1.74c.31-2.13.62-3.89.9-5.44.59-3.34.95-5.35.55-7.07-.48-2.05-2.61-3.24-5.51-3.16a19.17,19.17,0,0,1,.58,6.32c0,1.34,0,2.85.06,4.62a55.07,55.07,0,0,1,0,5.77.66.66,0,0,1-.29.51.72.72,0,0,1-.59.1,22.42,22.42,0,0,0-4.87-.82,12.47,12.47,0,0,0-7.1,1.47,10.43,10.43,0,0,0-2.06,1.51"/><path class="cls-18" d="M431.83,158.36c-.91-4.51.69-12.62.82-17.66.22-8.37-.94-12.85-3.68-15.75-7.67-8.12-20.5-5.73-25.42-.9a10.23,10.23,0,0,0-3.08,10.22l30.72,29.27s1.83.67.64-5.18"/><path class="cls-5" d="M431.35,164.25a1.13,1.13,0,0,1-.39-.07.72.72,0,0,1-.24-.14L400,134.77a.75.75,0,0,1-.18-.28c-.08-.23-1.92-5.86,3.25-10.93,3-2.9,8.17-4.7,13.38-4.61a18.07,18.07,0,0,1,13,5.53c3,3.14,4.08,7.84,3.86,16.24-.05,1.78-.27,3.91-.51,6.17-.42,4-.89,8.5-.32,11.33.64,3.16.55,5-.31,5.71a1.31,1.31,0,0,1-.84.32M401.07,133.9l30.31,28.88c.14-.31.39-1.33-.21-4.29s-.15-7.46.3-11.75c.23-2.22.45-4.33.5-6.06.21-8-.81-12.42-3.49-15.26a16.69,16.69,0,0,0-12.05-5.1c-4.75-.1-9.74,1.6-12.41,4.22a9.56,9.56,0,0,0-2.95,9.36"/><path class="cls-5" d="M418.28,146.23a6.28,6.28,0,0,1-.75,0,.6.6,0,0,1-.55-.66.62.62,0,0,1,.66-.55,6.58,6.58,0,0,0,3.45-.59.61.61,0,0,1,.81.28.6.6,0,0,1-.28.81,7.58,7.58,0,0,1-3.34.75"/><path class="cls-5" d="M404.2,141.86a1.43,1.43,0,0,1-1.22-1.21,1.76,1.76,0,0,1,0-1.07,1,1,0,0,1,.66-.65c.6-.15,1.22.37,1.43,1.19a1.84,1.84,0,0,1,0,1.07,1,1,0,0,1-.67.64.69.69,0,0,1-.2,0m-.32-2.55-.1,0a.57.57,0,0,0-.38.39,1.45,1.45,0,0,0,0,.83h0c.15.57.57,1,.93.89a.57.57,0,0,0,.38-.4,1.41,1.41,0,0,0,0-.82c-.13-.52-.49-.91-.83-.91"/><path class="cls-5" d="M405.45,139.8a.18.18,0,0,1-.15-.07,1.52,1.52,0,0,0-1.52-.4.21.21,0,0,1-.25-.15.21.21,0,0,1,.15-.25,1.91,1.91,0,0,1,1.93.54.2.2,0,0,1,0,.28.17.17,0,0,1-.13.05"/><path class="cls-5" d="M406.23,136.78a.37.37,0,0,1-.18-.05,3.45,3.45,0,0,0-2.94-.45.34.34,0,0,1-.44-.19.33.33,0,0,1,.19-.44,4.09,4.09,0,0,1,3.55.5.34.34,0,0,1,.11.47.36.36,0,0,1-.29.16"/><path class="cls-5" d="M401.29,150.35a.34.34,0,0,1,0-.68l.49,0a6.78,6.78,0,0,0,4.11-1.34.34.34,0,0,1,.47.1.33.33,0,0,1-.1.47,7.4,7.4,0,0,1-4.45,1.45l-.48,0h0"/><path class="cls-5" d="M418.28,146.23a6.28,6.28,0,0,1-.75,0,.6.6,0,0,1-.55-.66.62.62,0,0,1,.66-.55,6.58,6.58,0,0,0,3.45-.59.61.61,0,0,1,.81.28.6.6,0,0,1-.28.81,7.58,7.58,0,0,1-3.34.75"/><path class="cls-5" d="M404.2,141.86a1.43,1.43,0,0,1-1.22-1.21,1.76,1.76,0,0,1,0-1.07,1,1,0,0,1,.66-.65c.6-.15,1.22.37,1.43,1.19a1.84,1.84,0,0,1,0,1.07,1,1,0,0,1-.67.64.69.69,0,0,1-.2,0m-.32-2.55-.1,0a.57.57,0,0,0-.38.39,1.45,1.45,0,0,0,0,.83h0c.15.57.57,1,.93.89a.57.57,0,0,0,.38-.4,1.41,1.41,0,0,0,0-.82c-.13-.52-.49-.91-.83-.91"/><path class="cls-5" d="M405.45,139.8a.18.18,0,0,1-.15-.07,1.52,1.52,0,0,0-1.52-.4.21.21,0,0,1-.25-.15.21.21,0,0,1,.15-.25,1.91,1.91,0,0,1,1.93.54.2.2,0,0,1,0,.28.17.17,0,0,1-.13.05"/><path class="cls-5" d="M406.23,136.78a.37.37,0,0,1-.18-.05,3.45,3.45,0,0,0-2.94-.45.34.34,0,0,1-.44-.19.33.33,0,0,1,.19-.44,4.09,4.09,0,0,1,3.55.5.34.34,0,0,1,.11.47.36.36,0,0,1-.29.16"/><path class="cls-5" d="M401.29,150.35a.34.34,0,0,1,0-.68l.49,0a6.78,6.78,0,0,0,4.11-1.34.34.34,0,0,1,.47.1.33.33,0,0,1-.1.47,7.4,7.4,0,0,1-4.45,1.45l-.48,0h0"/><path class="cls-19" d="M418.51,137.36s3.64-1.79,5,1.55a5,5,0,0,1-2.14,6h0s.27,8.16,3.43,12.16c4.1,5.2,8,5.2,8,5.2-5.52,7.85-14.35,9.82-20.84,15.12-2.74-4.22-.12-14.28-.12-14.28s2.14-.21,2.45-.84c-.3-1.44-.56-4-3-4.61-4.81-1.2-8.11.47-9.08-3.83s-1.39-5.56-1.39-5.56-2.1-1-2.25-2.53,2.83-2.54,2.18-6.44-1.08-7.8,4.05-10.71c2.75,7.55,7.48,9.11,11,9.41"/><path class="cls-5" d="M412,178.09h-.1a.71.71,0,0,1-.47-.3c-2.87-4.43-.32-14.41-.21-14.83a.67.67,0,0,1,.59-.51,6.21,6.21,0,0,0,1.77-.4v0c-.33-1.76-.75-3.25-2.43-3.67a21.39,21.39,0,0,0-3.9-.53c-2.63-.19-4.9-.35-5.68-3.81-.71-3.2-1.13-4.7-1.29-5.24-.65-.38-2.2-1.43-2.36-2.93a3.06,3.06,0,0,1,.93-2.13,4.9,4.9,0,0,0,1.26-4.27c-.57-3.44-1.35-8.16,4.38-11.41A.68.68,0,0,1,405,128a.69.69,0,0,1,.41.41c2,5.6,5.45,8.53,10.44,9a.7.7,0,0,1,.62.74.68.68,0,0,1-.74.62c-5.33-.46-9-3.43-11.31-9.08-3.86,2.51-3.69,5.58-3,9.58a6.3,6.3,0,0,1-1.53,5.33c-.37.47-.68.88-.65,1.16.09.91,1.42,1.76,1.88,2a.69.69,0,0,1,.34.39c0,.05.44,1.33,1.4,5.63.56,2.47,1.86,2.56,4.44,2.75a22.37,22.37,0,0,1,4.15.57c2.65.67,3.14,3.21,3.43,4.73l.08.4a.67.67,0,0,1,0,.44c-.35.72-1.57,1-2.51,1.16-.43,1.85-1.9,8.93-.22,12.63a58.21,58.21,0,0,1,7.45-4.61c4.26-2.34,8.66-4.76,12-9-1.57-.38-4.42-1.58-7.34-5.27-3.26-4.13-3.56-12.22-3.58-12.56a.69.69,0,0,1,.4-.65,4.23,4.23,0,0,0,1.8-5.15,2.39,2.39,0,0,0-1.33-1.44,4.05,4.05,0,0,0-2.73.25.68.68,0,0,1-.91-.31.69.69,0,0,1,.31-.91,5.3,5.3,0,0,1,3.81-.31,3.7,3.7,0,0,1,2.11,2.21,5.66,5.66,0,0,1-2.07,6.66c.1,1.65.66,8.07,3.26,11.36,3.82,4.84,7.45,4.94,7.49,4.94a.7.7,0,0,1,.6.37.67.67,0,0,1-.05.71c-3.54,5-8.39,7.7-13.08,10.28a51.06,51.06,0,0,0-7.88,5,.66.66,0,0,1-.43.15"/><path class="cls-5" d="M403.18,140.6c.17.69.7,1.16,1.17,1s.73-.78.56-1.47-.7-1.16-1.18-1-.73.78-.55,1.47"/><path class="cls-5" d="M404.2,141.86a1.43,1.43,0,0,1-1.22-1.21,1.76,1.76,0,0,1,0-1.07,1,1,0,0,1,.66-.65c.6-.15,1.22.37,1.43,1.19a1.84,1.84,0,0,1,0,1.07,1,1,0,0,1-.67.64.69.69,0,0,1-.2,0m-.32-2.55-.1,0a.57.57,0,0,0-.38.39,1.45,1.45,0,0,0,0,.83h0c.15.57.57,1,.93.89a.57.57,0,0,0,.38-.4,1.41,1.41,0,0,0,0-.82c-.13-.52-.49-.91-.83-.91"/><path class="cls-5" d="M405.45,139.8a.18.18,0,0,1-.15-.07,1.52,1.52,0,0,0-1.52-.4.21.21,0,0,1-.25-.15.21.21,0,0,1,.15-.25,1.91,1.91,0,0,1,1.93.54.2.2,0,0,1,0,.28.17.17,0,0,1-.13.05"/><path class="cls-5" d="M406.23,136.78a.37.37,0,0,1-.18-.05,3.45,3.45,0,0,0-2.94-.45.34.34,0,0,1-.44-.19.33.33,0,0,1,.19-.44,4.09,4.09,0,0,1,3.55.5.34.34,0,0,1,.11.47.36.36,0,0,1-.29.16"/><path class="cls-5" d="M401.29,150.35a.34.34,0,0,1,0-.68l.49,0a6.78,6.78,0,0,0,4.11-1.34.34.34,0,0,1,.47.1.33.33,0,0,1-.1.47,7.4,7.4,0,0,1-4.45,1.45l-.48,0h0"/><path class="cls-5" d="M419.22,146.09l-.55,0a.68.68,0,0,1,.08-1.36,4.17,4.17,0,0,0,2.3-.38.68.68,0,0,1,.62,1.21,5.27,5.27,0,0,1-2.45.55"/><path class="cls-19" d="M414.3,162.29c.24,1.59.69,3.55.69,3.55"/><path class="cls-5" d="M415,166.53a.68.68,0,0,1-.66-.53c0-.08-.46-2-.71-3.6a.68.68,0,1,1,1.35-.21c.24,1.54.68,3.48.69,3.5a.69.69,0,0,1-.52.82l-.15,0"/><path class="cls-4" d="M438.56,292.28l-6.62,33.48L445,370.36a42.61,42.61,0,0,1-10.2,9c-6.86,4.51-16.76,3.29-16.76,3.29a52.09,52.09,0,0,0-1.38-9.86c-.48-2.3-1.35-7.41-2.33-13.63l.34,2.16v18a47.44,47.44,0,0,1-10,3.44c-6.13,1.45-14.6-2.41-14.6-2.41s-1-.71,0-7.6,3.46-49.36,4.09-64,1.22-39.26.67-45.38l-2.11-11.68,9.08-11.07L439,260.36Z"/><path class="cls-5" d="M401.64,383.84c-5.6,0-11.52-2.66-11.82-2.8l-.12-.07c-.84-.62-.93-3.54-.27-8.24.93-6.62,3.41-48.55,4.08-64,.62-14.64,1.22-39.19.67-45.28l-2.1-11.63a.64.64,0,0,1,.14-.55l9.08-11.08a.69.69,0,0,1,.85-.17l37.11,19.71a.69.69,0,0,1,.37.61l-.39,31.92a.5.5,0,0,1,0,.12l-6.58,33.32,13,44.44a.68.68,0,0,1-.11.6A43,43,0,0,1,435.17,380c-7,4.6-16.8,3.44-17.21,3.39a.67.67,0,0,1-.6-.68A52,52,0,0,0,416,373c-.17-.84-.4-2-.64-3.39v9.82a.67.67,0,0,1-.36.6,47.11,47.11,0,0,1-10.13,3.5,13.7,13.7,0,0,1-3.22.35m-11.07-4c1.26.54,8.64,3.55,14,2.29A49.81,49.81,0,0,0,414,379V361.41c-.12-.72-.23-1.43-.34-2.11h0a.69.69,0,0,1,.57-.78.68.68,0,0,1,.78.56l.34,2.17h0c.89,5.52,1.58,9.54,2,11.42a61.8,61.8,0,0,1,1.38,9.37c2.19.17,10.08.48,15.71-3.23a44.27,44.27,0,0,0,9.83-8.6l-13-44.27a.7.7,0,0,1,0-.32l6.6-33.42.39-31.44L402,241.52l-8.53,10.4,2.06,11.37c.57,6.22,0,30.85-.66,45.52-.59,13.75-3.1,57.1-4.09,64.11-.72,5.07-.35,6.6-.21,7m48-87.6Z"/><path class="cls-5" d="M429.67,337.68h-.11a.67.67,0,0,1-.56-.78c.82-5.21,2.27-11.23,2.28-11.29a.68.68,0,0,1,1.33.32c0,.06-1.45,6-2.27,11.19a.68.68,0,0,1-.67.57"/><path class="cls-5" d="M421.16,377.21a21.21,21.21,0,0,1-4-.38.68.68,0,0,1-.55-.79.7.7,0,0,1,.8-.55c5.26,1,10.56-.07,16.2-3.26a19.85,19.85,0,0,0,8.61-9.35.69.69,0,0,1,.87-.41.67.67,0,0,1,.41.87,20.85,20.85,0,0,1-9.22,10.08,26.65,26.65,0,0,1-13.14,3.79"/><path class="cls-5" d="M401.86,377.21a30.7,30.7,0,0,1-12.21-2.41.67.67,0,0,1-.34-.9.68.68,0,0,1,.9-.34c5,2.27,16,4.06,24.11-.76a.69.69,0,0,1,.94.24.68.68,0,0,1-.24.93,25.88,25.88,0,0,1-13.16,3.24"/><path class="cls-5" d="M414.33,359.87a.7.7,0,0,1-.68-.57c-1.2-7.6-1.9-15.39-2.52-22.26-.34-3.75-.65-7.3-1-10.16-1.5-12.21-3.08-37.08-3.26-43.43s-4.16-17.11-4.2-17.22a.68.68,0,1,1,1.27-.47c.17.45,4.11,11.07,4.3,17.65.17,6.33,1.75,31.13,3.25,43.31.35,2.88.67,6.43,1,10.2.61,6.85,1.31,14.61,2.51,22.16a.68.68,0,0,1-.57.78h-.1"/><polygon class="cls-4" points="402.48 248.32 403.67 261.54 409.14 261.54 433.37 262.29 438.72 167.97 435.51 164.95 420.03 173.64 406.23 181.59 400.68 227.18 402.48 248.32"/><path class="cls-5" d="M433.36,263h0l-24.22-.75h-5.45a.69.69,0,0,1-.68-.62l-1.19-13.21h0L400,227.24a.33.33,0,0,1,0-.14l5.55-45.59a.66.66,0,0,1,.34-.51l13.8-7.95,15.48-8.7a.7.7,0,0,1,.8.1l3.22,3a.65.65,0,0,1,.21.54l-5.35,94.32a.69.69,0,0,1-.69.64m-29.06-2.12h4.84l23.58.74,5.3-93.34-2.62-2.46-15,8.45L406.86,182l-5.5,45.18,1.8,21.08Z"/><path class="cls-4" d="M411.85,163.13s-2.62,10.06.12,14.28a11.85,11.85,0,0,1-.7,8.71,32.88,32.88,0,0,0-5.21,15c-.59,8.1,1,19.76-.56,31.32S401,261.21,401,261.21l-8.26-1.71L395.48,206l8-35.41Z"/><path class="cls-5" d="M401,261.89h-.13l-8.26-1.71a.68.68,0,0,1-.54-.71L394.79,206s0-.08,0-.12l8-35.41a.67.67,0,0,1,.21-.36l8.35-7.44a.69.69,0,0,1,1.12.68c0,.1-2.51,9.82,0,13.74a.66.66,0,0,1,.09.19,12.48,12.48,0,0,1-.76,9.22l-.48.84a30.55,30.55,0,0,0-4.65,13.91c-.24,3.19-.13,7,0,11.07a125.19,125.19,0,0,1-.56,20.29c-1.53,11.44-4.46,28.59-4.49,28.76a.67.67,0,0,1-.29.45.69.69,0,0,1-.39.12M393.46,259l7,1.45c.57-3.34,3-17.92,4.37-28a123.43,123.43,0,0,0,.55-20.07c-.12-4.09-.23-7.95,0-11.21a32.09,32.09,0,0,1,4.83-14.51c.19-.32.35-.58.46-.79a11,11,0,0,0,.67-8.11c-2-3.27-1.23-9.42-.61-12.65l-6.62,5.89-8,35.15Z"/><path class="cls-5" d="M424.67,192.29h-.06l-10-.86a.68.68,0,0,1-.62-.74.7.7,0,0,1,.74-.62l10,.87a.68.68,0,0,1-.06,1.36"/><path class="cls-6" d="M369.39,235.81c-1.28,1.11-5.26-3.18-6.9-8.05s7.5-4,7.5-4l.41,10.31Z"/><path class="cls-5" d="M368.89,236.67a1.69,1.69,0,0,1-.52-.08c-2.12-.57-5.17-4.6-6.53-8.61a3.09,3.09,0,0,1,.37-3.07c1.83-2.31,7.23-1.86,7.84-1.8a.69.69,0,0,1,.62.65l.41,10.31a.75.75,0,0,1-.1.38l-1,1.7a.46.46,0,0,1-.14.17,1.38,1.38,0,0,1-.94.35m.5-.86Zm-1-11.41c-1.8,0-4.26.26-5.13,1.36a1.78,1.78,0,0,0-.15,1.78c1.39,4.12,4.29,7.38,5.59,7.74a.38.38,0,0,0,.17,0l.82-1.38-.38-9.49c-.27,0-.59,0-.92,0"/><path class="cls-4" d="M415.47,180s14.68-2.48,15.15-3-1.94-7.07-1.94-7.07l12.12-1.66c.55-.17-.33-2.81-2.47-4.24a14.34,14.34,0,0,0-5.52-1.78c-5.52,7.85-15.42,10.54-21.9,15.84"/><path class="cls-5" d="M415.47,180.67a.67.67,0,0,1-.67-.56.69.69,0,0,1,.56-.79c5-.84,12.91-2.26,14.62-2.76A46.77,46.77,0,0,0,428,170.2a.68.68,0,0,1,.55-.91l11.65-1.59a5.8,5.8,0,0,0-2.29-3.06,13.54,13.54,0,0,0-4.82-1.62c-3.55,4.85-8.67,7.7-13.63,10.47a55.31,55.31,0,0,0-8.16,5.17.69.69,0,0,1-.87-1.06,56.94,56.94,0,0,1,8.37-5.3c4.93-2.76,10-5.6,13.41-10.4a.68.68,0,0,1,.62-.29,15.12,15.12,0,0,1,5.84,1.89c2,1.34,3.06,3.66,2.91,4.67a.92.92,0,0,1-.62.79l-.11,0-11.28,1.54c2.23,6.24,1.79,6.69,1.49,7s-.62.63-15.52,3.15h-.11"/><path class="cls-19" d="M348.77,227.93a77,77,0,0,1-6.11,7.88c-2.93,3.35-7.45,6.76-2.29,10.42,1.43,1,1.15.55,3.1-.44,1.6-.82,1.57,1.4,5.89-1.82,1.23-.92,2.88-1.65,4.22-3.58,2.82-.86,6.93-5.33,7.78-7.54,1.27-3.34,8.65-7.69,8.65-7.69l-6.86-6L358,221.92c-4.44,3.44-6.09,1.49-8.51,2.49s-1.59.83-4.22,1c-1.88.11-2.83,0-2.76.79.12,1.35.69,1.6,2.49,1.86a27.75,27.75,0,0,0,3.77-.1"/><path class="cls-5" d="M341.49,247.48a2.77,2.77,0,0,1-1.51-.7c-1.63-1.15-2.49-2.37-2.63-3.72-.23-2.3,1.71-4.37,3.58-6.37.41-.44.83-.88,1.21-1.32a84.1,84.1,0,0,0,5.27-6.66,18.75,18.75,0,0,1-2.49,0c-1.76-.26-2.91-.57-3.09-2.48a1.23,1.23,0,0,1,.28-.95c.43-.48,1.14-.51,2.21-.54l.92,0,.87,0a4.24,4.24,0,0,0,2.19-.49l.93-.39a6.31,6.31,0,0,1,2.7-.38c1.46,0,3,.06,5.65-2l.09-.07,5.16-2.78a.68.68,0,0,1,.77.09l6.86,6a.71.71,0,0,1,.23.58.7.7,0,0,1-.34.52c-2,1.18-7.38,4.79-8.36,7.35-.86,2.27-4.89,6.77-8,7.87a11.22,11.22,0,0,1-3.3,2.91c-.33.22-.65.43-.95.65-2.84,2.12-4,2.08-5.11,1.82a1,1,0,0,0-.87.06,9.5,9.5,0,0,0-1.06.6,2.48,2.48,0,0,1-1.23.48m7.28-20.23a.67.67,0,0,1,.57,1.05,76.27,76.27,0,0,1-6.17,8c-.4.46-.82.91-1.25,1.37-1.66,1.77-3.38,3.61-3.21,5.29a4.17,4.17,0,0,0,2.05,2.75,2.65,2.65,0,0,0,.74.44,2.34,2.34,0,0,0,.5-.27,12.8,12.8,0,0,1,1.16-.66A2.34,2.34,0,0,1,345,245c.64.15,1.43.33,4-1.59.31-.23.66-.46,1-.69a9.82,9.82,0,0,0,3-2.73.69.69,0,0,1,.36-.27c2.64-.8,6.56-5.09,7.34-7.13,1.1-2.87,6.15-6.28,8.14-7.54l-5.8-5.09-4.69,2.53c-3,2.34-4.94,2.3-6.46,2.27a4.94,4.94,0,0,0-2.16.27l-.91.39a5.36,5.36,0,0,1-2.67.59l-.86,0-.94,0a10.36,10.36,0,0,0-1.17.08c.07.74.17.93,1.89,1.18a25.64,25.64,0,0,0,3.62-.11h.06"/><path class="cls-19" d="M338.2,243.47s6.32-5.34,8.49-7.39"/><path class="cls-5" d="M338.2,244.15a.69.69,0,0,1-.52-.24.68.68,0,0,1,.08-1c.07,0,6.33-5.35,8.46-7.36a.68.68,0,0,1,.93,1c-2.15,2-8.25,7.2-8.51,7.41a.66.66,0,0,1-.44.16"/><path class="cls-19" d="M339.48,245.46s7.53-6,9.53-7.71"/><path class="cls-5" d="M339.48,246.14a.66.66,0,0,1-.53-.25.68.68,0,0,1,.11-1c.07-.06,7.54-6,9.51-7.7a.68.68,0,0,1,.88,1c-2,1.68-9.47,7.66-9.54,7.72a.65.65,0,0,1-.43.15"/><path class="cls-19" d="M343.47,245.79s6.07-5.17,7.37-6"/><path class="cls-5" d="M343.47,246.47a.68.68,0,0,1-.44-1.2c.25-.21,6.11-5.2,7.43-6.1a.68.68,0,0,1,.94.18.69.69,0,0,1-.18,1c-1.25.85-7.25,6-7.31,6a.68.68,0,0,1-.44.16"/><path class="cls-5" d="M353.51,229.7a13.72,13.72,0,0,1-5-1.15.68.68,0,0,1-.34-.9.69.69,0,0,1,.9-.34,12.3,12.3,0,0,0,4.76,1,.68.68,0,0,1,.72.65.69.69,0,0,1-.65.71h-.37"/><path class="cls-6" d="M434.13,191.64c.19,8.46,1.19,19.67,1.38,23.68-1.48,2.9-8.31,13.94-13.1,21.17l-1.35,2a17.4,17.4,0,0,1,7.1,5c.7.87,2.48,2.7,2.92,3.84,1.57,4,1.48,4.52,1.48,4.52a119.18,119.18,0,0,0,7-12.32c3.19-6.62,7.85-13.72,9-24.79,1.57-10.24-1.4-35.4-3.32-42.43a13.15,13.15,0,0,0-6.89-8.26c-6.36,7.5-8.26,11.29-15.13,31.9s-5.28,58.94-6.54,73.19A128.14,128.14,0,0,0,418,302.81s9.95,1.78,15.46,1.78A15.9,15.9,0,0,0,444,301s-1.82-22.95-.52-35.6c1.57-15.29-.15-32.73-.15-32.73"/><path class="cls-5" d="M433.5,305.27c-5.51,0-15.17-1.71-15.58-1.79a.7.7,0,0,1-.55-.53A130.23,130.23,0,0,1,416,269.1c.35-3.92.48-9.72.63-16.43.4-17.69.94-41.91,5.95-56.91,6.74-20.25,8.74-24.45,15.25-32.13a.68.68,0,0,1,.83-.17,13.91,13.91,0,0,1,7.24,8.69c2,7.24,4.89,32.61,3.34,42.71a50.28,50.28,0,0,1-5.3,17.6,1,1,0,0,1,0,.17c0,.17,1.71,17.68.15,32.87-1.28,12.44.5,35.25.52,35.48a.66.66,0,0,1-.21.55,16.51,16.51,0,0,1-10.92,3.74m-14.88-3c2,.35,10.16,1.69,14.88,1.69a15.79,15.79,0,0,0,9.75-3.17c-.23-2.94-1.7-23.66-.5-35.38,1.24-12.05.41-25.59,0-30.6-.26.51-.51,1-.77,1.5-.64,1.24-1.24,2.41-1.81,3.58a120.24,120.24,0,0,1-7.06,12.4.68.68,0,0,1-1.25-.39,21.94,21.94,0,0,0-1.43-4.25,14.28,14.28,0,0,0-2.12-2.84c-.28-.32-.53-.6-.7-.82a16.71,16.71,0,0,0-6.79-4.78.7.7,0,0,1-.43-.43.65.65,0,0,1,.08-.59l1.35-2c4.65-7,11.33-17.8,13-20.94-.07-1.32-.22-3.37-.38-5.73-.37-5.1-.86-12.09-1-17.78a.68.68,0,0,1,.67-.7h0a.68.68,0,0,1,.68.67c.13,5.66.62,12.62,1,17.71.17,2.48.33,4.62.39,5.95a.66.66,0,0,1-.08.34c-1.51,3-8.38,14.07-13.13,21.24l-.89,1.32a17.82,17.82,0,0,1,6.6,4.89l.67.79a14.27,14.27,0,0,1,2.36,3.23c.49,1.25.87,2.28,1.13,3.07A119,119,0,0,0,439,239.25c.58-1.18,1.19-2.36,1.83-3.61,2.89-5.61,6.17-12,7.07-20.95,1.54-10-1.34-35-3.3-42.18a12.48,12.48,0,0,0-6.07-7.58c-6.14,7.31-8,11.39-14.64,31.26-4.94,14.8-5.48,38.91-5.88,56.51-.15,6.74-.28,12.56-.63,16.52a130.8,130.8,0,0,0,1.28,33"/><path class="cls-6" d="M432.05,247c-2-3.25-4.66-5.07-7.74-6.87l-3.25,8.76s10.51,4.3,11.5,3l0,0c.18-.28,1.59-1.44-.53-4.81"/><path class="cls-5" d="M431.6,252.73c-2.42,0-7-1.62-10.8-3.19a.67.67,0,0,1-.38-.86l3.25-8.77a.69.69,0,0,1,.41-.41.74.74,0,0,1,.58.06c2.81,1.65,5.75,3.56,8,7.09s1,5,.58,5.5l-.06.08a1.86,1.86,0,0,1-1.54.5m-9.67-4.2c4.31,1.72,9.2,3.23,10.12,2.88a.58.58,0,0,1,.08-.1c.25-.32,1-1.28-.66-3.93a18.79,18.79,0,0,0-6.8-6.23Z"/><path class="cls-19" d="M428.87,244c-2.28,2.61-3.57,4.2-3.85,5-1.16,3.47-.71,6.21-1.55,9a15.59,15.59,0,0,1-4.63,6.9,2.4,2.4,0,0,1-2.62.32,2.52,2.52,0,0,1-3.2.68c-1.34.17-2.3-.17-2.73-1.24-.84.17-2.77-1.06-2.25-2.51s1.22-3.32,1.22-3.32-2.11-2.29-.42-6.08,6.28-7.14,8.72-9.51a54.73,54.73,0,0,0,3.5-4.73,30.27,30.27,0,0,1,8.16,5.09Z"/><path class="cls-5" d="M414.25,266.91a3.35,3.35,0,0,1-1.35-.3,2.87,2.87,0,0,1-3-1.26,3.36,3.36,0,0,1-2-1.11,2.27,2.27,0,0,1-.52-2.31c.38-1.06.87-2.36,1.09-3a6.44,6.44,0,0,1-.27-6.46c1.35-3,4.42-5.75,6.89-7.92.73-.65,1.42-1.26,2-1.81a50.64,50.64,0,0,0,3.41-4.63.68.68,0,0,1,.82-.25,30.77,30.77,0,0,1,8.38,5.24.68.68,0,0,1,0,.94l-.35.4h0c-1.65,1.9-3.44,4-3.72,4.81a20.9,20.9,0,0,0-.89,5,19.82,19.82,0,0,1-.65,4,16.13,16.13,0,0,1-4.89,7.26,3.25,3.25,0,0,1-2.83.57,3.22,3.22,0,0,1-2.15.87M413,265.23a.67.67,0,0,1,.31.07,1.82,1.82,0,0,0,2.34-.47.68.68,0,0,1,.91-.18,1.76,1.76,0,0,0,1.87-.29,14.93,14.93,0,0,0,4.37-6.55,18.58,18.58,0,0,0,.59-3.69,22.29,22.29,0,0,1,1-5.28c.32-1,1.56-2.5,3.9-5.18a30.17,30.17,0,0,0-7-4.3,53.13,53.13,0,0,1-3.26,4.38c-.59.57-1.29,1.19-2,1.85-2.37,2.09-5.31,4.69-6.54,7.45-1.47,3.3.23,5.26.3,5.34a.69.69,0,0,1,.13.7s-.7,1.87-1.21,3.31a.93.93,0,0,0,.26.95,1.85,1.85,0,0,0,1.21.67.67.67,0,0,1,.77.41c.19.47.59,1,2,.81H413M428.87,244h0Z"/><path class="cls-5" d="M409.26,259.52a.67.67,0,0,1-.24,0,.69.69,0,0,1-.41-.87,15.9,15.9,0,0,0,1-4.32.68.68,0,0,1,.64-.72.69.69,0,0,1,.72.64,16.88,16.88,0,0,1-1.07,4.86.69.69,0,0,1-.64.45"/><path class="cls-5" d="M410.29,265.35a.55.55,0,0,1-.28-.06.67.67,0,0,1-.34-.9c0-.06,2.65-5.88,3-6.8a.68.68,0,0,1,1.28.48c-.36,1-2.92,6.64-3,6.88a.67.67,0,0,1-.62.4"/><path class="cls-5" d="M413,266.59a.7.7,0,0,1-.31-.07.69.69,0,0,1-.3-.92c.08-.15,1.93-3.78,2.68-5.13a9.2,9.2,0,0,1,1.27-1.75.68.68,0,1,1,1,.95,8.08,8.08,0,0,0-1.06,1.47c-.74,1.32-2.63,5-2.65,5.08a.67.67,0,0,1-.61.37"/><path class="cls-5" d="M416.22,265.91a.66.66,0,0,1-.4-.13.68.68,0,0,1-.15-.95l3-4.23a.68.68,0,0,1,.95-.16.69.69,0,0,1,.16,1l-3,4.23a.72.72,0,0,1-.56.28"/><path class="cls-4" d="M412.05,184.15c1.12-2.33-8.15-6.77-8.56-7.45,1-1.49,5.5-6.93,5.5-6.93s-3.51-.34-4.31-1.05,3.6-4.65,7.17-5.59c0,0-2.62,10.06.12,14.28,0,0,1.78,3.9.08,6.74"/><path class="cls-5" d="M412.05,184.83a.61.61,0,0,1-.32-.08.68.68,0,0,1-.29-.9c.36-.74-1.78-2.52-6.35-5.27-1.54-.93-2-1.21-2.18-1.53a.67.67,0,0,1,0-.73c.75-1.12,3.4-4.39,4.74-6a8.08,8.08,0,0,1-3.44-1.06,1,1,0,0,1-.3-1c.38-1.58,4.52-4.86,7.74-5.71a.7.7,0,0,1,.66.18.65.65,0,0,1,.17.65c0,.1-2.5,9.82,0,13.74a.41.41,0,0,1,0,.09c.08.17,1.91,4.26.05,7.37a.7.7,0,0,1-.59.33m-7.63-8.26,1.37.84c2.64,1.59,5.07,3.14,6.27,4.59a9.21,9.21,0,0,0-.69-4.26c-2.28-3.59-1.08-10.71-.47-13.57-2.55,1.06-5.13,3.29-5.58,4.16a15.41,15.41,0,0,0,3.73.76.68.68,0,0,1,.46,1.11c0,.05-3.67,4.46-5.09,6.37"/><path class="cls-6" d="M393.73,217.76s-2.93,2.12-9.62,7.91c-7.16,6.2-8.15,6.8-14.72,10.14.28-11.1-6.24-16.67-6.24-16.67S381.44,208.8,390,203.83c0,0,8.52-34.21,18.25-39a117.79,117.79,0,0,0-8.15,29.14c-2.08,14.08-1.32,33-3.13,49.34-2,17.76.76,50.46.6,58.58-3.81,0-10-2.67-10-2.67s.89-27.25,3-43.12c1.81-13.78,2.12-25.22,3.14-38.31"/><path class="cls-5" d="M397.6,302.54c-3.91,0-10-2.61-10.25-2.73a.68.68,0,0,1-.41-.64c0-.28.92-27.47,3-43.19,1.25-9.55,1.77-17.84,2.33-26.62.21-3.28.42-6.66.68-10.13-1.42,1.1-4.15,3.3-8.37,7-7.26,6.29-8.23,6.87-14.86,10.23a.69.69,0,0,1-.68,0,.67.67,0,0,1-.31-.59c.27-10.62-5.94-16.08-6-16.13a.64.64,0,0,1-.23-.58.69.69,0,0,1,.34-.53c.18-.1,18-10.2,26.62-15.17.9-3.52,9-34.46,18.54-39.19a.68.68,0,0,1,.92.89,118.2,118.2,0,0,0-8.1,29c-1.1,7.44-1.39,16.13-1.71,25.34-.27,8-.56,16.29-1.41,24-1.35,12.28-.44,32.13.16,45.27.27,6,.49,10.75.44,13.25a.69.69,0,0,1-.68.67m-9.28-3.8a34.23,34.23,0,0,0,8.6,2.41c0-2.6-.2-7-.45-12.47-.6-13.18-1.51-33.09-.14-45.48.84-7.63,1.12-15.89,1.4-23.87.31-9.24.61-18,1.72-25.49a124.35,124.35,0,0,1,7.29-27.15c-8.58,7.66-16,37-16,37.3a.7.7,0,0,1-.32.43c-7.48,4.33-22.49,12.83-26.1,14.87a22.67,22.67,0,0,1,5.79,15.4c5.63-2.87,6.84-3.69,13.59-9.54s9.55-7.85,9.67-7.94a.69.69,0,0,1,1.08.61c-.31,4-.56,7.87-.8,11.63-.56,8.8-1.08,17.11-2.34,26.7-1.9,14.52-2.82,38.91-2.95,42.59"/><path class="cls-5" d="M393.73,218.44h-.06a.67.67,0,0,1-.62-.73c0-.36.05-1.26.08-2.2s.07-2.12.1-2.57c.27-3.37.43-6.45.57-9.17.5-9.62.87-16.57,5.44-24.58a.68.68,0,0,1,.93-.25.68.68,0,0,1,.25.93c-4.41,7.72-4.75,14.19-5.25,24-.15,2.73-.31,5.82-.58,9.21,0,.42-.06,1.48-.1,2.5s-.06,1.9-.08,2.27a.68.68,0,0,1-.68.62"/><path class="cls-5" d="M435.51,216a.69.69,0,0,1-.57-1.07,67.69,67.69,0,0,0,4.47-8,.68.68,0,0,1,.91-.32.68.68,0,0,1,.33.9,70.28,70.28,0,0,1-4.58,8.22.68.68,0,0,1-.56.29"/><path class="cls-18" d="M421.59,147.61c2.34,22.12-1.47,18.13-2.6,29.46s4.6,17.3,4.6,17.3S443,178.87,437.21,165c-2.88-7-6.15-4.45-4.56-24.25"/><path class="cls-5" d="M423.59,195.05a.67.67,0,0,1-.49-.21c-.25-.25-6-6.33-4.79-17.84a32.53,32.53,0,0,1,1.79-8.09c1.25-3.68,2.33-6.86.82-21.23a.68.68,0,0,1,1.35-.15c1.55,14.67.43,18-.88,21.82a31,31,0,0,0-1.73,7.79c-.91,9.11,2.75,14.66,4,16.27,3-2.56,17.9-16.17,12.91-28.2a20.85,20.85,0,0,0-2.12-3.86c-2.15-3.3-3.7-5.67-2.49-20.71a.67.67,0,0,1,.73-.62.68.68,0,0,1,.63.73c-1.17,14.57.27,16.79,2.28,19.85a23.38,23.38,0,0,1,2.23,4.09c2.46,5.92.82,13-4.73,20.59a56.09,56.09,0,0,1-9.1,9.62.66.66,0,0,1-.42.15"/><path class="cls-5" d="M409,184.57c-.11.5.08.91.44.91s.74-.41.86-.91-.08-.91-.43-.91-.75.41-.87.91"/><path class="cls-5" d="M403.62,197.57c-.05.52.21.89.56.84a1.1,1.1,0,0,0,.72-1c0-.52-.22-.89-.57-.84a1.09,1.09,0,0,0-.71,1"/><path class="cls-5" d="M403.06,212.77c0,.51.33.87.69.82a.94.94,0,0,0,.6-1c0-.51-.33-.87-.68-.82a.93.93,0,0,0-.61,1"/><path class="cls-5" d="M402.88,228c0,.51.26.89.61.83s.65-.51.66-1-.26-.89-.61-.83-.65.51-.66,1"/><path class="cls-5" d="M400.9,243.17c0,.5.22.86.59.82a1.05,1.05,0,0,0,.73-1c0-.5-.21-.87-.58-.82a1.06,1.06,0,0,0-.74,1"/></g></g></g></svg>