<svg xmlns="http://www.w3.org/2000/svg" xmlns:xlink="http://www.w3.org/1999/xlink" viewBox="0 0 1192.26 302.71"><g fill="#fff"><path d="M424.09 87.81c-4.81-6.78-13.37-9.99-22.11-9.99-10.34 0-20.69 4.64-20.69 16.23 0 25.32 59.92 10.88 59.92 55.82 0 27.11-21.4 40.3-46.19 40.3-15.69 0-31.03-4.81-41.37-17.12l16.94-16.41c5.53 8.38 14.98 13.2 24.97 13.2s22.11-5.71 22.11-17.3c0-27.64-59.92-11.77-59.92-56.89 0-26.04 23.18-38.16 46.54-38.16 13.2 0 26.39 3.74 36.2 13.02l-16.41 17.3zm93.44 39.23c-4.99-5.17-10.52-8.56-16.23-8.56-15.69 0-25.14 12.31-25.14 25.68s9.45 25.68 25.14 25.68c6.6 0 12.66-2.85 16.58-8.03l14.27 15.34c-8.74 8.74-23.36 11.95-30.85 11.95-25.86 0-46.54-18.01-46.54-44.94s20.69-44.94 46.54-44.94c10.88 0 22.83 3.92 31.03 13.02l-14.8 14.8zm29.61-25.67h21.4v13.55h.36c4.64-9.81 14.09-15.69 25.32-15.69 2.68 0 5.17.54 7.67 1.25v20.69c-3.57-.89-6.95-1.61-10.34-1.61-20.15 0-23 16.94-23 21.58v45.83h-21.4v-85.6zm148.72 85.59h-20.33v-13.73h-.36c-3.92 8.56-11.95 15.87-26.21 15.87-23 0-31.21-16.23-31.21-33.7v-54.03h21.4v43.33c0 9.45.71 25.14 15.69 25.14 14.09 0 19.62-10.34 19.62-21.76v-46.72h21.4v85.6zm20.51-85.59h20.33v13.37h.36c3.74-8.02 11.95-15.51 26.21-15.51 13.2 0 22.29 5.17 26.75 15.87 6.24-10.88 15.34-15.87 28.18-15.87 22.83 0 30.85 16.23 30.85 36.74v51h-21.4v-48.5c0-10.7-3.21-19.97-15.87-19.97-13.37 0-18.37 11.06-18.37 22.11v46.36h-21.4v-51c0-10.52-4.28-17.48-14.62-17.48-14.09 0-19.62 10.34-19.62 21.76v46.72h-21.4v-85.6zm163.53 69.54c4.81 0 8.56 3.74 8.56 8.56s-3.75 8.56-8.56 8.56-8.56-3.75-8.56-8.56 3.74-8.56 8.56-8.56zm68.12-68.47c25.32 0 43.33 18.19 43.33 43.33s-18.01 43.33-43.33 43.33-43.33-18.19-43.33-43.33 18.01-43.33 43.33-43.33zm0 77.04c20.15 0 32.63-15.16 32.63-33.7s-12.48-33.7-32.63-33.7-32.63 15.16-32.63 33.7 12.48 33.7 32.63 33.7zm62.78-51.72c0-6.06-.89-18.9-.89-23.18h10.7c.18 6.06.36 12.84.71 14.44 5.35-9.63 13.91-16.58 26.21-16.58 2.14 0 4.1.36 6.24.89l-1.25 10.52c-1.61-.54-3.03-.71-4.1-.71-18.55 0-26.93 12.84-26.93 28.89v44.94h-10.7v-59.2zm135.35 53.85c0 41.01-27.11 48.15-43.87 48.15s-32.46-6.42-40.84-17.3l8.38-7.85c7.49 10.52 19.62 15.51 32.46 15.51 32.63 0 33.17-28.53 33.17-37.8v-11.41h-.36c-6.24 9.81-17.12 16.05-31.21 16.05-24.25 0-44.05-19.08-44.05-42.26s19.79-42.26 44.05-42.26c14.09 0 24.97 6.24 31.21 16.05h.36v-13.91h10.7v77.04zm-42.98-69.55c-18.01 0-32.63 14.62-32.63 32.63s14.62 32.63 32.63 32.63 32.63-14.62 32.63-32.63-14.62-32.63-32.63-32.63zM73.77 145.12c2.68-12.33 7.69-24.23 14.28-34.81 6.59-10.59 14.76-19.84 23.53-27.47-7.02 6.1-13.28 13.03-18.68 20.55 4.06-5.63 8.34-10.43 13.09-14.78a97.67 97.67 0 0 1 15.96-11.88c-1.44 1.63-4.07 3.64-6.39 5.64-2.33 1.98-4.31 3.97-4.62 5.24-12.27 11.12-22.5 24.54-29.77 39.52-7.3 14.93-11.59 31.42-12.31 48.06-1.74-6.62-.9-12.11.47-16.83 1.41-4.75 3.39-8.77 4.46-13.24m82.07-82.82l-9.2 3.25c3.11-1.38 6.27-2.57 9.2-3.25m38.74 217.53c3.4-.37 6.78-.89 10.03-1.41-3.23.83-6.63 1.19-10.03 1.41M79.03 188.07l1.49 5.55c2.12 14.2 6.93 28.29 14.57 41.22-4.22-6.97-8.19-14.44-11.13-22.35-2.93-7.89-4.8-16.25-4.93-24.41m2.33-15.56c.07-14.33 4.05-28.81 10.83-40.41-6.45 11.74-10.31 25.86-10.83 40.41m183.88 46.53c-.28-.1-.36-.41-.35-.78a2.61 2.61 0 0 0 .15-.97c2.62-3.86 4.95-7.96 6.98-12.21-.27 1.15-.16 2.36-.6 3.48-1.22 2.33-2.28 3.57-3.26 4.93-.97 1.36-1.85 2.81-2.91 5.55m-74.44 61.01l-.36.15-3.48.2-.42-.1 4.26-.25"/><path d="M261.9 224.03c-.5-.23-1.01-.46-1.59-.38l4.69-6.3-.11.92c-.53 1.73-2.46 3.75-2.99 5.76m-48.96 30.59c-1.54.49-2.65 1.91-3.34 2.38-4.3.29-8.55.31-13.45.27-.74.36-2.33.49-3.83 1.11-.92-.42-1.89-.76-2.91-1.11 10.67.14 21.72-1.74 32.41-5.79-2.78 1.26-5.73 2.35-8.89 3.14"/><path d="M163.52 79.06c8.17-2.63 17.5-3.45 26.6-3.09 9.14.32 18.01 1.67 26.48 2.55-9.22-3.67-21.05-5.73-30.95-6.25-9.9-.63-17.88-.14-19.95-2.14-2.11-1.92 5.08-4.05 15.01-4.38 4.95-.18 10.52.12 15.83.78 5.32.64 10.37 1.64 14.45 2.42q-2.07-.93-4.17-1.8c2.11.87 4.17 1.77 6.21 1.66-2.04-.99-5.17-2.1-8.12-3.08-2.94-.99-5.7-1.89-6.91-2.76 1.39-.29 2.78-.51 4.19-.75-5.64-2.48-14.31-3.98-23.14-4.25-8.85-.34-17.76.54-24.3.63 15.5-1.62 32.11-1.56 48.82 1.71 16.68 3.22 33.45 9.64 48.44 19.64 14.99 9.93 28.14 23.49 37.36 39.45 9.26 15.91 14.57 34 15.32 51.83 2.87 39.86-12.86 78.65-40.65 104.89-2.7 2.37-7.7 5.93-13.65 9.12-5.93 3.24-12.78 6.04-18.62 7.92-20.16 8.08-42.56 10.92-64.61 8.93-23.43-2.98-45.41-13.58-63.04-29.31-17.69-15.74-31.13-36.74-38.66-60.63-1.55-4.75-1.72-10.82-.69-12.61.5-.9 1.25-.76 2.26 1.03 1.05 1.78 2.31 5.2 4.39 10.72 7.28 18.11 17.99 34.81 31.71 48.61-1.32-.29-3.47-2.25-5.63-4.57-2.16-2.3-4.37-4.92-6.12-6.35a102.11 102.11 0 0 0 13.06 15.92c4.73 4.68 9.89 8.89 15.9 12.83-8.03-5.24-15.47-11.38-22.1-18.35 8.29 8.69 18.23 16.7 29.49 23.02 11.24 6.33 23.77 10.94 36.65 13.17 4.69.9 8.94 2.71 13.91 3.92 4.95 1.18 10.66 1.76 17.42-.29-17.22.09-34.49-3.56-50.3-10.38-15.82-6.81-30.2-16.74-42.27-28.91.07.02.14.04.2.04-10.89-10.75-18.63-22.57-24.72-35.99 2.06 4.11 4.44 8.12 6.26 11.73-9.63-19.2-14.86-39.89-14.67-60.83 1.29 14.71 4.85 29.36 10.82 43.14 5.94 13.79 14.39 26.72 25.02 37.61 10.59 10.9 23.33 19.75 37.15 25.72 13.82 5.99 28.72 9.05 43.2 8.95-8.08-1.41-17.37-2.37-26.28-4.54-8.87-2.13-17.29-5.49-22.77-10.06 23.1 11.95 50.43 16.23 76.94 10.95l-5.69 1.77c8.45-.54 17-2.87 25.06-6.27 8.07-3.4 15.63-7.89 22.65-12.59 1.26-.83 2.51-1.67 3.75-2.57l-3.75 2.57c-13.02 8.54-27.42 14.23-42.02 17.09 6.54-2.05 13.42-4.16 21.47-7.34-4.68.96-11.08 2.9-17.62 4.15-8.44 2.15-17.15 3.34-25.77 3.41 13.35-.45 26.26-4.06 36.85-9.44-16.84 5.46-35.27 7.74-52.69 5.02 9.61.98 19.31.63 28.75-.98 15.97-1.89 31.78-7.42 45.68-16.52l-1.53 1.13c1.06-.69 2.07-1.44 3.1-2.17 5.36-3.65 10.41-7.83 15.06-12.48 4.08-4.27 7.31-9.14 9.97-14.2l1.61-2.38c-.64 1.76-.75 2.78 1.43-.02 4.75-5.94 8.29-13.15 11.04-20.85 2.78-7.71 4.83-15.86 6.97-24.39 1.13-4.48 1.39-10.76.84-17.41.31-1.82.04-2.78-.36-3.6a105.55 105.55 0 0 0-.58-4.3c-.39-3.51-.92-7.02-1.92-10.35.7 3.35 1.38 6.84 1.92 10.35l.4 3.94c-.45-.88-.99-1.79-1.19-3.72.97 12.05-.14 24.45-3.31 36.42-3.15 11.97-8.36 23.48-15.23 33.94.51-1.46 1.33-3.45 1.56-4.33-.95 2.28-2.02 4.5-3.17 6.71-4.62 6.64-9.9 12.85-15.78 18.47 1.63-1.81 2.97-3.66 3.95-5.44-8.14 8.05-17.49 14.91-27.71 20.22-10.22 5.29-21.29 9.04-32.74 10.99-21.65 2.59-43.51-1.69-62.25-11.4 9.61 6.24 21.23 10.53 33.5 12.37-16.4-1.63-32.49-7.22-46.39-16.24-13.92-8.98-25.57-21.46-33.39-35.87 4.45 4.24 10.21 9.87 14.23 11.06.56-.82-5.17-8.89-1.15-4.71 7.59 7.27 14.24 13.06 20.34 17.07 6.09 3.99 11.64 6.08 16.56 5.2 1.03-.39-2.68-4.33-5.24-8.12-2.61-3.78-4.21-7.22-1.26-5.82 4.7 2.67 13.26 7.17 23.14 9.92 2.75 1.07 5.7 1.95 8.8 2.64.37.19 1.09-.02 1.98-.24 10.91 1.84 21.4 1.14 27.19.62 2.16-.16 4.29-.44 6.42-.77 1.17.07 2.22.26 3.09.61 1.23-.75 2.47-1.42 3.71-2.04 5.63-1.43 11.04-3.47 16.14-6.05 3.03-1.07 6.07-2.26 8.94-3.73-.28-.28-.99-.41-.71-1.06a81.46 81.46 0 0 0 16.09-14.12c2.26-1.89 4.46-3.59 6.69-4.99.92-4.22 4.1-9.78 6.96-16.23 2.91-6.39 5.46-13.68 6.27-19.91h-.12c1.13-6.19 1.63-12.54 1.41-18.96.28-1.08.6-2.11.96-3.11-.69-1.54-.92-3.21-1.31-3.96-.22-5.15-.47-9.6-1.02-14.09-.51-.7-1.98-1.83-2.58-3.41-.99-3.26-2.27-6.3-3.71-9.16-1.52-3.43-3.22-6.84-5.19-10.17a95.43 95.43 0 0 0-25.92-28.77c-.12-.58.08-1.1.27-1.62-2.1-.49-4.32-2.39-6.15-2.88.4 0 .69-.09.78-.37-2.89-1.01-4.47-1.84-5.94-2.78-1.46-.95-2.83-1.99-5.33-3.16-1.18-.39-2.45-.26-3.65-.48-.55-.24-1.12-.45-1.68-.68-5.3-4.09-11.81-4.6-18.73-5.23-6.93-1.17-14.05-1.61-21.22-1.2-5.65.43-8.12-.59-12.3-.55"/><path d="M272.73 203.53c2.54-5.62 4.52-11.53 5.87-17.63-.9 6.58-1.63 12.78-5.87 17.63m-135.14 37.63c-1.21-2.23-2.71-4.42-4.39-6.67 10.49 10.09 23.81 17.26 38.26 20.6v.12c-5.89-1.03-12.72-3.78-18.67-6.83-6.01-2.99-11.17-6.24-15.2-7.23m127.3-22.88c0-.27.06-.59.11-.92.02 0 .03-.03.04-.05.02.31-.03.63-.14.97M100.91 231.3l-.93-1.54a122.27 122.27 0 0 0 8.42 10.78c-2.62-2.55-5.16-5.75-7.49-9.24m-14.77-46.15c-1.16-9.14-1.05-18.48.29-27.65 2.34-11.7 6.99-22.67 13.43-31.59-10.12 17.56-15.23 38.34-13.72 59.24m33.27 34.1c-1.25-2.79-2.23-5.75-3.1-8.7 1.24 2.77 2.63 5.45 4.19 8.04-.62-.29-.8.4-1.09.66m8.27 38.89l-2.22-1.65 6.34 3.29c-.85-.26-2.74-1.1-4.12-1.65m-17.43-69.72l1.04 6.52c-.54-1.22-1.13-2.41-1.82-3.61.4-.82.63-1.81.78-2.91"/><path d="M111.39 154.61a55.73 55.73 0 0 1 2.89-8.23c-1.11 3.29-2.01 6.73-2.73 10.14-.19-.87-.36-1.56-.16-1.9m26.52-138.23c8.99 3.87 17.31 9.45 24.39 16.03 7.09 6.58 12.93 14.18 17.43 21.98-3.61-6.25-7.96-12.04-12.88-17.27 3.68 3.92 6.71 7.9 9.32 12.15a75.89 75.89 0 0 1 6.68 13.91c-1.04-1.34-2.17-3.64-3.35-5.7-1.17-2.06-2.39-3.87-3.31-4.29-6.65-10.99-15.35-20.77-25.68-28.52-10.29-7.77-22.22-13.48-34.78-16.49 5.29-.35 9.36 1.11 12.75 2.84 3.4 1.78 6.17 3.88 9.42 5.36m50.91 74.78l-1.11-7.48c.59 2.57 1.03 5.15 1.11 7.48M17.43 88.45l-.41 7.85c-.16-2.58.08-5.23.41-7.85"/><path d="M104.43 14.04l-4.44.31c-11.12-.48-22.58 1.09-33.55 4.99 5.93-2.18 12.2-4.1 18.67-5.17 6.44-1.06 13.08-1.25 19.32-.13m11.49 4.07c10.91 2.18 21.34 7.35 29.17 14.23-8-6.65-18.17-11.68-29.17-14.23M53.25 151.24c.12-.19.36-.21.65-.15.24.13.48.22.72.25a72.36 72.36 0 0 0 8.27 7.13c-.84-.38-1.78-.47-2.57-.97-1.59-1.28-2.38-2.28-3.26-3.22-.89-.95-1.87-1.83-3.8-3.04M17.82 85.53l-.07-.29.37-2.68.13-.31-.43 3.28"/><path d="M49.96 147.96c.25-.34.5-.7.52-1.15l4.1 4.5-.69-.22c-1.23-.66-2.48-2.44-3.94-3.13m-16.04-41.81c-.14-1.24-1.06-2.3-1.31-2.9.41-3.32 1.03-6.55 1.78-10.28-.16-.61-.03-1.84-.28-3.08.46-.63.86-1.33 1.28-2.05-1.7 8.11-1.89 16.8-.39 25.54-.54-2.3-.94-4.72-1.08-7.24"/><path d="M174.92 94.51c.8 6.61.03 13.84-1.59 20.72-1.6 6.91-3.94 13.47-5.86 19.79 4.15-6.49 7.47-15.19 9.34-22.65 1.95-7.45 2.76-13.6 4.59-14.88 1.78-1.32 2.32 4.47 1.11 12.08-.6 3.79-1.65 8-2.94 11.94-1.28 3.95-2.79 7.64-3.99 10.65 1.02-1.44 1.01-1.44 1.99-2.91-.98 1.48-1.96 2.92-2.18 4.48 1.06-1.41 2.36-3.62 3.54-5.73 1.19-2.09 2.28-4.06 3.12-4.85a72.91 72.91 0 0 1-.06 3.3c2.73-3.93 5.15-10.31 6.67-17 1.56-6.69 2.22-13.6 3.11-18.59-1.06 12.04-3.56 24.67-8.53 36.92-4.92 12.23-12.3 24.04-22.13 33.98-9.78 9.95-22.06 17.94-35.57 22.6-13.48 4.69-28.05 6.06-41.74 3.99-30.77-3.72-57.97-21.45-73.85-46.49-1.4-2.41-3.38-6.74-4.92-11.75-1.59-4.99-2.71-10.63-3.27-15.36-3.15-16.52-1.99-34 2.79-50.49C10.29 46.85 21.6 31.69 36.2 20.6 50.81 9.46 68.78 2.34 88.09.14c3.85-.47 8.5.29 9.71 1.34.61.51.39 1.06-1.12 1.57-1.51.53-4.3.99-8.81 1.75C73 7.66 58.7 13.35 46.16 21.75c.41-.96 2.22-2.31 4.31-3.61 2.08-1.31 4.4-2.59 5.74-3.72a79.59 79.59 0 0 0-14.06 7.59c-4.27 2.9-8.24 6.21-12.13 10.2A96.39 96.39 0 0 1 47.28 18.1c-7.85 5.02-15.42 11.41-21.91 19.04-6.48 7.62-11.85 16.48-15.45 25.96-1.38 3.43-3.39 6.4-5.05 10.01-1.63 3.59-2.91 7.86-2.35 13.31C5 73.29 10.34 60.68 17.88 49.65c7.53-11.04 17.22-20.52 28.28-27.91-.03.05-.06.1-.06.15 9.8-6.7 19.95-10.84 31.07-13.49-3.44.95-6.84 2.18-9.86 3.03 16.04-4.49 32.58-5.41 48.49-2.17-11.39-1.19-23.08-.65-34.46 1.85-11.38 2.48-22.48 7-32.34 13.48-9.87 6.46-18.5 14.84-25.09 24.48-6.6 9.63-11.14 20.53-13.21 31.57 2.28-5.95 4.38-12.88 7.36-19.34 2.94-6.44 6.73-12.36 11.03-15.86-12.51 15.82-19.82 36-19.73 56.97l-.51-4.6c-.84 6.52-.33 13.37 1.07 20 1.39 6.66 3.69 13.07 6.23 19.11.45 1.09.9 2.17 1.4 3.24l-1.4-3.24c-4.58-11.18-6.78-22.98-6.79-34.52.6 5.28 1.17 10.83 2.41 17.44-.05-3.7-.57-8.86-.55-14.03-.39-6.75 0-13.55 1.22-20.13-1.63 10.23-.8 20.6 1.73 29.46-1.67-13.63-.67-28 3.98-40.87-2.17 7.17-3.34 14.61-3.51 22.04-.93 12.44.94 25.3 5.81 37.22l-.63-1.33c.37.9.79 1.79 1.19 2.69 1.99 4.62 4.42 9.09 7.27 13.32 2.64 3.73 5.87 6.91 9.33 9.69l1.57 1.58c-1.23-.75-2-.98-.19 1.09 3.82 4.49 8.79 8.26 14.24 11.5 5.46 3.26 11.36 6.02 17.54 8.92 3.24 1.53 7.98 2.65 13.14 3.22 1.34.51 2.11.44 2.8.25a74.79 74.79 0 0 0 3.36.19c2.73.23 5.49.34 8.17.07-2.65.04-5.41.04-8.17-.07l-3.06-.27c.73-.22 1.51-.5 3.01-.36-9.31-1.04-18.6-3.72-27.23-7.91-8.65-4.17-16.64-9.84-23.59-16.62 1.04.61 2.43 1.52 3.07 1.83-1.59-1.06-3.12-2.21-4.65-3.4a94.08 94.08 0 0 1-11.72-14.76c1.13 1.51 2.35 2.81 3.55 3.82-4.93-7.39-8.76-15.52-11.29-24.1-2.51-8.56-3.73-17.55-3.51-26.55 1.23-16.88 7.74-32.88 17.9-45.71-6.18 6.39-11.16 14.61-14.39 23.67 3.67-12.25 10.31-23.67 19.24-32.91 8.89-9.28 20.12-16.3 32.25-20.13-3.88 2.76-9.03 6.32-10.53 9.2.53.54 7.53-2.62 3.76-.18-6.67 4.7-12.05 8.9-16.01 12.96-3.94 4.04-6.36 7.96-6.42 11.84.14.84 3.7-1.4 6.96-2.79 3.26-1.43 6.12-2.14 4.61-.1-2.72 3.18-7.42 9.03-10.98 16.16-1.23 1.93-2.33 4.05-3.31 6.31-.2.25-.15.83-.11 1.54-3.02 8.03-4.03 16.13-4.5 20.61-.2 1.67-.3 3.33-.36 5.01-.23.89-.53 1.65-.92 2.27.39 1.05.72 2.09 1 3.12.26 4.5 1.01 8.93 2.22 13.19.36 2.47.82 4.96 1.52 7.37.25-.17.45-.7.91-.39 2.15 5.14 4.97 9.96 8.37 14.35 1.11 2 2.07 3.93 2.81 5.84 3.08 1.32 6.85 4.57 11.34 7.7 4.44 3.16 9.61 6.19 14.23 7.72l.02-.09c4.54 1.78 9.3 3.1 14.22 3.88.78.37 1.52.77 2.22 1.19 1.29-.3 2.58-.22 3.22-.41 3.95.6 7.37 1.07 10.87 1.32.61-.29 1.68-1.25 2.99-1.46 2.62-.27 5.13-.8 7.52-1.47 2.84-.65 5.69-1.44 8.51-2.44 9.51-3.33 18.3-8.6 25.74-15.48.46 0 .83.23 1.19.44.68-1.53 2.46-2.93 3.1-4.24-.06.3-.04.54.17.64 1.2-2.05 2.06-3.13 3-4.11.94-.97 1.93-1.86 3.19-3.59.48-.84.57-1.82.91-2.71.27-.38.51-.78.76-1.18 3.9-3.43 5.25-8.31 6.76-13.49 1.92-5.1 3.31-10.46 4.05-15.97.52-4.36 1.66-6.09 2.25-9.29"/><path d="M63.97 159.25a69.96 69.96 0 0 0 12.56 7.08c-4.88-1.66-9.5-3.13-12.56-7.08M55.32 50.76c1.88-.58 3.77-1.4 5.73-2.35-9.24 6.5-16.67 15.57-21.35 26.08l-.1-.03c1.65-4.33 4.76-9.12 7.96-13.2 3.17-4.13 6.41-7.58 7.76-10.51M53.9 151.09c.21.05.44.14.69.21 0 .02.02.02.03.04a1.88 1.88 0 0 1-.72-.25m14.37-126.8l1.31-.47c-3.25 1.42-6.4 3.04-9.45 4.81 2.33-1.62 5.15-3.08 8.14-4.34m37.32-4.41c7.13.47 14.23 1.94 21.01 4.32 8.56 3.51 16.23 8.68 22.07 14.91-11.87-10.31-26.94-17.28-43.08-19.22"/><path d="M74.7 40.17c2.31-.54 4.71-.84 7.08-1.07a59.34 59.34 0 0 0-6.74 1.99c.31-.43-.19-.67-.34-.93m-30.84.55l1.58-1.45-3.45 4.34c.33-.61 1.25-1.92 1.86-2.89m55.7-2.96l-5.11-.17 3.01-.85c.57.43 1.28.74 2.1 1.02m25.56 5.89a44.24 44.24 0 0 1 5.85 3.42c-2.34-1.34-4.83-2.53-7.31-3.58.68-.02 1.24-.05 1.47.16m225.4 170.08h681.32v.62H350.52zm50.79 36.29c0 1.82-1.14 2.1-4.94 2.16l-9.83.28-9.2.51c0 .23.06.34.23 2.95 0 1.71-.23 5.06-1.48 10.4a77.69 77.69 0 0 0-1.82 13.86l-.17 9.03c0 1.53-1.02 2.5-2.5 2.5s-2.9-.74-2.9-2.22.23-5 .51-7.67c.17-4.03.97-9.37 1.71-13.98.8-4.66 1.53-8.58 1.59-10.06 0-.63-.23-2.78-.85-4.72l-2.95.17c-4.66.28-10.63.57-14.77.57-1.82 0-3.41 0-3.41-2.16 0-1.02 1.48-1.82 4.2-1.99l13.75-.97 3.07-.45c.45-.74 1.25-1.48 2.5-1.48.28 0 2.1.45 3.07 1.65 2.95 0 14.32-.4 20.11-.85 1.87 0 3.81.45 4.09 1.99v.45z"/><path d="M417.99 276.88c-.68 4.15-.97 8.07-.97 10.23 0 1.65-1.08 2.5-2.67 2.5s-2.5-1.59-2.5-2.73l.91-6.87c.68-4.43 1.71-12.56 1.71-14.89 0-.63-.06-1.02-.17-1.31-2.1.63-7.1 4.83-10.62 11.82l-3.41 6.76-1.42 3.18c-1.19 2.44-1.93 3.07-3.75 3.07-1.08 0-1.99-1.31-1.99-2.84v-.28l1.65-13.29 1.65-13.41 1.48-11.53c.28-2.33 1.02-7.16 3.69-7.16 1.82 0 2.22.74 2.22 1.76 0 .45-.11 1.02-.17 1.59l-.57 3.24c-2.27 15.11-2.95 21.02-3.47 27.1l.51-.62.68-1.14c.06-.17.17-.23.23-.4 1.08-1.7 2.78-4.09 4.32-5.74l2.33-2.44c2.95-2.95 6.08-6.08 8.24-6.08 3.18 0 3.3 3.69 3.3 6.19v.97l-1.19 12.33z"/><use xlink:href="#B"/><path d="M508.38 250.58l-1.08 3.3c-.8 3.86-1.65 10.57-2.27 14.54l-.17 1.02c-.4 3.01-.4 8.75-.62 11.99 0 .11.17.23.23 5.68v.34c0 1.25.11 2.73-2.9 2.73-1.31 0-1.87-.51-2.05-4.38-.28-4.77.06-9.6.34-15.23-2.5.23-11.14 1.08-15.4 1.82-.17.74-.28 1.36-1.02 8.47-.23 1.87-.34 3.64-.57 5.11-.34 2.16-.85 3.64-2.67 3.64-1.93 0-2.61-1.42-2.61-3.24 0-.63.17-1.59.34-2.67l.17-1.14c.4-2.61.91-6.19 1.25-9.77-1.42.06-3.24.17-5.34.17-2.73 0-3.86-.28-3.86-1.88 0-2.16 1.65-2.33 3.64-2.5l6.48-.63c.23-.85.51-2.16.62-3.24.34-2.67 1.88-11.36 2.05-13.64.17-2.67.74-5.17 3.92-5.17 1.65.17 1.87 1.19 1.87 2.33 0 2.16-.97 4.83-1.48 7.67l-1.53 8.18c-.28 1.53-.34 1.76-.57 3.3 3.64-.23 5.97-.45 11.82-1.08l3.47-.17c.11-.45.34-1.99.85-5.17.68-4.38 1.48-10.51 2.22-11.93.91-1.31 1.7-2.39 3.07-2.39 1.02 0 2.1.8 2.1 2.27l-.28 1.65zm26.99 13.06c-.68 0-2.44-.06-3.69-.06h-.85c-.06 0-1.93-.11-3.69-.11h-.85c1.36 1.31 3.3 4.38 3.3 8.98 0 4.2-3.3 15.57-12.22 15.57-6.53 0-7.84-6.02-7.84-10.51 0-4.15 2.61-14.88 12.84-18.46.23-.06.4-.06.68-.06.8 0 1.76.17 2.5.34.23.06.51.11.63.11l8.69.06h1.59c1.76 0 2.95 1.08 3.01 2.16-.4 1.65-2.1 1.99-3.12 1.99h-.97zm-15 1.36c-2.73 1.87-5.8 7.27-5.8 13.12v.91c0 2.73 1.99 5.06 3.12 5.06 3.81 0 7.44-6.93 7.44-10.51 0-3.3-1.53-6.31-4.77-8.58z"/><use xlink:href="#C"/><use xlink:href="#B" x="153.56"/><path d="M680.42 237.52c-7.84 0-17.44 5.06-18.92 11.76l-2.04 9.38c-1.71.28-15.17 1.01-17.67.67s-1.7-.34-2.5-.34c-.28 0-.45 0-.68.06-10.23 3.58-12.84 14.32-12.84 18.46 0 4.49 1.31 10.51 7.84 10.51 8.92 0 12.21-11.36 12.21-15.57 0-4.6-1.93-7.67-3.3-8.98h.85c.81 0 12.5.24 15.91-.16l-.74 6.82c-.8 7.16-2.27 15.34-3.47 21.7l-.23 1.25c-.74 3.98-1.48 4.66-1.48 6.59 0 1.42.57 2.27 1.93 2.27 2.56 0 2.44-1.08 2.78-2.04.06-.11.28-1.88.28-1.99l2.33-10.06 2.1-13.58c1.08-8.3 1.14-10.23 1.14-11.02v-.34a77.22 77.22 0 0 0 9.37-1.19l5.23-.68c2.95-.34 4.32-.96 4.32-2.61 0-1.31-1.82-1.76-1.87-1.76l-8.69 1.02c-1.87.4-4.72.51-6.48.68l-1.02.11c.28-2.1 1.59-7.05 2.05-8.24 1.93-5.23 6.7-8.12 13.69-8.12 3.18 0 6.99 1.48 7.78 1.82.63.34 1.59.85 2.22.85.8 0 1.93-.63 1.93-1.93 0-3.07-6.36-5.34-12.05-5.34zm-46.47 46.58c-1.14 0-3.12-2.33-3.12-5.06v-.91c0-5.85 3.07-11.25 5.8-13.12 3.24 2.27 4.77 5.28 4.77 8.58 0 3.58-3.64 10.51-7.44 10.51zm92.1-32.73c-2.22 0-7.67 1.87-12.84 4.49-6.08 3.07-11.48 7.27-11.87 8.86-.23.91 3.12 1.08 10.74 1.65.97.06 13.52.85 13.64 7.33.06 4.09-6.08 9.54-11.36 13.35-3.58 2.27-9.77 5.4-14.2 5.4-2.16 0-6.14-.85-6.14-3.52 0-1.36 1.31-2.04 2.27-2.04 0 0 1.48 1.14 3.86.97 4.09-.28 7.39-1.59 11.36-3.98 4.83-2.9 9.43-6.99 9.37-9.43.06-.28-.63-1.82-3.01-2.61-1.87-.63-4.54-.91-6.42-1.08l-8.81-.74c-3.81-.51-6.87-1.65-6.87-4.77 0-4.55 10.17-10.23 15.4-12.84l.97-.51c3.81-1.82 10.85-5.06 14.26-5.06 1.53 0 3.18.23 3.18 2.04 0 2.5-1.65 2.5-3.52 2.5zm22.83 33.64c-4.09 2.05-8.92 4.32-14.2 4.32-4.94 0-7.61-3.69-7.61-8.52 0-2.73.68-7.1 2.73-10.74 2.04-3.75 8.64-10 13.81-10 1.99 0 6.25 1.59 6.25 3.75 0 1.14-1.36 2.27-2.73 2.27-.85 0-1.31-.51-1.7-.91-.4-.34-.8-.74-1.59-.74-3.64 0-6.25 3.18-8.92 6.08h.06a17.46 17.46 0 0 0-3.07 10c0 1.48.4 4.66 3.3 4.66 4.89 0 8.07-1.48 11.99-3.58 6.36-3.58 7.22-3.92 7.39-3.92.8 0 1.99.91 1.99 1.99s-2.04 2.22-3.98 3.35l-.97.57-2.73 1.42z"/><path d="M757.72 286.43c0 .11-.06.23-.06.34-.28 1.25-.74 3.3-3.35 3.3-1.93 0-1.99-1.08-1.99-2.44 0-.57.06-1.19.17-1.65 1.08-5.11 3.24-17.56 3.52-23.18.06-1.36 0-3.64 2.33-3.64 1.93 0 2.73.96 2.73 3.01 0 1.87-.23 4.77-.68 7.56 2.16-2.61 5.45-5.17 8.52-7.22s8.47-4.09 10.62-4.38c2.84-.4 4.6 1.02 4.6 1.87 0 1.88-1.93 2.05-3.81 2.22l-1.31.11c-2.22.62-6.42 2.78-9.15 4.71-9.6 6.53-10.62 14.72-12.16 19.37zm41.89.28c0-1.36.17-3.47.57-5.85l1.42-8.01-2.67 3.75c-2.16 3.07-5.23 7.1-7.61 9.37l-.45.4c-1.36 1.19-3.18 2.78-5.51 2.78-1.82 0-3.3-.74-3.3-3.3 0-.28.17-5.34.23-5.68l.62-5.34c0-.23 1.02-5.4 1.65-7.95 0-.11.06-.17.06-.28.63-2.73 1.82-7.78 4.77-7.78 1.19 0 2.22.96 2.22 2.61-.17 2.5-2.33 7.22-3.07 11.25-.74 3.75-1.53 9.77-1.53 11.02 0 .17.06.23.06.23.97 0 6.19-7.05 10.28-12.16l6.87-10.57c.45-.51 1.31-.97 2.5-.97 1.76 0 2.56 1.31 2.56 2.39v.34c-.62 2.61-1.25 4.83-1.76 6.42-.63 1.76-1.65 5.06-1.82 7.05l-.17 1.7-.74 8.41v.34c.06.68.17 1.42.17 1.7 0 1.02-.4 1.76-2.33 1.76-2.33-.11-3.01-1.14-3.01-3.64z"/><use xlink:href="#C" x="277.3"/><path d="M1158.11 91.1h-5.07v-4.09h14.75v4.09h-5.07v13.47h-4.61V91.1zm13.43-4.09h6.18l4.18 11.43 4.18-11.43h6.18v17.57h-4.61V93.15h-.09l-4.18 11.43h-2.99l-4.18-11.43h-.09v11.43h-4.6V87.01z"/></g><defs ><path id="B" d="M434.31 289.21c-8.58 0-10.45-8.18-10.45-12.38 0-.11-.06-.23-.06-.68 0-.34.06-.8.11-1.59h-1.42c-1.36 0-3.69-.23-3.69-2.22 0-1.88 1.25-2.22 2.9-2.22 3.07 0 3.07.06 3.07.06 1.82-3.13 7.1-11.65 12.39-11.65 4.09 0 12.61 2.16 12.61 9.32 0 1.42 0 2.44-.4 3.47-.4.97-1.71 1.08-3.52 1.08l-5.63.34c-4.15.34-9.77.97-11.59 1.42-.06.4-.06.97-.06 1.59v1.31c0 .4.23 8.18 6.14 8.18 3.64 0 9.66-2.9 14.15-5.17 1.48-.74 3.18-1.42 4.38-1.42 1.02 0 1.59.68 1.59 1.31 0 .97-1.42 1.82-2.67 2.39-.06.06-.28.17-1.59.74-5.28 2.9-11.59 6.14-16.25 6.14zm10.23-24.15c-1.48-1.08-3.81-2.5-6.48-2.5-2.1 0-6.08 4.32-8.01 7.22.8-.06 2.22-.28 2.95-.34l8.52-.74c1.53-.11 2.44-.11 3.47-.4.11-.45.23-1.08.23-1.53 0-.62-.23-1.19-.68-1.7z"/><path id="C" d="M564.3 285.06v-.79c0-4.03.57-6.25 1.14-11.53l.8-7.1c0-.45 0-.8-.06-1.02-1.48.74-6.08 5.74-8.64 9.37-2.5 4.26-4.38 8.81-4.72 11.59-.28 1.36-1.93 2.05-3.41 2.05-2.1 0-2.16-1.88-2.16-2.78 0-1.25.45-2.67 2.27-11.65.57-2.67.57-2.9.57-2.96.4-1.93.57-3.81.57-5.4 0-.17 0-.23-.06-.23-.63 0-2.5 2.1-3.58 3.47-2.67 2.95-4.15 5.68-5.17 7.61l-2.73 6.99c0 .28-.17.34-.8 2.5-.23.91-.91 2.44-2.9 2.44-2.27 0-2.27-1.42-2.27-2.44v-.45l.68-4.2c.06-.23.28-.8 1.02-4.89l.45-2.5c.51-4.2 1.14-5.45 1.42-9.94v-.28c0-1.76 0-4.15 2.95-4.15 1.7 0 2.27 1.59 2.5 3.12 0 .8-.57 5.51-1.19 7.78 3.01-4.09 8.35-10.45 11.76-10.45 1.19 0 3.01.4 3.01 3.3 0 3.64-.4 6.19-.68 8.07 1.14-1.48 3.07-3.86 5.28-6.08 2.73-2.44 6.76-5.34 8.69-5.34 1.48 0 2.67 1.31 2.67 2.95-.34 3.92-.57 6.02-.8 7.22v.4c-.28.28-.34 1.82-.45 3.64l-.34 2.73c-.4 2.73-.85 5.51-.85 7.61v.34c0 .68.17 1.7.17 2.39 0 1.42-.51 2.56-2.9 2.56-1.99 0-2.27-2.16-2.27-3.92z"/></defs></svg>