<svg xmlns="http://www.w3.org/2000/svg" viewBox="0 0 16.072 15.325"><g data-name="Group 231"><path data-name="Path 108" d="M12.175 4.687v6.022s-.557 1.406-1.287 1.19H6.122l-2.991 3.425v-3.065H1.357A1.384 1.384 0 0 1 0 10.853V4.687a1.416 1.416 0 0 1 1.357-1.442h9.462a1.416 1.416 0 0 1 1.357 1.442zM6.122 8.494" fill="#ef4b92"/><path data-name="Path 109" d="M14.575.036L4.939 0a1.422 1.422 0 0 0-1.391 1.442v1.8h6.888a1.452 1.452 0 0 1 1.461 1.406v5.34l2.087 2.236V9.05h.731a1.384 1.384 0 0 0 1.357-1.406v-6.2a1.459 1.459 0 0 0-1.5-1.406zm-.1 0" fill="#f281b7"/></g></svg>